  0
SECTION
  2
HEADER
  9
$ACADVER
  1
AC1024
  9
$ACADMAINTVER
 70
6
  9
$DWGCODEPAGE
  3
ANSI_1252
  9
$LASTSAVEDBY
  1
ezdxf
  9
$INSBASE
 10
0.0
 20
0.0
 30
0.0
  9
$EXTMIN
 10
-100
 20
-100
 30
-100
  9
$EXTMAX
 10
100
 20
100
 30
100
  9
$LIMMIN
 10
0.0
 20
0.0
  9
$LIMMAX
 10
420.0
 20
297.0
  9
$ORTHOMODE
 70
0
  9
$REGENMODE
 70
1
  9
$FILLMODE
 70
1
  9
$QTEXTMODE
 70
0
  9
$MIRRTEXT
 70
1
  9
$LTSCALE
 40
1.0
  9
$ATTMODE
 70
1
  9
$TEXTSIZE
 40
2.5
  9
$TRACEWID
 40
1.0
  9
$TEXTSTYLE
  7
Standard
  9
$CLAYER
  8
0
  9
$CELTYPE
  6
ByLayer
  9
$CECOLOR
 62
256
  9
$CELTSCALE
 40
1.0
  9
$DISPSILH
 70
0
  9
$DIMSCALE
 40
1.0
  9
$DIMASZ
 40
2.5
  9
$DIMEXO
 40
0.625
  9
$DIMDLI
 40
3.75
  9
$DIMRND
 40
0.0
  9
$DIMDLE
 40
0.0
  9
$DIMEXE
 40
1.25
  9
$DIMTP
 40
0.0
  9
$DIMTM
 40
0.0
  9
$DIMTXT
 40
2.5
  9
$DIMCEN
 40
2.5
  9
$DIMTSZ
 40
0.0
  9
$DIMTOL
 70
0
  9
$DIMLIM
 70
0
  9
$DIMTIH
 70
0
  9
$DIMTOH
 70
0
  9
$DIMSE1
 70
0
  9
$DIMSE2
 70
0
  9
$DIMTAD
 70
1
  9
$DIMZIN
 70
8
  9
$DIMBLK
  1

  9
$DIMASO
 70
1
  9
$DIMSHO
 70
1
  9
$DIMPOST
  1

  9
$DIMAPOST
  1

  9
$DIMALT
 70
0
  9
$DIMALTD
 70
3
  9
$DIMALTF
 40
0.03937007874
  9
$DIMLFAC
 40
1.0
  9
$DIMTOFL
 70
1
  9
$DIMTVP
 40
0.0
  9
$DIMTIX
 70
0
  9
$DIMSOXD
 70
0
  9
$DIMSAH
 70
0
  9
$DIMBLK1
  1

  9
$DIMBLK2
  1

  9
$DIMSTYLE
  2
ISO-25
  9
$DIMCLRD
 70
0
  9
$DIMCLRE
 70
0
  9
$DIMCLRT
 70
0
  9
$DIMTFAC
 40
1.0
  9
$DIMGAP
 40
0.625
  9
$DIMJUST
 70
0
  9
$DIMSD1
 70
0
  9
$DIMSD2
 70
0
  9
$DIMTOLJ
 70
0
  9
$DIMTZIN
 70
8
  9
$DIMALTZ
 70
0
  9
$DIMALTTZ
 70
0
  9
$DIMUPT
 70
0
  9
$DIMDEC
 70
2
  9
$DIMTDEC
 70
2
  9
$DIMALTU
 70
2
  9
$DIMALTTD
 70
3
  9
$DIMTXSTY
  7
Standard
  9
$DIMAUNIT
 70
0
  9
$DIMADEC
 70
0
  9
$DIMALTRND
 40
0.0
  9
$DIMAZIN
 70
0
  9
$DIMDSEP
 70
44
  9
$DIMATFIT
 70
3
  9
$DIMFRAC
 70
0
  9
$DIMLDRBLK
  1

  9
$DIMLUNIT
 70
2
  9
$DIMLWD
 70
-2
  9
$DIMLWE
 70
-2
  9
$DIMTMOVE
 70
0
  9
$DIMFXL
 40
1.0
  9
$DIMFXLON
 70
0
  9
$DIMJOGANG
 40
0.785398163397
  9
$DIMTFILL
 70
0
  9
$DIMTFILLCLR
 70
0
  9
$DIMARCSYM
 70
0
  9
$DIMLTYPE
  6

  9
$DIMLTEX1
  6

  9
$DIMLTEX2
  6

  9
$DIMTXTDIRECTION
 70
0
  9
$LUNITS
 70
2
  9
$LUPREC
 70
4
  9
$SKETCHINC
 40
1.0
  9
$FILLETRAD
 40
10.0
  9
$AUNITS
 70
0
  9
$AUPREC
 70
2
  9
$MENU
  1
.
  9
$ELEVATION
 40
0.0
  9
$PELEVATION
 40
0.0
  9
$THICKNESS
 40
0.0
  9
$LIMCHECK
 70
0
  9
$CHAMFERA
 40
0.0
  9
$CHAMFERB
 40
0.0
  9
$CHAMFERC
 40
0.0
  9
$CHAMFERD
 40
0.0
  9
$SKPOLY
 70
0
  9
$TDCREATE
 40
2459269.718784722
  9
$TDUCREATE
 40
2458532.153996898
  9
$TDUPDATE
 40
2459269.718784722
  9
$TDUUPDATE
 40
2458532.1544311
  9
$TDINDWG
 40
0.0
  9
$TDUSRTIMER
 40
0.0
  9
$USRTIMER
 70
1
  9
$ANGBASE
 50
0.0
  9
$ANGDIR
 70
0
  9
$PDMODE
 70
0
  9
$PDSIZE
 40
0.0
  9
$PLINEWID
 40
0.0
  9
$SPLFRAME
 70
0
  9
$SPLINETYPE
 70
6
  9
$SPLINESEGS
 70
8
  9
$HANDSEED
  5
247
  9
$SURFTAB1
 70
6
  9
$SURFTAB2
 70
6
  9
$SURFTYPE
 70
6
  9
$SURFU
 70
6
  9
$SURFV
 70
6
  9
$UCSBASE
  2

  9
$UCSNAME
  2

  9
$UCSORG
 10
0.0
 20
0.0
 30
0.0
  9
$UCSXDIR
 10
1.0
 20
0.0
 30
0.0
  9
$UCSYDIR
 10
0.0
 20
1.0
 30
0.0
  9
$UCSORTHOREF
  2

  9
$UCSORTHOVIEW
 70
0
  9
$UCSORGTOP
 10
0.0
 20
0.0
 30
0.0
  9
$UCSORGBOTTOM
 10
0.0
 20
0.0
 30
0.0
  9
$UCSORGLEFT
 10
0.0
 20
0.0
 30
0.0
  9
$UCSORGRIGHT
 10
0.0
 20
0.0
 30
0.0
  9
$UCSORGFRONT
 10
0.0
 20
0.0
 30
0.0
  9
$UCSORGBACK
 10
0.0
 20
0.0
 30
0.0
  9
$PUCSBASE
  2

  9
$PUCSNAME
  2

  9
$PUCSORG
 10
0.0
 20
0.0
 30
0.0
  9
$PUCSXDIR
 10
1.0
 20
0.0
 30
0.0
  9
$PUCSYDIR
 10
0.0
 20
1.0
 30
0.0
  9
$PUCSORTHOREF
  2

  9
$PUCSORTHOVIEW
 70
0
  9
$PUCSORGTOP
 10
0.0
 20
0.0
 30
0.0
  9
$PUCSORGBOTTOM
 10
0.0
 20
0.0
 30
0.0
  9
$PUCSORGLEFT
 10
0.0
 20
0.0
 30
0.0
  9
$PUCSORGRIGHT
 10
0.0
 20
0.0
 30
0.0
  9
$PUCSORGFRONT
 10
0.0
 20
0.0
 30
0.0
  9
$PUCSORGBACK
 10
0.0
 20
0.0
 30
0.0
  9
$USERI1
 70
0
  9
$USERI2
 70
0
  9
$USERI3
 70
0
  9
$USERI4
 70
0
  9
$USERI5
 70
0
  9
$USERR1
 40
0.0
  9
$USERR2
 40
0.0
  9
$USERR3
 40
0.0
  9
$USERR4
 40
0.0
  9
$USERR5
 40
0.0
  9
$WORLDVIEW
 70
1
  9
$SHADEDGE
 70
3
  9
$SHADEDIF
 70
70
  9
$TILEMODE
 70
1
  9
$MAXACTVP
 70
64
  9
$PINSBASE
 10
0.0
 20
0.0
 30
0.0
  9
$PLIMCHECK
 70
0
  9
$PEXTMIN
 10
1e+20
 20
1e+20
 30
1e+20
  9
$PEXTMAX
 10
-1e+20
 20
-1e+20
 30
-1e+20
  9
$PLIMMIN
 10
0.0
 20
0.0
  9
$PLIMMAX
 10
420.0
 20
297.0
  9
$UNITMODE
 70
0
  9
$VISRETAIN
 70
1
  9
$PLINEGEN
 70
0
  9
$PSLTSCALE
 70
1
  9
$TREEDEPTH
 70
3020
  9
$CMLSTYLE
  2
Standard
  9
$CMLJUST
 70
0
  9
$CMLSCALE
 40
20.0
  9
$PROXYGRAPHICS
 70
1
  9
$MEASUREMENT
 70
1
  9
$CELWEIGHT
370
-1
  9
$ENDCAPS
280
0
  9
$JOINSTYLE
280
0
  9
$LWDISPLAY
290
0
  9
$INSUNITS
 70
6
  9
$HYPERLINKBASE
  1

  9
$STYLESHEET
  1

  9
$XEDIT
290
1
  9
$CEPSNTYPE
380
0
  9
$PSTYLEMODE
290
1
  9
$FINGERPRINTGUID
  2
93EC61C1-7624-11EB-87F4-28C63F9D1731
  9
$VERSIONGUID
  2
93F143C0-7624-11EB-B730-28C63F9D1731
  9
$EXTNAMES
290
1
  9
$PSVPSCALE
 40
0.0
  9
$OLESTARTUP
290
0
  9
$SORTENTS
280
127
  9
$INDEXCTL
280
0
  9
$HIDETEXT
280
1
  9
$XCLIPFRAME
280
2
  9
$HALOGAP
280
0
  9
$OBSCOLOR
 70
257
  9
$OBSLTYPE
280
0
  9
$INTERSECTIONDISPLAY
280
0
  9
$INTERSECTIONCOLOR
 70
257
  9
$DIMASSOC
280
2
  9
$PROJECTNAME
  1

  9
$CAMERADISPLAY
290
0
  9
$LENSLENGTH
 40
50.0
  9
$CAMERAHEIGHT
 40
0.0
  9
$STEPSPERSEC
 40
24.0
  9
$STEPSIZE
 40
100.0
  9
$3DDWFPREC
 40
2.0
  9
$PSOLWIDTH
 40
0.005
  9
$PSOLHEIGHT
 40
0.08
  9
$LOFTANG1
 40
1.570796326795
  9
$LOFTANG2
 40
1.570796326795
  9
$LOFTMAG1
 40
0.0
  9
$LOFTMAG2
 40
0.0
  9
$LOFTPARAM
 70
7
  9
$LOFTNORMALS
280
1
  9
$LATITUDE
 40
37.795
  9
$LONGITUDE
 40
-122.394
  9
$NORTHDIRECTION
 40
0.0
  9
$TIMEZONE
 70
-8000
  9
$LIGHTGLYPHDISPLAY
280
1
  9
$TILEMODELIGHTSYNCH
280
1
  9
$CMATERIAL
347
20
  9
$SOLIDHIST
280
0
  9
$SHOWHIST
280
1
  9
$DWFFRAME
280
2
  9
$DGNFRAME
280
2
  9
$REALWORLDSCALE
290
1
  9
$INTERFERECOLOR
 62
256
  9
$CSHADOW
280
0
  9
$SHADOWPLANELOCATION
 40
0.0
  0
ENDSEC
  0
SECTION
  2
CLASSES
  0
CLASS
  1
ACDBDICTIONARYWDFLT
  2
AcDbDictionaryWithDefault
  3
ObjectDBX Classes
 90
0
 91
0
280
0
281
0
  0
CLASS
  1
SUN
  2
AcDbSun
  3
SCENEOE
 90
1153
 91
0
280
0
281
0
  0
CLASS
  1
VISUALSTYLE
  2
AcDbVisualStyle
  3
ObjectDBX Classes
 90
4095
 91
0
280
0
281
0
  0
CLASS
  1
MATERIAL
  2
AcDbMaterial
  3
ObjectDBX Classes
 90
1153
 91
0
280
0
281
0
  0
CLASS
  1
SCALE
  2
AcDbScale
  3
ObjectDBX Classes
 90
1153
 91
0
280
0
281
0
  0
CLASS
  1
TABLESTYLE
  2
AcDbTableStyle
  3
ObjectDBX Classes
 90
4095
 91
0
280
0
281
0
  0
CLASS
  1
MLEADERSTYLE
  2
AcDbMLeaderStyle
  3
ACDB_MLEADERSTYLE_CLASS
 90
4095
 91
0
280
0
281
0
  0
CLASS
  1
DICTIONARYVAR
  2
AcDbDictionaryVar
  3
ObjectDBX Classes
 90
0
 91
0
280
0
281
0
  0
CLASS
  1
CELLSTYLEMAP
  2
AcDbCellStyleMap
  3
ObjectDBX Classes
 90
1152
 91
0
280
0
281
0
  0
CLASS
  1
MENTALRAYRENDERSETTINGS
  2
AcDbMentalRayRenderSettings
  3
SCENEOE
 90
1024
 91
0
280
0
281
0
  0
CLASS
  1
ACDBDETAILVIEWSTYLE
  2
AcDbDetailViewStyle
  3
ObjectDBX Classes
 90
1025
 91
0
280
0
281
0
  0
CLASS
  1
ACDBSECTIONVIEWSTYLE
  2
AcDbSectionViewStyle
  3
ObjectDBX Classes
 90
1025
 91
0
280
0
281
0
  0
CLASS
  1
RASTERVARIABLES
  2
AcDbRasterVariables
  3
ISM
 90
0
 91
0
280
0
281
0
  0
CLASS
  1
ACDBPLACEHOLDER
  2
AcDbPlaceHolder
  3
ObjectDBX Classes
 90
0
 91
0
280
0
281
0
  0
CLASS
  1
LAYOUT
  2
AcDbLayout
  3
ObjectDBX Classes
 90
0
 91
0
280
0
281
0
  0
ENDSEC
  0
SECTION
  2
TABLES
  0
TABLE
  2
VPORT
  5
8
330
0
100
AcDbSymbolTable
 70
1
  0
VPORT
  5
23
330
8
100
AcDbSymbolTableRecord
100
AcDbViewportTableRecord
  2
*Active
 70
0
 10
0.0
 20
0.0
 11
1.0
 21
1.0
 12
70.0
 22
50.0
 13
0.0
 23
0.0
 14
0.5
 24
0.5
 15
0.5
 25
0.5
 16
0.0
 26
0.0
 36
1.0
 17
0.0
 27
0.0
 37
0.0
 40
1.0
 41
1.34
 42
50.0
 43
0.0
 44
0.0
 50
0.0
 51
0.0
 71
0
 72
1000
 73
1
 74
3
 75
0
 76
0
 77
0
 78
0
281
0
 65
0
146
0.0
  0
ENDTAB
  0
TABLE
  2
LTYPE
  5
2
330
0
100
AcDbSymbolTable
 70
3
  0
LTYPE
  5
24
330
2
100
AcDbSymbolTableRecord
100
AcDbLinetypeTableRecord
  2
ByBlock
 70
0
  3

 72
65
 73
0
 40
0.0
  0
LTYPE
  5
25
330
2
100
AcDbSymbolTableRecord
100
AcDbLinetypeTableRecord
  2
ByLayer
 70
0
  3

 72
65
 73
0
 40
0.0
  0
LTYPE
  5
26
330
2
100
AcDbSymbolTableRecord
100
AcDbLinetypeTableRecord
  2
Continuous
 70
0
  3

 72
65
 73
0
 40
0.0
  0
ENDTAB
  0
TABLE
  2
LAYER
  5
1
330
0
100
AcDbSymbolTable
 70
3
  0
LAYER
  5
27
330
1
100
AcDbSymbolTableRecord
100
AcDbLayerTableRecord
  2
0
 70
0
 62
7
  6
Continuous
370
-3
390
13
347
21
  0
LAYER
  5
28
330
1
100
AcDbSymbolTableRecord
100
AcDbLayerTableRecord
  2
Defpoints
 70
0
 62
7
  6
Continuous
290
0
370
-3
390
13
347
21
  0
LAYER
  5
2D
330
1
100
AcDbSymbolTableRecord
100
AcDbLayerTableRecord
  2
Countour
 70
0
 62
2
  6
Continuous
370
-3
390
13
347
21
  0
ENDTAB
  0
TABLE
  2
STYLE
  5
5
330
0
100
AcDbSymbolTable
 70
1
  0
STYLE
  5
29
330
5
100
AcDbSymbolTableRecord
100
AcDbTextStyleTableRecord
  2
Standard
 70
0
 40
0.0
 41
1.0
 50
0.0
 71
0
 42
2.5
  3
txt
  4

  0
ENDTAB
  0
TABLE
  2
VIEW
  5
7
330
0
100
AcDbSymbolTable
 70
0
  0
ENDTAB
  0
TABLE
  2
UCS
  5
6
330
0
100
AcDbSymbolTable
 70
0
  0
ENDTAB
  0
TABLE
  2
APPID
  5
3
330
0
100
AcDbSymbolTable
 70
2
  0
APPID
  5
2A
330
3
100
AcDbSymbolTableRecord
100
AcDbRegAppTableRecord
  2
ACAD
 70
0
  0
APPID
  5
246
330
3
100
AcDbSymbolTableRecord
100
AcDbRegAppTableRecord
  2
HATCHBACKGROUNDCOLOR
 70
0
  0
ENDTAB
  0
TABLE
  2
DIMSTYLE
  5
4
330
0
100
AcDbSymbolTable
 70
1
100
AcDbDimStyleTable
  0
DIMSTYLE
105
2B
330
4
100
AcDbSymbolTableRecord
100
AcDbDimStyleTableRecord
  2
Standard
 70
0
 40
1.0
 41
2.5
 42
0.625
 43
3.75
 44
1.25
 45
0.0
 46
0.0
 47
0.0
 48
0.0
 49
2.5
140
2.5
141
2.5
142
0.0
143
0.03937007874
144
1.0
145
0.0
146
1.0
147
0.625
148
0.0
 69
0
 70
0
 71
0
 72
0
 73
0
 74
0
 75
0
 76
0
 77
1
 78
8
 79
0
170
0
171
3
172
1
173
0
174
0
175
0
176
0
177
0
178
0
179
0
271
0
272
2
273
2
274
3
275
0
276
0
277
2
278
44
279
0
280
0
281
0
282
0
283
0
284
8
285
0
286
0
288
0
289
3
290
0
371
-2
372
-2
  0
ENDTAB
  0
TABLE
  2
BLOCK_RECORD
  5
9
330
0
100
AcDbSymbolTable
 70
2
  0
BLOCK_RECORD
  5
17
330
9
100
AcDbSymbolTableRecord
100
AcDbBlockTableRecord
  2
*Model_Space
340
1A
 70
0
280
1
281
0
  0
BLOCK_RECORD
  5
1B
330
9
100
AcDbSymbolTableRecord
100
AcDbBlockTableRecord
  2
*Paper_Space
340
1E
 70
0
280
1
281
0
  0
ENDTAB
  0
ENDSEC
  0
SECTION
  2
BLOCKS
  0
BLOCK
  5
18
330
17
100
AcDbEntity
  8
0
100
AcDbBlockBegin
  2
*Model_Space
 70
0
 10
0.0
 20
0.0
 30
0.0
  3
*Model_Space
  1

  0
ENDBLK
  5
19
330
17
100
AcDbEntity
  8
0
100
AcDbBlockEnd
  0
BLOCK
  5
1C
330
1B
100
AcDbEntity
  8
0
100
AcDbBlockBegin
  2
*Paper_Space
 70
0
 10
0.0
 20
0.0
 30
0.0
  3
*Paper_Space
  1

  0
ENDBLK
  5
1D
330
1B
100
AcDbEntity
  8
0
100
AcDbBlockEnd
  0
ENDSEC
  0
SECTION
  2
ENTITIES
  0
LINE
  5
2E
330
17
100
AcDbEntity
  8
MyLines
100
AcDbLine
 10
50.74656188605108
 20
5.775
 30
0.0
 11
50.33398821218075
 21
6.1875
 31
0.0
  0
LINE
  5
2F
330
17
100
AcDbEntity
  8
MyLines
100
AcDbLine
 10
50.33398821218075
 20
6.1875
 30
0.0
 11
49.921414538310415
 21
6.1875
 31
0.0
  0
LINE
  5
30
330
17
100
AcDbEntity
  8
MyLines
100
AcDbLine
 10
49.921414538310415
 20
6.1875
 30
0.0
 11
49.921414538310415
 21
7.8375
 31
0.0
  0
LINE
  5
31
330
17
100
AcDbEntity
  8
MyLines
100
AcDbLine
 10
49.921414538310415
 20
7.8375
 30
0.0
 11
51.15913555992142
 21
9.075
 31
0.0
  0
LINE
  5
32
330
17
100
AcDbEntity
  8
MyLines
100
AcDbLine
 10
51.15913555992142
 20
9.075
 30
0.0
 11
51.15913555992142
 21
9.4875
 31
0.0
  0
LINE
  5
33
330
17
100
AcDbEntity
  8
MyLines
100
AcDbLine
 10
51.15913555992142
 20
9.4875
 30
0.0
 11
51.57170923379175
 21
9.9
 31
0.0
  0
LINE
  5
34
330
17
100
AcDbEntity
  8
MyLines
100
AcDbLine
 10
51.57170923379175
 20
9.9
 30
0.0
 11
51.57170923379175
 21
16.5
 31
0.0
  0
LINE
  5
35
330
17
100
AcDbEntity
  8
MyLines
100
AcDbLine
 10
51.57170923379175
 20
16.5
 30
0.0
 11
51.984282907662084
 21
16.9125
 31
0.0
  0
LINE
  5
36
330
17
100
AcDbEntity
  8
MyLines
100
AcDbLine
 10
51.984282907662084
 20
16.9125
 30
0.0
 11
51.984282907662084
 21
17.325
 31
0.0
  0
LINE
  5
37
330
17
100
AcDbEntity
  8
MyLines
100
AcDbLine
 10
51.984282907662084
 20
17.325
 30
0.0
 11
51.57170923379175
 21
17.7375
 31
0.0
  0
LINE
  5
38
330
17
100
AcDbEntity
  8
MyLines
100
AcDbLine
 10
51.57170923379175
 20
17.7375
 30
0.0
 11
51.57170923379175
 21
27.6375
 31
0.0
  0
LINE
  5
39
330
17
100
AcDbEntity
  8
MyLines
100
AcDbLine
 10
51.57170923379175
 20
27.6375
 30
0.0
 11
51.984282907662084
 21
28.05
 31
0.0
  0
LINE
  5
3A
330
17
100
AcDbEntity
  8
MyLines
100
AcDbLine
 10
51.984282907662084
 20
28.05
 30
0.0
 11
51.984282907662084
 21
58.1625
 31
0.0
  0
LINE
  5
3B
330
17
100
AcDbEntity
  8
MyLines
100
AcDbLine
 10
51.984282907662084
 20
58.1625
 30
0.0
 11
52.39685658153242
 21
58.575
 31
0.0
  0
LINE
  5
3C
330
17
100
AcDbEntity
  8
MyLines
100
AcDbLine
 10
52.39685658153242
 20
58.575
 30
0.0
 11
52.39685658153242
 21
61.875
 31
0.0
  0
LINE
  5
3D
330
17
100
AcDbEntity
  8
MyLines
100
AcDbLine
 10
52.39685658153242
 20
61.875
 30
0.0
 11
51.984282907662084
 21
62.2875
 31
0.0
  0
LINE
  5
3E
330
17
100
AcDbEntity
  8
MyLines
100
AcDbLine
 10
51.984282907662084
 20
62.2875
 30
0.0
 11
51.984282907662084
 21
63.525
 31
0.0
  0
LINE
  5
3F
330
17
100
AcDbEntity
  8
MyLines
100
AcDbLine
 10
51.984282907662084
 20
63.525
 30
0.0
 11
51.57170923379175
 21
63.9375
 31
0.0
  0
LINE
  5
40
330
17
100
AcDbEntity
  8
MyLines
100
AcDbLine
 10
51.57170923379175
 20
63.9375
 30
0.0
 11
51.57170923379175
 21
64.35
 31
0.0
  0
LINE
  5
41
330
17
100
AcDbEntity
  8
MyLines
100
AcDbLine
 10
51.57170923379175
 20
64.35
 30
0.0
 11
49.09626719056975
 21
66.825
 31
0.0
  0
LINE
  5
42
330
17
100
AcDbEntity
  8
MyLines
100
AcDbLine
 10
49.09626719056975
 20
66.825
 30
0.0
 11
48.683693516699414
 21
66.825
 31
0.0
  0
LINE
  5
43
330
17
100
AcDbEntity
  8
MyLines
100
AcDbLine
 10
48.683693516699414
 20
66.825
 30
0.0
 11
48.27111984282908
 21
67.2375
 31
0.0
  0
LINE
  5
44
330
17
100
AcDbEntity
  8
MyLines
100
AcDbLine
 10
48.27111984282908
 20
67.2375
 30
0.0
 11
47.03339882121807
 21
67.2375
 31
0.0
  0
LINE
  5
45
330
17
100
AcDbEntity
  8
MyLines
100
AcDbLine
 10
47.03339882121807
 20
67.2375
 30
0.0
 11
46.62082514734774
 21
67.65
 31
0.0
  0
LINE
  5
46
330
17
100
AcDbEntity
  8
MyLines
100
AcDbLine
 10
46.62082514734774
 20
67.65
 30
0.0
 11
33.418467583497055
 21
67.65
 31
0.0
  0
LINE
  5
47
330
17
100
AcDbEntity
  8
MyLines
100
AcDbLine
 10
33.418467583497055
 20
67.65
 30
0.0
 11
33.00589390962672
 21
68.0625
 31
0.0
  0
LINE
  5
48
330
17
100
AcDbEntity
  8
MyLines
100
AcDbLine
 10
33.00589390962672
 20
68.0625
 30
0.0
 11
32.59332023575639
 21
68.0625
 31
0.0
  0
LINE
  5
49
330
17
100
AcDbEntity
  8
MyLines
100
AcDbLine
 10
32.59332023575639
 20
68.0625
 30
0.0
 11
32.18074656188605
 21
68.475
 31
0.0
  0
LINE
  5
4A
330
17
100
AcDbEntity
  8
MyLines
100
AcDbLine
 10
32.18074656188605
 20
68.475
 30
0.0
 11
32.18074656188605
 21
68.8875
 31
0.0
  0
LINE
  5
4B
330
17
100
AcDbEntity
  8
MyLines
100
AcDbLine
 10
32.18074656188605
 20
68.8875
 30
0.0
 11
31.768172888015716
 21
69.3
 31
0.0
  0
LINE
  5
4C
330
17
100
AcDbEntity
  8
MyLines
100
AcDbLine
 10
31.768172888015716
 20
69.3
 30
0.0
 11
31.768172888015716
 21
96.525
 31
0.0
  0
LINE
  5
4D
330
17
100
AcDbEntity
  8
MyLines
100
AcDbLine
 10
31.768172888015716
 20
96.525
 30
0.0
 11
32.18074656188605
 21
96.9375
 31
0.0
  0
LINE
  5
4E
330
17
100
AcDbEntity
  8
MyLines
100
AcDbLine
 10
32.18074656188605
 20
96.9375
 30
0.0
 11
32.18074656188605
 21
118.8
 31
0.0
  0
LINE
  5
4F
330
17
100
AcDbEntity
  8
MyLines
100
AcDbLine
 10
32.18074656188605
 20
118.8
 30
0.0
 11
32.59332023575639
 21
119.2125
 31
0.0
  0
LINE
  5
50
330
17
100
AcDbEntity
  8
MyLines
100
AcDbLine
 10
32.59332023575639
 20
119.2125
 30
0.0
 11
32.59332023575639
 21
120.45
 31
0.0
  0
LINE
  5
51
330
17
100
AcDbEntity
  8
MyLines
100
AcDbLine
 10
32.59332023575639
 20
120.45
 30
0.0
 11
32.18074656188605
 21
120.8625
 31
0.0
  0
LINE
  5
52
330
17
100
AcDbEntity
  8
MyLines
100
AcDbLine
 10
32.18074656188605
 20
120.8625
 30
0.0
 11
32.18074656188605
 21
122.1
 31
0.0
  0
LINE
  5
53
330
17
100
AcDbEntity
  8
MyLines
100
AcDbLine
 10
32.18074656188605
 20
122.1
 30
0.0
 11
32.59332023575639
 21
122.5125
 31
0.0
  0
LINE
  5
54
330
17
100
AcDbEntity
  8
MyLines
100
AcDbLine
 10
32.59332023575639
 20
122.5125
 30
0.0
 11
32.18074656188605
 21
122.925
 31
0.0
  0
LINE
  5
55
330
17
100
AcDbEntity
  8
MyLines
100
AcDbLine
 10
32.18074656188605
 20
122.925
 30
0.0
 11
32.18074656188605
 21
124.9875
 31
0.0
  0
LINE
  5
56
330
17
100
AcDbEntity
  8
MyLines
100
AcDbLine
 10
32.18074656188605
 20
124.9875
 30
0.0
 11
32.59332023575639
 21
125.4
 31
0.0
  0
LINE
  5
57
330
17
100
AcDbEntity
  8
MyLines
100
AcDbLine
 10
32.59332023575639
 20
125.4
 30
0.0
 11
32.59332023575639
 21
149.325
 31
0.0
  0
LINE
  5
58
330
17
100
AcDbEntity
  8
MyLines
100
AcDbLine
 10
32.59332023575639
 20
149.325
 30
0.0
 11
33.00589390962672
 21
149.7375
 31
0.0
  0
LINE
  5
59
330
17
100
AcDbEntity
  8
MyLines
100
AcDbLine
 10
33.00589390962672
 20
149.7375
 30
0.0
 11
33.00589390962672
 21
152.2125
 31
0.0
  0
LINE
  5
5A
330
17
100
AcDbEntity
  8
MyLines
100
AcDbLine
 10
33.00589390962672
 20
152.2125
 30
0.0
 11
33.418467583497055
 21
152.625
 31
0.0
  0
LINE
  5
5B
330
17
100
AcDbEntity
  8
MyLines
100
AcDbLine
 10
33.418467583497055
 20
152.625
 30
0.0
 11
33.418467583497055
 21
153.0375
 31
0.0
  0
LINE
  5
5C
330
17
100
AcDbEntity
  8
MyLines
100
AcDbLine
 10
33.418467583497055
 20
153.0375
 30
0.0
 11
34.24361493123772
 21
153.8625
 31
0.0
  0
LINE
  5
5D
330
17
100
AcDbEntity
  8
MyLines
100
AcDbLine
 10
34.24361493123772
 20
153.8625
 30
0.0
 11
35.06876227897839
 21
153.8625
 31
0.0
  0
LINE
  5
5E
330
17
100
AcDbEntity
  8
MyLines
100
AcDbLine
 10
35.06876227897839
 20
153.8625
 30
0.0
 11
35.481335952848724
 21
154.275
 31
0.0
  0
LINE
  5
5F
330
17
100
AcDbEntity
  8
MyLines
100
AcDbLine
 10
35.481335952848724
 20
154.275
 30
0.0
 11
36.719056974459725
 21
154.275
 31
0.0
  0
LINE
  5
60
330
17
100
AcDbEntity
  8
MyLines
100
AcDbLine
 10
36.719056974459725
 20
154.275
 30
0.0
 11
37.13163064833006
 21
154.6875
 31
0.0
  0
LINE
  5
61
330
17
100
AcDbEntity
  8
MyLines
100
AcDbLine
 10
37.13163064833006
 20
154.6875
 30
0.0
 11
38.36935166994106
 21
154.6875
 31
0.0
  0
LINE
  5
62
330
17
100
AcDbEntity
  8
MyLines
100
AcDbLine
 10
38.36935166994106
 20
154.6875
 30
0.0
 11
38.781925343811395
 21
155.1
 31
0.0
  0
LINE
  5
63
330
17
100
AcDbEntity
  8
MyLines
100
AcDbLine
 10
38.781925343811395
 20
155.1
 30
0.0
 11
39.60707269155206
 21
155.1
 31
0.0
  0
LINE
  5
64
330
17
100
AcDbEntity
  8
MyLines
100
AcDbLine
 10
39.60707269155206
 20
155.1
 30
0.0
 11
40.019646365422396
 21
155.5125
 31
0.0
  0
LINE
  5
65
330
17
100
AcDbEntity
  8
MyLines
100
AcDbLine
 10
40.019646365422396
 20
155.5125
 30
0.0
 11
40.844793713163064
 21
155.5125
 31
0.0
  0
LINE
  5
66
330
17
100
AcDbEntity
  8
MyLines
100
AcDbLine
 10
40.844793713163064
 20
155.5125
 30
0.0
 11
41.2573673870334
 21
155.925
 31
0.0
  0
LINE
  5
67
330
17
100
AcDbEntity
  8
MyLines
100
AcDbLine
 10
41.2573673870334
 20
155.925
 30
0.0
 11
41.66994106090373
 21
155.925
 31
0.0
  0
LINE
  5
68
330
17
100
AcDbEntity
  8
MyLines
100
AcDbLine
 10
41.66994106090373
 20
155.925
 30
0.0
 11
42.082514734774065
 21
156.3375
 31
0.0
  0
LINE
  5
69
330
17
100
AcDbEntity
  8
MyLines
100
AcDbLine
 10
42.082514734774065
 20
156.3375
 30
0.0
 11
42.4950884086444
 21
156.3375
 31
0.0
  0
LINE
  5
6A
330
17
100
AcDbEntity
  8
MyLines
100
AcDbLine
 10
42.4950884086444
 20
156.3375
 30
0.0
 11
43.32023575638507
 21
157.1625
 31
0.0
  0
LINE
  5
6B
330
17
100
AcDbEntity
  8
MyLines
100
AcDbLine
 10
43.32023575638507
 20
157.1625
 30
0.0
 11
43.7328094302554
 21
157.1625
 31
0.0
  0
LINE
  5
6C
330
17
100
AcDbEntity
  8
MyLines
100
AcDbLine
 10
43.7328094302554
 20
157.1625
 30
0.0
 11
44.55795677799607
 21
157.9875
 31
0.0
  0
LINE
  5
6D
330
17
100
AcDbEntity
  8
MyLines
100
AcDbLine
 10
44.55795677799607
 20
157.9875
 30
0.0
 11
44.9705304518664
 21
157.9875
 31
0.0
  0
LINE
  5
6E
330
17
100
AcDbEntity
  8
MyLines
100
AcDbLine
 10
44.9705304518664
 20
157.9875
 30
0.0
 11
47.03339882121807
 21
160.05
 31
0.0
  0
LINE
  5
6F
330
17
100
AcDbEntity
  8
MyLines
100
AcDbLine
 10
47.03339882121807
 20
160.05
 30
0.0
 11
47.445972495088405
 21
160.05
 31
0.0
  0
LINE
  5
70
330
17
100
AcDbEntity
  8
MyLines
100
AcDbLine
 10
47.445972495088405
 20
160.05
 30
0.0
 11
48.27111984282908
 21
160.875
 31
0.0
  0
LINE
  5
71
330
17
100
AcDbEntity
  8
MyLines
100
AcDbLine
 10
48.27111984282908
 20
160.875
 30
0.0
 11
48.27111984282908
 21
161.2875
 31
0.0
  0
LINE
  5
72
330
17
100
AcDbEntity
  8
MyLines
100
AcDbLine
 10
48.27111984282908
 20
161.2875
 30
0.0
 11
49.921414538310415
 21
162.9375
 31
0.0
  0
LINE
  5
73
330
17
100
AcDbEntity
  8
MyLines
100
AcDbLine
 10
49.921414538310415
 20
162.9375
 30
0.0
 11
49.921414538310415
 21
163.35
 31
0.0
  0
LINE
  5
74
330
17
100
AcDbEntity
  8
MyLines
100
AcDbLine
 10
49.921414538310415
 20
163.35
 30
0.0
 11
50.74656188605108
 21
164.175
 31
0.0
  0
LINE
  5
75
330
17
100
AcDbEntity
  8
MyLines
100
AcDbLine
 10
50.74656188605108
 20
164.175
 30
0.0
 11
50.74656188605108
 21
164.5875
 31
0.0
  0
LINE
  5
76
330
17
100
AcDbEntity
  8
MyLines
100
AcDbLine
 10
50.74656188605108
 20
164.5875
 30
0.0
 11
51.15913555992142
 21
165.0
 31
0.0
  0
LINE
  5
77
330
17
100
AcDbEntity
  8
MyLines
100
AcDbLine
 10
51.15913555992142
 20
165.0
 30
0.0
 11
51.15913555992142
 21
165.4125
 31
0.0
  0
LINE
  5
78
330
17
100
AcDbEntity
  8
MyLines
100
AcDbLine
 10
51.15913555992142
 20
165.4125
 30
0.0
 11
51.57170923379175
 21
165.825
 31
0.0
  0
LINE
  5
79
330
17
100
AcDbEntity
  8
MyLines
100
AcDbLine
 10
51.57170923379175
 20
165.825
 30
0.0
 11
51.57170923379175
 21
166.2375
 31
0.0
  0
LINE
  5
7A
330
17
100
AcDbEntity
  8
MyLines
100
AcDbLine
 10
51.57170923379175
 20
166.2375
 30
0.0
 11
51.984282907662084
 21
166.65
 31
0.0
  0
LINE
  5
7B
330
17
100
AcDbEntity
  8
MyLines
100
AcDbLine
 10
51.984282907662084
 20
166.65
 30
0.0
 11
51.984282907662084
 21
167.0625
 31
0.0
  0
LINE
  5
7C
330
17
100
AcDbEntity
  8
MyLines
100
AcDbLine
 10
51.984282907662084
 20
167.0625
 30
0.0
 11
52.39685658153242
 21
167.475
 31
0.0
  0
LINE
  5
7D
330
17
100
AcDbEntity
  8
MyLines
100
AcDbLine
 10
52.39685658153242
 20
167.475
 30
0.0
 11
52.39685658153242
 21
168.3
 31
0.0
  0
LINE
  5
7E
330
17
100
AcDbEntity
  8
MyLines
100
AcDbLine
 10
52.39685658153242
 20
168.3
 30
0.0
 11
52.80943025540275
 21
168.7125
 31
0.0
  0
LINE
  5
7F
330
17
100
AcDbEntity
  8
MyLines
100
AcDbLine
 10
52.80943025540275
 20
168.7125
 30
0.0
 11
52.80943025540275
 21
169.5375
 31
0.0
  0
LINE
  5
80
330
17
100
AcDbEntity
  8
MyLines
100
AcDbLine
 10
52.80943025540275
 20
169.5375
 30
0.0
 11
53.222003929273086
 21
169.95
 31
0.0
  0
LINE
  5
81
330
17
100
AcDbEntity
  8
MyLines
100
AcDbLine
 10
53.222003929273086
 20
169.95
 30
0.0
 11
53.222003929273086
 21
171.6
 31
0.0
  0
LINE
  5
82
330
17
100
AcDbEntity
  8
MyLines
100
AcDbLine
 10
53.222003929273086
 20
171.6
 30
0.0
 11
53.63457760314342
 21
172.0125
 31
0.0
  0
LINE
  5
83
330
17
100
AcDbEntity
  8
MyLines
100
AcDbLine
 10
53.63457760314342
 20
172.0125
 30
0.0
 11
53.63457760314342
 21
178.2
 31
0.0
  0
LINE
  5
84
330
17
100
AcDbEntity
  8
MyLines
100
AcDbLine
 10
53.63457760314342
 20
178.2
 30
0.0
 11
53.222003929273086
 21
178.6125
 31
0.0
  0
LINE
  5
85
330
17
100
AcDbEntity
  8
MyLines
100
AcDbLine
 10
53.222003929273086
 20
178.6125
 30
0.0
 11
53.222003929273086
 21
180.2625
 31
0.0
  0
LINE
  5
86
330
17
100
AcDbEntity
  8
MyLines
100
AcDbLine
 10
53.222003929273086
 20
180.2625
 30
0.0
 11
52.80943025540275
 21
180.675
 31
0.0
  0
LINE
  5
87
330
17
100
AcDbEntity
  8
MyLines
100
AcDbLine
 10
52.80943025540275
 20
180.675
 30
0.0
 11
52.80943025540275
 21
181.5
 31
0.0
  0
LINE
  5
88
330
17
100
AcDbEntity
  8
MyLines
100
AcDbLine
 10
52.80943025540275
 20
181.5
 30
0.0
 11
52.39685658153242
 21
181.9125
 31
0.0
  0
LINE
  5
89
330
17
100
AcDbEntity
  8
MyLines
100
AcDbLine
 10
52.39685658153242
 20
181.9125
 30
0.0
 11
52.39685658153242
 21
182.7375
 31
0.0
  0
LINE
  5
8A
330
17
100
AcDbEntity
  8
MyLines
100
AcDbLine
 10
52.39685658153242
 20
182.7375
 30
0.0
 11
51.984282907662084
 21
183.15
 31
0.0
  0
LINE
  5
8B
330
17
100
AcDbEntity
  8
MyLines
100
AcDbLine
 10
51.984282907662084
 20
183.15
 30
0.0
 11
51.984282907662084
 21
183.5625
 31
0.0
  0
LINE
  5
8C
330
17
100
AcDbEntity
  8
MyLines
100
AcDbLine
 10
51.984282907662084
 20
183.5625
 30
0.0
 11
51.57170923379175
 21
183.975
 31
0.0
  0
LINE
  5
8D
330
17
100
AcDbEntity
  8
MyLines
100
AcDbLine
 10
51.57170923379175
 20
183.975
 30
0.0
 11
51.57170923379175
 21
184.3875
 31
0.0
  0
LINE
  5
8E
330
17
100
AcDbEntity
  8
MyLines
100
AcDbLine
 10
51.57170923379175
 20
184.3875
 30
0.0
 11
50.74656188605108
 21
185.2125
 31
0.0
  0
LINE
  5
8F
330
17
100
AcDbEntity
  8
MyLines
100
AcDbLine
 10
50.74656188605108
 20
185.2125
 30
0.0
 11
50.74656188605108
 21
185.625
 31
0.0
  0
LINE
  5
90
330
17
100
AcDbEntity
  8
MyLines
100
AcDbLine
 10
50.74656188605108
 20
185.625
 30
0.0
 11
49.921414538310415
 21
186.45
 31
0.0
  0
LINE
  5
91
330
17
100
AcDbEntity
  8
MyLines
100
AcDbLine
 10
49.921414538310415
 20
186.45
 30
0.0
 11
49.921414538310415
 21
186.8625
 31
0.0
  0
LINE
  5
92
330
17
100
AcDbEntity
  8
MyLines
100
AcDbLine
 10
49.921414538310415
 20
186.8625
 30
0.0
 11
45.79567779960707
 21
190.9875
 31
0.0
  0
LINE
  5
93
330
17
100
AcDbEntity
  8
MyLines
100
AcDbLine
 10
45.79567779960707
 20
190.9875
 30
0.0
 11
45.383104125736736
 21
190.9875
 31
0.0
  0
LINE
  5
94
330
17
100
AcDbEntity
  8
MyLines
100
AcDbLine
 10
45.383104125736736
 20
190.9875
 30
0.0
 11
44.55795677799607
 21
191.8125
 31
0.0
  0
LINE
  5
95
330
17
100
AcDbEntity
  8
MyLines
100
AcDbLine
 10
44.55795677799607
 20
191.8125
 30
0.0
 11
44.145383104125735
 21
191.8125
 31
0.0
  0
LINE
  5
96
330
17
100
AcDbEntity
  8
MyLines
100
AcDbLine
 10
44.145383104125735
 20
191.8125
 30
0.0
 11
43.32023575638507
 21
192.6375
 31
0.0
  0
LINE
  5
97
330
17
100
AcDbEntity
  8
MyLines
100
AcDbLine
 10
43.32023575638507
 20
192.6375
 30
0.0
 11
42.4950884086444
 21
192.6375
 31
0.0
  0
LINE
  5
98
330
17
100
AcDbEntity
  8
MyLines
100
AcDbLine
 10
42.4950884086444
 20
192.6375
 30
0.0
 11
42.082514734774065
 21
193.05
 31
0.0
  0
LINE
  5
99
330
17
100
AcDbEntity
  8
MyLines
100
AcDbLine
 10
42.082514734774065
 20
193.05
 30
0.0
 11
41.66994106090373
 21
193.05
 31
0.0
  0
LINE
  5
9A
330
17
100
AcDbEntity
  8
MyLines
100
AcDbLine
 10
41.66994106090373
 20
193.05
 30
0.0
 11
41.2573673870334
 21
193.4625
 31
0.0
  0
LINE
  5
9B
330
17
100
AcDbEntity
  8
MyLines
100
AcDbLine
 10
41.2573673870334
 20
193.4625
 30
0.0
 11
40.43222003929273
 21
193.4625
 31
0.0
  0
LINE
  5
9C
330
17
100
AcDbEntity
  8
MyLines
100
AcDbLine
 10
40.43222003929273
 20
193.4625
 30
0.0
 11
40.019646365422396
 21
193.875
 31
0.0
  0
LINE
  5
9D
330
17
100
AcDbEntity
  8
MyLines
100
AcDbLine
 10
40.019646365422396
 20
193.875
 30
0.0
 11
38.36935166994106
 21
193.875
 31
0.0
  0
LINE
  5
9E
330
17
100
AcDbEntity
  8
MyLines
100
AcDbLine
 10
38.36935166994106
 20
193.875
 30
0.0
 11
37.95677799607073
 21
194.2875
 31
0.0
  0
LINE
  5
9F
330
17
100
AcDbEntity
  8
MyLines
100
AcDbLine
 10
37.95677799607073
 20
194.2875
 30
0.0
 11
35.89390962671906
 21
194.2875
 31
0.0
  0
LINE
  5
A0
330
17
100
AcDbEntity
  8
MyLines
100
AcDbLine
 10
35.89390962671906
 20
194.2875
 30
0.0
 11
35.481335952848724
 21
194.7
 31
0.0
  0
LINE
  5
A1
330
17
100
AcDbEntity
  8
MyLines
100
AcDbLine
 10
35.481335952848724
 20
194.7
 30
0.0
 11
34.656188605108056
 21
194.7
 31
0.0
  0
LINE
  5
A2
330
17
100
AcDbEntity
  8
MyLines
100
AcDbLine
 10
34.656188605108056
 20
194.7
 30
0.0
 11
33.83104125736739
 21
195.525
 31
0.0
  0
LINE
  5
A3
330
17
100
AcDbEntity
  8
MyLines
100
AcDbLine
 10
33.83104125736739
 20
195.525
 30
0.0
 11
33.83104125736739
 21
195.9375
 31
0.0
  0
LINE
  5
A4
330
17
100
AcDbEntity
  8
MyLines
100
AcDbLine
 10
33.83104125736739
 20
195.9375
 30
0.0
 11
34.24361493123772
 21
196.35
 31
0.0
  0
LINE
  5
A5
330
17
100
AcDbEntity
  8
MyLines
100
AcDbLine
 10
34.24361493123772
 20
196.35
 30
0.0
 11
34.24361493123772
 21
197.175
 31
0.0
  0
LINE
  5
A6
330
17
100
AcDbEntity
  8
MyLines
100
AcDbLine
 10
34.24361493123772
 20
197.175
 30
0.0
 11
34.656188605108056
 21
197.5875
 31
0.0
  0
LINE
  5
A7
330
17
100
AcDbEntity
  8
MyLines
100
AcDbLine
 10
34.656188605108056
 20
197.5875
 30
0.0
 11
34.656188605108056
 21
198.0
 31
0.0
  0
LINE
  5
A8
330
17
100
AcDbEntity
  8
MyLines
100
AcDbLine
 10
34.656188605108056
 20
198.0
 30
0.0
 11
36.719056974459725
 21
200.0625
 31
0.0
  0
LINE
  5
A9
330
17
100
AcDbEntity
  8
MyLines
100
AcDbLine
 10
36.719056974459725
 20
200.0625
 30
0.0
 11
37.13163064833006
 21
200.0625
 31
0.0
  0
LINE
  5
AA
330
17
100
AcDbEntity
  8
MyLines
100
AcDbLine
 10
37.13163064833006
 20
200.0625
 30
0.0
 11
37.54420432220039
 21
200.475
 31
0.0
  0
LINE
  5
AB
330
17
100
AcDbEntity
  8
MyLines
100
AcDbLine
 10
37.54420432220039
 20
200.475
 30
0.0
 11
38.36935166994106
 21
200.475
 31
0.0
  0
LINE
  5
AC
330
17
100
AcDbEntity
  8
MyLines
100
AcDbLine
 10
38.36935166994106
 20
200.475
 30
0.0
 11
38.781925343811395
 21
200.8875
 31
0.0
  0
LINE
  5
AD
330
17
100
AcDbEntity
  8
MyLines
100
AcDbLine
 10
38.781925343811395
 20
200.8875
 30
0.0
 11
50.74656188605108
 21
200.8875
 31
0.0
  0
LINE
  5
AE
330
17
100
AcDbEntity
  8
MyLines
100
AcDbLine
 10
50.74656188605108
 20
200.8875
 30
0.0
 11
51.15913555992142
 21
201.3
 31
0.0
  0
LINE
  5
AF
330
17
100
AcDbEntity
  8
MyLines
100
AcDbLine
 10
51.15913555992142
 20
201.3
 30
0.0
 11
54.87229862475442
 21
201.3
 31
0.0
  0
LINE
  5
B0
330
17
100
AcDbEntity
  8
MyLines
100
AcDbLine
 10
54.87229862475442
 20
201.3
 30
0.0
 11
55.284872298624755
 21
200.8875
 31
0.0
  0
LINE
  5
B1
330
17
100
AcDbEntity
  8
MyLines
100
AcDbLine
 10
55.284872298624755
 20
200.8875
 30
0.0
 11
56.52259332023576
 21
200.8875
 31
0.0
  0
LINE
  5
B2
330
17
100
AcDbEntity
  8
MyLines
100
AcDbLine
 10
56.52259332023576
 20
200.8875
 30
0.0
 11
56.93516699410609
 21
201.3
 31
0.0
  0
LINE
  5
B3
330
17
100
AcDbEntity
  8
MyLines
100
AcDbLine
 10
56.93516699410609
 20
201.3
 30
0.0
 11
88.29076620825147
 21
201.3
 31
0.0
  0
LINE
  5
B4
330
17
100
AcDbEntity
  8
MyLines
100
AcDbLine
 10
88.29076620825147
 20
201.3
 30
0.0
 11
89.9410609037328
 21
199.65
 31
0.0
  0
LINE
  5
B5
330
17
100
AcDbEntity
  8
MyLines
100
AcDbLine
 10
89.9410609037328
 20
199.65
 30
0.0
 11
89.9410609037328
 21
198.825
 31
0.0
  0
LINE
  5
B6
330
17
100
AcDbEntity
  8
MyLines
100
AcDbLine
 10
89.9410609037328
 20
198.825
 30
0.0
 11
90.35363457760315
 21
198.4125
 31
0.0
  0
LINE
  5
B7
330
17
100
AcDbEntity
  8
MyLines
100
AcDbLine
 10
90.35363457760315
 20
198.4125
 30
0.0
 11
90.35363457760315
 21
195.1125
 31
0.0
  0
LINE
  5
B8
330
17
100
AcDbEntity
  8
MyLines
100
AcDbLine
 10
90.35363457760315
 20
195.1125
 30
0.0
 11
89.9410609037328
 21
194.7
 31
0.0
  0
LINE
  5
B9
330
17
100
AcDbEntity
  8
MyLines
100
AcDbLine
 10
89.9410609037328
 20
194.7
 30
0.0
 11
89.9410609037328
 21
166.2375
 31
0.0
  0
LINE
  5
BA
330
17
100
AcDbEntity
  8
MyLines
100
AcDbLine
 10
89.9410609037328
 20
166.2375
 30
0.0
 11
89.52848722986248
 21
165.825
 31
0.0
  0
LINE
  5
BB
330
17
100
AcDbEntity
  8
MyLines
100
AcDbLine
 10
89.52848722986248
 20
165.825
 30
0.0
 11
89.52848722986248
 21
148.0875
 31
0.0
  0
LINE
  5
BC
330
17
100
AcDbEntity
  8
MyLines
100
AcDbLine
 10
89.52848722986248
 20
148.0875
 30
0.0
 11
89.9410609037328
 21
147.675
 31
0.0
  0
LINE
  5
BD
330
17
100
AcDbEntity
  8
MyLines
100
AcDbLine
 10
89.9410609037328
 20
147.675
 30
0.0
 11
89.9410609037328
 21
146.85
 31
0.0
  0
LINE
  5
BE
330
17
100
AcDbEntity
  8
MyLines
100
AcDbLine
 10
89.9410609037328
 20
146.85
 30
0.0
 11
90.35363457760315
 21
146.4375
 31
0.0
  0
LINE
  5
BF
330
17
100
AcDbEntity
  8
MyLines
100
AcDbLine
 10
90.35363457760315
 20
146.4375
 30
0.0
 11
90.35363457760315
 21
145.6125
 31
0.0
  0
LINE
  5
C0
330
17
100
AcDbEntity
  8
MyLines
100
AcDbLine
 10
90.35363457760315
 20
145.6125
 30
0.0
 11
91.17878192534381
 21
144.7875
 31
0.0
  0
LINE
  5
C1
330
17
100
AcDbEntity
  8
MyLines
100
AcDbLine
 10
91.17878192534381
 20
144.7875
 30
0.0
 11
91.17878192534381
 21
144.375
 31
0.0
  0
LINE
  5
C2
330
17
100
AcDbEntity
  8
MyLines
100
AcDbLine
 10
91.17878192534381
 20
144.375
 30
0.0
 11
94.06679764243614
 21
141.4875
 31
0.0
  0
LINE
  5
C3
330
17
100
AcDbEntity
  8
MyLines
100
AcDbLine
 10
94.06679764243614
 20
141.4875
 30
0.0
 11
94.47937131630648
 21
141.4875
 31
0.0
  0
LINE
  5
C4
330
17
100
AcDbEntity
  8
MyLines
100
AcDbLine
 10
94.47937131630648
 20
141.4875
 30
0.0
 11
94.89194499017681
 21
141.075
 31
0.0
  0
LINE
  5
C5
330
17
100
AcDbEntity
  8
MyLines
100
AcDbLine
 10
94.89194499017681
 20
141.075
 30
0.0
 11
95.30451866404715
 21
141.075
 31
0.0
  0
LINE
  5
C6
330
17
100
AcDbEntity
  8
MyLines
100
AcDbLine
 10
95.30451866404715
 20
141.075
 30
0.0
 11
95.71709233791749
 21
140.6625
 31
0.0
  0
LINE
  5
C7
330
17
100
AcDbEntity
  8
MyLines
100
AcDbLine
 10
95.71709233791749
 20
140.6625
 30
0.0
 11
96.12966601178782
 21
140.6625
 31
0.0
  0
LINE
  5
C8
330
17
100
AcDbEntity
  8
MyLines
100
AcDbLine
 10
96.12966601178782
 20
140.6625
 30
0.0
 11
96.54223968565816
 21
140.25
 31
0.0
  0
LINE
  5
C9
330
17
100
AcDbEntity
  8
MyLines
100
AcDbLine
 10
96.54223968565816
 20
140.25
 30
0.0
 11
98.60510805500982
 21
140.25
 31
0.0
  0
LINE
  5
CA
330
17
100
AcDbEntity
  8
MyLines
100
AcDbLine
 10
98.60510805500982
 20
140.25
 30
0.0
 11
99.01768172888016
 21
139.8375
 31
0.0
  0
LINE
  5
CB
330
17
100
AcDbEntity
  8
MyLines
100
AcDbLine
 10
99.01768172888016
 20
139.8375
 30
0.0
 11
100.25540275049116
 21
139.8375
 31
0.0
  0
LINE
  5
CC
330
17
100
AcDbEntity
  8
MyLines
100
AcDbLine
 10
100.25540275049116
 20
139.8375
 30
0.0
 11
100.6679764243615
 21
140.25
 31
0.0
  0
LINE
  5
CD
330
17
100
AcDbEntity
  8
MyLines
100
AcDbLine
 10
100.6679764243615
 20
140.25
 30
0.0
 11
102.73084479371316
 21
140.25
 31
0.0
  0
LINE
  5
CE
330
17
100
AcDbEntity
  8
MyLines
100
AcDbLine
 10
102.73084479371316
 20
140.25
 30
0.0
 11
103.1434184675835
 21
140.6625
 31
0.0
  0
LINE
  5
CF
330
17
100
AcDbEntity
  8
MyLines
100
AcDbLine
 10
103.1434184675835
 20
140.6625
 30
0.0
 11
103.55599214145383
 21
140.6625
 31
0.0
  0
LINE
  5
D0
330
17
100
AcDbEntity
  8
MyLines
100
AcDbLine
 10
103.55599214145383
 20
140.6625
 30
0.0
 11
103.96856581532417
 21
141.075
 31
0.0
  0
LINE
  5
D1
330
17
100
AcDbEntity
  8
MyLines
100
AcDbLine
 10
103.96856581532417
 20
141.075
 30
0.0
 11
104.3811394891945
 21
141.075
 31
0.0
  0
LINE
  5
D2
330
17
100
AcDbEntity
  8
MyLines
100
AcDbLine
 10
104.3811394891945
 20
141.075
 30
0.0
 11
105.20628683693516
 21
141.9
 31
0.0
  0
LINE
  5
D3
330
17
100
AcDbEntity
  8
MyLines
100
AcDbLine
 10
105.20628683693516
 20
141.9
 30
0.0
 11
105.6188605108055
 21
141.9
 31
0.0
  0
LINE
  5
D4
330
17
100
AcDbEntity
  8
MyLines
100
AcDbLine
 10
105.6188605108055
 20
141.9
 30
0.0
 11
108.50687622789783
 21
144.7875
 31
0.0
  0
LINE
  5
D5
330
17
100
AcDbEntity
  8
MyLines
100
AcDbLine
 10
108.50687622789783
 20
144.7875
 30
0.0
 11
108.50687622789783
 21
145.2
 31
0.0
  0
LINE
  5
D6
330
17
100
AcDbEntity
  8
MyLines
100
AcDbLine
 10
108.50687622789783
 20
145.2
 30
0.0
 11
108.91944990176817
 21
145.6125
 31
0.0
  0
LINE
  5
D7
330
17
100
AcDbEntity
  8
MyLines
100
AcDbLine
 10
108.91944990176817
 20
145.6125
 30
0.0
 11
108.91944990176817
 21
146.025
 31
0.0
  0
LINE
  5
D8
330
17
100
AcDbEntity
  8
MyLines
100
AcDbLine
 10
108.91944990176817
 20
146.025
 30
0.0
 11
109.3320235756385
 21
146.4375
 31
0.0
  0
LINE
  5
D9
330
17
100
AcDbEntity
  8
MyLines
100
AcDbLine
 10
109.3320235756385
 20
146.4375
 30
0.0
 11
109.3320235756385
 21
147.2625
 31
0.0
  0
LINE
  5
DA
330
17
100
AcDbEntity
  8
MyLines
100
AcDbLine
 10
109.3320235756385
 20
147.2625
 30
0.0
 11
109.74459724950884
 21
147.675
 31
0.0
  0
LINE
  5
DB
330
17
100
AcDbEntity
  8
MyLines
100
AcDbLine
 10
109.74459724950884
 20
147.675
 30
0.0
 11
109.74459724950884
 21
149.325
 31
0.0
  0
LINE
  5
DC
330
17
100
AcDbEntity
  8
MyLines
100
AcDbLine
 10
109.74459724950884
 20
149.325
 30
0.0
 11
110.15717092337917
 21
149.7375
 31
0.0
  0
LINE
  5
DD
330
17
100
AcDbEntity
  8
MyLines
100
AcDbLine
 10
110.15717092337917
 20
149.7375
 30
0.0
 11
110.15717092337917
 21
183.5625
 31
0.0
  0
LINE
  5
DE
330
17
100
AcDbEntity
  8
MyLines
100
AcDbLine
 10
110.15717092337917
 20
183.5625
 30
0.0
 11
110.56974459724951
 21
183.975
 31
0.0
  0
LINE
  5
DF
330
17
100
AcDbEntity
  8
MyLines
100
AcDbLine
 10
110.56974459724951
 20
183.975
 30
0.0
 11
110.56974459724951
 21
199.2375
 31
0.0
  0
LINE
  5
E0
330
17
100
AcDbEntity
  8
MyLines
100
AcDbLine
 10
110.56974459724951
 20
199.2375
 30
0.0
 11
110.98231827111984
 21
199.65
 31
0.0
  0
LINE
  5
E1
330
17
100
AcDbEntity
  8
MyLines
100
AcDbLine
 10
110.98231827111984
 20
199.65
 30
0.0
 11
110.98231827111984
 21
200.0625
 31
0.0
  0
LINE
  5
E2
330
17
100
AcDbEntity
  8
MyLines
100
AcDbLine
 10
110.98231827111984
 20
200.0625
 30
0.0
 11
111.39489194499018
 21
200.475
 31
0.0
  0
LINE
  5
E3
330
17
100
AcDbEntity
  8
MyLines
100
AcDbLine
 10
111.39489194499018
 20
200.475
 30
0.0
 11
111.39489194499018
 21
200.8875
 31
0.0
  0
LINE
  5
E4
330
17
100
AcDbEntity
  8
MyLines
100
AcDbLine
 10
111.39489194499018
 20
200.8875
 30
0.0
 11
111.8074656188605
 21
200.8875
 31
0.0
  0
LINE
  5
E5
330
17
100
AcDbEntity
  8
MyLines
100
AcDbLine
 10
111.8074656188605
 20
200.8875
 30
0.0
 11
112.63261296660117
 21
201.7125
 31
0.0
  0
LINE
  5
E6
330
17
100
AcDbEntity
  8
MyLines
100
AcDbLine
 10
112.63261296660117
 20
201.7125
 30
0.0
 11
136.9744597249509
 21
201.7125
 31
0.0
  0
LINE
  5
E7
330
17
100
AcDbEntity
  8
MyLines
100
AcDbLine
 10
136.9744597249509
 20
201.7125
 30
0.0
 11
137.38703339882122
 21
202.125
 31
0.0
  0
LINE
  5
E8
330
17
100
AcDbEntity
  8
MyLines
100
AcDbLine
 10
137.38703339882122
 20
202.125
 30
0.0
 11
149.3516699410609
 21
202.125
 31
0.0
  0
LINE
  5
E9
330
17
100
AcDbEntity
  8
MyLines
100
AcDbLine
 10
149.3516699410609
 20
202.125
 30
0.0
 11
149.76424361493125
 21
201.7125
 31
0.0
  0
LINE
  5
EA
330
17
100
AcDbEntity
  8
MyLines
100
AcDbLine
 10
149.76424361493125
 20
201.7125
 30
0.0
 11
150.17681728880157
 21
201.7125
 31
0.0
  0
LINE
  5
EB
330
17
100
AcDbEntity
  8
MyLines
100
AcDbLine
 10
150.17681728880157
 20
201.7125
 30
0.0
 11
150.5893909626719
 21
201.3
 31
0.0
  0
LINE
  5
EC
330
17
100
AcDbEntity
  8
MyLines
100
AcDbLine
 10
150.5893909626719
 20
201.3
 30
0.0
 11
151.00196463654223
 21
201.3
 31
0.0
  0
LINE
  5
ED
330
17
100
AcDbEntity
  8
MyLines
100
AcDbLine
 10
151.00196463654223
 20
201.3
 30
0.0
 11
151.41453831041258
 21
200.8875
 31
0.0
  0
LINE
  5
EE
330
17
100
AcDbEntity
  8
MyLines
100
AcDbLine
 10
151.41453831041258
 20
200.8875
 30
0.0
 11
151.41453831041258
 21
200.475
 31
0.0
  0
LINE
  5
EF
330
17
100
AcDbEntity
  8
MyLines
100
AcDbLine
 10
151.41453831041258
 20
200.475
 30
0.0
 11
151.8271119842829
 21
200.0625
 31
0.0
  0
LINE
  5
F0
330
17
100
AcDbEntity
  8
MyLines
100
AcDbLine
 10
151.8271119842829
 20
200.0625
 30
0.0
 11
151.8271119842829
 21
190.1625
 31
0.0
  0
LINE
  5
F1
330
17
100
AcDbEntity
  8
MyLines
100
AcDbLine
 10
151.8271119842829
 20
190.1625
 30
0.0
 11
151.41453831041258
 21
189.75
 31
0.0
  0
LINE
  5
F2
330
17
100
AcDbEntity
  8
MyLines
100
AcDbLine
 10
151.41453831041258
 20
189.75
 30
0.0
 11
151.41453831041258
 21
162.1125
 31
0.0
  0
LINE
  5
F3
330
17
100
AcDbEntity
  8
MyLines
100
AcDbLine
 10
151.41453831041258
 20
162.1125
 30
0.0
 11
151.00196463654223
 21
161.7
 31
0.0
  0
LINE
  5
F4
330
17
100
AcDbEntity
  8
MyLines
100
AcDbLine
 10
151.00196463654223
 20
161.7
 30
0.0
 11
151.41453831041258
 21
161.2875
 31
0.0
  0
LINE
  5
F5
330
17
100
AcDbEntity
  8
MyLines
100
AcDbLine
 10
151.41453831041258
 20
161.2875
 30
0.0
 11
151.41453831041258
 21
160.875
 31
0.0
  0
LINE
  5
F6
330
17
100
AcDbEntity
  8
MyLines
100
AcDbLine
 10
151.41453831041258
 20
160.875
 30
0.0
 11
151.00196463654223
 21
160.4625
 31
0.0
  0
LINE
  5
F7
330
17
100
AcDbEntity
  8
MyLines
100
AcDbLine
 10
151.00196463654223
 20
160.4625
 30
0.0
 11
151.00196463654223
 21
148.5
 31
0.0
  0
LINE
  5
F8
330
17
100
AcDbEntity
  8
MyLines
100
AcDbLine
 10
151.00196463654223
 20
148.5
 30
0.0
 11
151.41453831041258
 21
148.0875
 31
0.0
  0
LINE
  5
F9
330
17
100
AcDbEntity
  8
MyLines
100
AcDbLine
 10
151.41453831041258
 20
148.0875
 30
0.0
 11
151.41453831041258
 21
147.2625
 31
0.0
  0
LINE
  5
FA
330
17
100
AcDbEntity
  8
MyLines
100
AcDbLine
 10
151.41453831041258
 20
147.2625
 30
0.0
 11
151.8271119842829
 21
146.85
 31
0.0
  0
LINE
  5
FB
330
17
100
AcDbEntity
  8
MyLines
100
AcDbLine
 10
151.8271119842829
 20
146.85
 30
0.0
 11
151.8271119842829
 21
146.025
 31
0.0
  0
LINE
  5
FC
330
17
100
AcDbEntity
  8
MyLines
100
AcDbLine
 10
151.8271119842829
 20
146.025
 30
0.0
 11
152.23968565815323
 21
145.6125
 31
0.0
  0
LINE
  5
FD
330
17
100
AcDbEntity
  8
MyLines
100
AcDbLine
 10
152.23968565815323
 20
145.6125
 30
0.0
 11
152.23968565815323
 21
145.2
 31
0.0
  0
LINE
  5
FE
330
17
100
AcDbEntity
  8
MyLines
100
AcDbLine
 10
152.23968565815323
 20
145.2
 30
0.0
 11
155.5402750491159
 21
141.9
 31
0.0
  0
LINE
  5
FF
330
17
100
AcDbEntity
  8
MyLines
100
AcDbLine
 10
155.5402750491159
 20
141.9
 30
0.0
 11
155.95284872298626
 21
141.9
 31
0.0
  0
LINE
  5
100
330
17
100
AcDbEntity
  8
MyLines
100
AcDbLine
 10
155.95284872298626
 20
141.9
 30
0.0
 11
156.7779960707269
 21
141.075
 31
0.0
  0
LINE
  5
101
330
17
100
AcDbEntity
  8
MyLines
100
AcDbLine
 10
156.7779960707269
 20
141.075
 30
0.0
 11
157.6031434184676
 21
141.075
 31
0.0
  0
LINE
  5
102
330
17
100
AcDbEntity
  8
MyLines
100
AcDbLine
 10
157.6031434184676
 20
141.075
 30
0.0
 11
158.01571709233792
 21
140.6625
 31
0.0
  0
LINE
  5
103
330
17
100
AcDbEntity
  8
MyLines
100
AcDbLine
 10
158.01571709233792
 20
140.6625
 30
0.0
 11
158.84086444007858
 21
140.6625
 31
0.0
  0
LINE
  5
104
330
17
100
AcDbEntity
  8
MyLines
100
AcDbLine
 10
158.84086444007858
 20
140.6625
 30
0.0
 11
159.25343811394893
 21
140.25
 31
0.0
  0
LINE
  5
105
330
17
100
AcDbEntity
  8
MyLines
100
AcDbLine
 10
159.25343811394893
 20
140.25
 30
0.0
 11
162.96660117878193
 21
140.25
 31
0.0
  0
LINE
  5
106
330
17
100
AcDbEntity
  8
MyLines
100
AcDbLine
 10
162.96660117878193
 20
140.25
 30
0.0
 11
163.37917485265226
 21
140.6625
 31
0.0
  0
LINE
  5
107
330
17
100
AcDbEntity
  8
MyLines
100
AcDbLine
 10
163.37917485265226
 20
140.6625
 30
0.0
 11
164.61689587426326
 21
140.6625
 31
0.0
  0
LINE
  5
108
330
17
100
AcDbEntity
  8
MyLines
100
AcDbLine
 10
164.61689587426326
 20
140.6625
 30
0.0
 11
165.0294695481336
 21
141.075
 31
0.0
  0
LINE
  5
109
330
17
100
AcDbEntity
  8
MyLines
100
AcDbLine
 10
165.0294695481336
 20
141.075
 30
0.0
 11
165.44204322200392
 21
141.075
 31
0.0
  0
LINE
  5
10A
330
17
100
AcDbEntity
  8
MyLines
100
AcDbLine
 10
165.44204322200392
 20
141.075
 30
0.0
 11
165.85461689587427
 21
141.4875
 31
0.0
  0
LINE
  5
10B
330
17
100
AcDbEntity
  8
MyLines
100
AcDbLine
 10
165.85461689587427
 20
141.4875
 30
0.0
 11
166.2671905697446
 21
141.4875
 31
0.0
  0
LINE
  5
10C
330
17
100
AcDbEntity
  8
MyLines
100
AcDbLine
 10
166.2671905697446
 20
141.4875
 30
0.0
 11
167.09233791748525
 21
142.3125
 31
0.0
  0
LINE
  5
10D
330
17
100
AcDbEntity
  8
MyLines
100
AcDbLine
 10
167.09233791748525
 20
142.3125
 30
0.0
 11
167.5049115913556
 21
142.3125
 31
0.0
  0
LINE
  5
10E
330
17
100
AcDbEntity
  8
MyLines
100
AcDbLine
 10
167.5049115913556
 20
142.3125
 30
0.0
 11
169.9803536345776
 21
144.7875
 31
0.0
  0
LINE
  5
10F
330
17
100
AcDbEntity
  8
MyLines
100
AcDbLine
 10
169.9803536345776
 20
144.7875
 30
0.0
 11
169.9803536345776
 21
145.2
 31
0.0
  0
LINE
  5
110
330
17
100
AcDbEntity
  8
MyLines
100
AcDbLine
 10
169.9803536345776
 20
145.2
 30
0.0
 11
170.39292730844792
 21
145.6125
 31
0.0
  0
LINE
  5
111
330
17
100
AcDbEntity
  8
MyLines
100
AcDbLine
 10
170.39292730844792
 20
145.6125
 30
0.0
 11
170.39292730844792
 21
146.025
 31
0.0
  0
LINE
  5
112
330
17
100
AcDbEntity
  8
MyLines
100
AcDbLine
 10
170.39292730844792
 20
146.025
 30
0.0
 11
170.80550098231828
 21
146.4375
 31
0.0
  0
LINE
  5
113
330
17
100
AcDbEntity
  8
MyLines
100
AcDbLine
 10
170.80550098231828
 20
146.4375
 30
0.0
 11
170.80550098231828
 21
146.85
 31
0.0
  0
LINE
  5
114
330
17
100
AcDbEntity
  8
MyLines
100
AcDbLine
 10
170.80550098231828
 20
146.85
 30
0.0
 11
171.2180746561886
 21
147.2625
 31
0.0
  0
LINE
  5
115
330
17
100
AcDbEntity
  8
MyLines
100
AcDbLine
 10
171.2180746561886
 20
147.2625
 30
0.0
 11
171.2180746561886
 21
148.0875
 31
0.0
  0
LINE
  5
116
330
17
100
AcDbEntity
  8
MyLines
100
AcDbLine
 10
171.2180746561886
 20
148.0875
 30
0.0
 11
171.63064833005893
 21
148.5
 31
0.0
  0
LINE
  5
117
330
17
100
AcDbEntity
  8
MyLines
100
AcDbLine
 10
171.63064833005893
 20
148.5
 30
0.0
 11
171.63064833005893
 21
157.1625
 31
0.0
  0
LINE
  5
118
330
17
100
AcDbEntity
  8
MyLines
100
AcDbLine
 10
171.63064833005893
 20
157.1625
 30
0.0
 11
172.0432220039293
 21
157.575
 31
0.0
  0
LINE
  5
119
330
17
100
AcDbEntity
  8
MyLines
100
AcDbLine
 10
172.0432220039293
 20
157.575
 30
0.0
 11
172.0432220039293
 21
183.975
 31
0.0
  0
LINE
  5
11A
330
17
100
AcDbEntity
  8
MyLines
100
AcDbLine
 10
172.0432220039293
 20
183.975
 30
0.0
 11
172.4557956777996
 21
184.3875
 31
0.0
  0
LINE
  5
11B
330
17
100
AcDbEntity
  8
MyLines
100
AcDbLine
 10
172.4557956777996
 20
184.3875
 30
0.0
 11
172.4557956777996
 21
199.65
 31
0.0
  0
LINE
  5
11C
330
17
100
AcDbEntity
  8
MyLines
100
AcDbLine
 10
172.4557956777996
 20
199.65
 30
0.0
 11
172.86836935166994
 21
200.0625
 31
0.0
  0
LINE
  5
11D
330
17
100
AcDbEntity
  8
MyLines
100
AcDbLine
 10
172.86836935166994
 20
200.0625
 30
0.0
 11
172.86836935166994
 21
200.475
 31
0.0
  0
LINE
  5
11E
330
17
100
AcDbEntity
  8
MyLines
100
AcDbLine
 10
172.86836935166994
 20
200.475
 30
0.0
 11
173.28094302554027
 21
200.8875
 31
0.0
  0
LINE
  5
11F
330
17
100
AcDbEntity
  8
MyLines
100
AcDbLine
 10
173.28094302554027
 20
200.8875
 30
0.0
 11
173.28094302554027
 21
201.3
 31
0.0
  0
LINE
  5
120
330
17
100
AcDbEntity
  8
MyLines
100
AcDbLine
 10
173.28094302554027
 20
201.3
 30
0.0
 11
173.69351669941062
 21
201.7125
 31
0.0
  0
LINE
  5
121
330
17
100
AcDbEntity
  8
MyLines
100
AcDbLine
 10
173.69351669941062
 20
201.7125
 30
0.0
 11
174.10609037328095
 21
201.7125
 31
0.0
  0
LINE
  5
122
330
17
100
AcDbEntity
  8
MyLines
100
AcDbLine
 10
174.10609037328095
 20
201.7125
 30
0.0
 11
174.51866404715128
 21
202.125
 31
0.0
  0
LINE
  5
123
330
17
100
AcDbEntity
  8
MyLines
100
AcDbLine
 10
174.51866404715128
 20
202.125
 30
0.0
 11
229.3909626719057
 21
202.125
 31
0.0
  0
LINE
  5
124
330
17
100
AcDbEntity
  8
MyLines
100
AcDbLine
 10
229.3909626719057
 20
202.125
 30
0.0
 11
229.80353634577602
 21
201.7125
 31
0.0
  0
LINE
  5
125
330
17
100
AcDbEntity
  8
MyLines
100
AcDbLine
 10
229.80353634577602
 20
201.7125
 30
0.0
 11
249.60707269155208
 21
201.7125
 31
0.0
  0
LINE
  5
126
330
17
100
AcDbEntity
  8
MyLines
100
AcDbLine
 10
249.60707269155208
 20
201.7125
 30
0.0
 11
250.0196463654224
 21
201.3
 31
0.0
  0
LINE
  5
127
330
17
100
AcDbEntity
  8
MyLines
100
AcDbLine
 10
250.0196463654224
 20
201.3
 30
0.0
 11
251.2573673870334
 21
201.3
 31
0.0
  0
LINE
  5
128
330
17
100
AcDbEntity
  8
MyLines
100
AcDbLine
 10
251.2573673870334
 20
201.3
 30
0.0
 11
251.66994106090374
 21
200.8875
 31
0.0
  0
LINE
  5
129
330
17
100
AcDbEntity
  8
MyLines
100
AcDbLine
 10
251.66994106090374
 20
200.8875
 30
0.0
 11
252.4950884086444
 21
200.8875
 31
0.0
  0
LINE
  5
12A
330
17
100
AcDbEntity
  8
MyLines
100
AcDbLine
 10
252.4950884086444
 20
200.8875
 30
0.0
 11
254.55795677799608
 21
198.825
 31
0.0
  0
LINE
  5
12B
330
17
100
AcDbEntity
  8
MyLines
100
AcDbLine
 10
254.55795677799608
 20
198.825
 30
0.0
 11
254.55795677799608
 21
198.4125
 31
0.0
  0
LINE
  5
12C
330
17
100
AcDbEntity
  8
MyLines
100
AcDbLine
 10
254.55795677799608
 20
198.4125
 30
0.0
 11
254.9705304518664
 21
198.0
 31
0.0
  0
LINE
  5
12D
330
17
100
AcDbEntity
  8
MyLines
100
AcDbLine
 10
254.9705304518664
 20
198.0
 30
0.0
 11
254.9705304518664
 21
197.175
 31
0.0
  0
LINE
  5
12E
330
17
100
AcDbEntity
  8
MyLines
100
AcDbLine
 10
254.9705304518664
 20
197.175
 30
0.0
 11
255.38310412573674
 21
196.7625
 31
0.0
  0
LINE
  5
12F
330
17
100
AcDbEntity
  8
MyLines
100
AcDbLine
 10
255.38310412573674
 20
196.7625
 30
0.0
 11
255.38310412573674
 21
127.875
 31
0.0
  0
LINE
  5
130
330
17
100
AcDbEntity
  8
MyLines
100
AcDbLine
 10
255.38310412573674
 20
127.875
 30
0.0
 11
254.9705304518664
 21
127.4625
 31
0.0
  0
LINE
  5
131
330
17
100
AcDbEntity
  8
MyLines
100
AcDbLine
 10
254.9705304518664
 20
127.4625
 30
0.0
 11
254.9705304518664
 21
127.05
 31
0.0
  0
LINE
  5
132
330
17
100
AcDbEntity
  8
MyLines
100
AcDbLine
 10
254.9705304518664
 20
127.05
 30
0.0
 11
254.55795677799608
 21
126.6375
 31
0.0
  0
LINE
  5
133
330
17
100
AcDbEntity
  8
MyLines
100
AcDbLine
 10
254.55795677799608
 20
126.6375
 30
0.0
 11
254.55795677799608
 21
126.225
 31
0.0
  0
LINE
  5
134
330
17
100
AcDbEntity
  8
MyLines
100
AcDbLine
 10
254.55795677799608
 20
126.225
 30
0.0
 11
253.7328094302554
 21
125.4
 31
0.0
  0
LINE
  5
135
330
17
100
AcDbEntity
  8
MyLines
100
AcDbLine
 10
253.7328094302554
 20
125.4
 30
0.0
 11
253.7328094302554
 21
124.9875
 31
0.0
  0
LINE
  5
136
330
17
100
AcDbEntity
  8
MyLines
100
AcDbLine
 10
253.7328094302554
 20
124.9875
 30
0.0
 11
253.32023575638507
 21
124.9875
 31
0.0
  0
LINE
  5
137
330
17
100
AcDbEntity
  8
MyLines
100
AcDbLine
 10
253.32023575638507
 20
124.9875
 30
0.0
 11
252.4950884086444
 21
124.1625
 31
0.0
  0
LINE
  5
138
330
17
100
AcDbEntity
  8
MyLines
100
AcDbLine
 10
252.4950884086444
 20
124.1625
 30
0.0
 11
252.08251473477407
 21
124.1625
 31
0.0
  0
LINE
  5
139
330
17
100
AcDbEntity
  8
MyLines
100
AcDbLine
 10
252.08251473477407
 20
124.1625
 30
0.0
 11
251.66994106090374
 21
123.75
 31
0.0
  0
LINE
  5
13A
330
17
100
AcDbEntity
  8
MyLines
100
AcDbLine
 10
251.66994106090374
 20
123.75
 30
0.0
 11
251.2573673870334
 21
123.75
 31
0.0
  0
LINE
  5
13B
330
17
100
AcDbEntity
  8
MyLines
100
AcDbLine
 10
251.2573673870334
 20
123.75
 30
0.0
 11
250.84479371316306
 21
123.3375
 31
0.0
  0
LINE
  5
13C
330
17
100
AcDbEntity
  8
MyLines
100
AcDbLine
 10
250.84479371316306
 20
123.3375
 30
0.0
 11
250.43222003929273
 21
123.3375
 31
0.0
  0
LINE
  5
13D
330
17
100
AcDbEntity
  8
MyLines
100
AcDbLine
 10
250.43222003929273
 20
123.3375
 30
0.0
 11
250.0196463654224
 21
122.925
 31
0.0
  0
LINE
  5
13E
330
17
100
AcDbEntity
  8
MyLines
100
AcDbLine
 10
250.0196463654224
 20
122.925
 30
0.0
 11
249.60707269155208
 21
122.925
 31
0.0
  0
LINE
  5
13F
330
17
100
AcDbEntity
  8
MyLines
100
AcDbLine
 10
249.60707269155208
 20
122.925
 30
0.0
 11
248.7819253438114
 21
122.1
 31
0.0
  0
LINE
  5
140
330
17
100
AcDbEntity
  8
MyLines
100
AcDbLine
 10
248.7819253438114
 20
122.1
 30
0.0
 11
248.36935166994107
 21
122.1
 31
0.0
  0
LINE
  5
141
330
17
100
AcDbEntity
  8
MyLines
100
AcDbLine
 10
248.36935166994107
 20
122.1
 30
0.0
 11
247.9567779960707
 21
121.6875
 31
0.0
  0
LINE
  5
142
330
17
100
AcDbEntity
  8
MyLines
100
AcDbLine
 10
247.9567779960707
 20
121.6875
 30
0.0
 11
247.5442043222004
 21
121.6875
 31
0.0
  0
LINE
  5
143
330
17
100
AcDbEntity
  8
MyLines
100
AcDbLine
 10
247.5442043222004
 20
121.6875
 30
0.0
 11
247.13163064833006
 21
121.275
 31
0.0
  0
LINE
  5
144
330
17
100
AcDbEntity
  8
MyLines
100
AcDbLine
 10
247.13163064833006
 20
121.275
 30
0.0
 11
246.71905697445973
 21
121.275
 31
0.0
  0
LINE
  5
145
330
17
100
AcDbEntity
  8
MyLines
100
AcDbLine
 10
246.71905697445973
 20
121.275
 30
0.0
 11
246.30648330058938
 21
120.8625
 31
0.0
  0
LINE
  5
146
330
17
100
AcDbEntity
  8
MyLines
100
AcDbLine
 10
246.30648330058938
 20
120.8625
 30
0.0
 11
245.89390962671905
 21
120.8625
 31
0.0
  0
LINE
  5
147
330
17
100
AcDbEntity
  8
MyLines
100
AcDbLine
 10
245.89390962671905
 20
120.8625
 30
0.0
 11
245.48133595284872
 21
120.45
 31
0.0
  0
LINE
  5
148
330
17
100
AcDbEntity
  8
MyLines
100
AcDbLine
 10
245.48133595284872
 20
120.45
 30
0.0
 11
245.0687622789784
 21
120.45
 31
0.0
  0
LINE
  5
149
330
17
100
AcDbEntity
  8
MyLines
100
AcDbLine
 10
245.0687622789784
 20
120.45
 30
0.0
 11
244.65618860510804
 21
120.0375
 31
0.0
  0
LINE
  5
14A
330
17
100
AcDbEntity
  8
MyLines
100
AcDbLine
 10
244.65618860510804
 20
120.0375
 30
0.0
 11
244.24361493123772
 21
120.0375
 31
0.0
  0
LINE
  5
14B
330
17
100
AcDbEntity
  8
MyLines
100
AcDbLine
 10
244.24361493123772
 20
120.0375
 30
0.0
 11
243.8310412573674
 21
119.625
 31
0.0
  0
LINE
  5
14C
330
17
100
AcDbEntity
  8
MyLines
100
AcDbLine
 10
243.8310412573674
 20
119.625
 30
0.0
 11
243.41846758349706
 21
119.625
 31
0.0
  0
LINE
  5
14D
330
17
100
AcDbEntity
  8
MyLines
100
AcDbLine
 10
243.41846758349706
 20
119.625
 30
0.0
 11
243.0058939096267
 21
119.2125
 31
0.0
  0
LINE
  5
14E
330
17
100
AcDbEntity
  8
MyLines
100
AcDbLine
 10
243.0058939096267
 20
119.2125
 30
0.0
 11
242.59332023575638
 21
119.2125
 31
0.0
  0
LINE
  5
14F
330
17
100
AcDbEntity
  8
MyLines
100
AcDbLine
 10
242.59332023575638
 20
119.2125
 30
0.0
 11
242.18074656188605
 21
118.8
 31
0.0
  0
LINE
  5
150
330
17
100
AcDbEntity
  8
MyLines
100
AcDbLine
 10
242.18074656188605
 20
118.8
 30
0.0
 11
241.76817288801573
 21
118.8
 31
0.0
  0
LINE
  5
151
330
17
100
AcDbEntity
  8
MyLines
100
AcDbLine
 10
241.76817288801573
 20
118.8
 30
0.0
 11
241.35559921414537
 21
118.3875
 31
0.0
  0
LINE
  5
152
330
17
100
AcDbEntity
  8
MyLines
100
AcDbLine
 10
241.35559921414537
 20
118.3875
 30
0.0
 11
240.94302554027504
 21
118.3875
 31
0.0
  0
LINE
  5
153
330
17
100
AcDbEntity
  8
MyLines
100
AcDbLine
 10
240.94302554027504
 20
118.3875
 30
0.0
 11
240.53045186640472
 21
117.975
 31
0.0
  0
LINE
  5
154
330
17
100
AcDbEntity
  8
MyLines
100
AcDbLine
 10
240.53045186640472
 20
117.975
 30
0.0
 11
240.1178781925344
 21
117.975
 31
0.0
  0
LINE
  5
155
330
17
100
AcDbEntity
  8
MyLines
100
AcDbLine
 10
240.1178781925344
 20
117.975
 30
0.0
 11
239.70530451866404
 21
117.5625
 31
0.0
  0
LINE
  5
156
330
17
100
AcDbEntity
  8
MyLines
100
AcDbLine
 10
239.70530451866404
 20
117.5625
 30
0.0
 11
239.2927308447937
 21
117.5625
 31
0.0
  0
LINE
  5
157
330
17
100
AcDbEntity
  8
MyLines
100
AcDbLine
 10
239.2927308447937
 20
117.5625
 30
0.0
 11
238.46758349705306
 21
116.7375
 31
0.0
  0
LINE
  5
158
330
17
100
AcDbEntity
  8
MyLines
100
AcDbLine
 10
238.46758349705306
 20
116.7375
 30
0.0
 11
238.0550098231827
 21
116.7375
 31
0.0
  0
LINE
  5
159
330
17
100
AcDbEntity
  8
MyLines
100
AcDbLine
 10
238.0550098231827
 20
116.7375
 30
0.0
 11
235.99214145383104
 21
114.675
 31
0.0
  0
LINE
  5
15A
330
17
100
AcDbEntity
  8
MyLines
100
AcDbLine
 10
235.99214145383104
 20
114.675
 30
0.0
 11
235.99214145383104
 21
114.2625
 31
0.0
  0
LINE
  5
15B
330
17
100
AcDbEntity
  8
MyLines
100
AcDbLine
 10
235.99214145383104
 20
114.2625
 30
0.0
 11
235.5795677799607
 21
113.85
 31
0.0
  0
LINE
  5
15C
330
17
100
AcDbEntity
  8
MyLines
100
AcDbLine
 10
235.5795677799607
 20
113.85
 30
0.0
 11
235.5795677799607
 21
113.4375
 31
0.0
  0
LINE
  5
15D
330
17
100
AcDbEntity
  8
MyLines
100
AcDbLine
 10
235.5795677799607
 20
113.4375
 30
0.0
 11
235.16699410609039
 21
113.025
 31
0.0
  0
LINE
  5
15E
330
17
100
AcDbEntity
  8
MyLines
100
AcDbLine
 10
235.16699410609039
 20
113.025
 30
0.0
 11
235.16699410609039
 21
101.475
 31
0.0
  0
LINE
  5
15F
330
17
100
AcDbEntity
  8
MyLines
100
AcDbLine
 10
235.16699410609039
 20
101.475
 30
0.0
 11
234.75442043222003
 21
101.0625
 31
0.0
  0
LINE
  5
160
330
17
100
AcDbEntity
  8
MyLines
100
AcDbLine
 10
234.75442043222003
 20
101.0625
 30
0.0
 11
234.75442043222003
 21
97.7625
 31
0.0
  0
LINE
  5
161
330
17
100
AcDbEntity
  8
MyLines
100
AcDbLine
 10
234.75442043222003
 20
97.7625
 30
0.0
 11
235.16699410609039
 21
97.35
 31
0.0
  0
LINE
  5
162
330
17
100
AcDbEntity
  8
MyLines
100
AcDbLine
 10
235.16699410609039
 20
97.35
 30
0.0
 11
235.16699410609039
 21
96.1125
 31
0.0
  0
LINE
  5
163
330
17
100
AcDbEntity
  8
MyLines
100
AcDbLine
 10
235.16699410609039
 20
96.1125
 30
0.0
 11
235.99214145383104
 21
95.2875
 31
0.0
  0
LINE
  5
164
330
17
100
AcDbEntity
  8
MyLines
100
AcDbLine
 10
235.99214145383104
 20
95.2875
 30
0.0
 11
235.99214145383104
 21
94.875
 31
0.0
  0
LINE
  5
165
330
17
100
AcDbEntity
  8
MyLines
100
AcDbLine
 10
235.99214145383104
 20
94.875
 30
0.0
 11
237.22986247544205
 21
93.6375
 31
0.0
  0
LINE
  5
166
330
17
100
AcDbEntity
  8
MyLines
100
AcDbLine
 10
237.22986247544205
 20
93.6375
 30
0.0
 11
237.64243614931237
 21
93.6375
 31
0.0
  0
LINE
  5
167
330
17
100
AcDbEntity
  8
MyLines
100
AcDbLine
 10
237.64243614931237
 20
93.6375
 30
0.0
 11
238.46758349705306
 21
92.8125
 31
0.0
  0
LINE
  5
168
330
17
100
AcDbEntity
  8
MyLines
100
AcDbLine
 10
238.46758349705306
 20
92.8125
 30
0.0
 11
238.88015717092338
 21
92.8125
 31
0.0
  0
LINE
  5
169
330
17
100
AcDbEntity
  8
MyLines
100
AcDbLine
 10
238.88015717092338
 20
92.8125
 30
0.0
 11
239.2927308447937
 21
92.4
 31
0.0
  0
LINE
  5
16A
330
17
100
AcDbEntity
  8
MyLines
100
AcDbLine
 10
239.2927308447937
 20
92.4
 30
0.0
 11
239.70530451866404
 21
92.4
 31
0.0
  0
LINE
  5
16B
330
17
100
AcDbEntity
  8
MyLines
100
AcDbLine
 10
239.70530451866404
 20
92.4
 30
0.0
 11
240.1178781925344
 21
91.9875
 31
0.0
  0
LINE
  5
16C
330
17
100
AcDbEntity
  8
MyLines
100
AcDbLine
 10
240.1178781925344
 20
91.9875
 30
0.0
 11
240.53045186640472
 21
91.9875
 31
0.0
  0
LINE
  5
16D
330
17
100
AcDbEntity
  8
MyLines
100
AcDbLine
 10
240.53045186640472
 20
91.9875
 30
0.0
 11
240.94302554027504
 21
91.575
 31
0.0
  0
LINE
  5
16E
330
17
100
AcDbEntity
  8
MyLines
100
AcDbLine
 10
240.94302554027504
 20
91.575
 30
0.0
 11
241.35559921414537
 21
91.575
 31
0.0
  0
LINE
  5
16F
330
17
100
AcDbEntity
  8
MyLines
100
AcDbLine
 10
241.35559921414537
 20
91.575
 30
0.0
 11
241.76817288801573
 21
91.1625
 31
0.0
  0
LINE
  5
170
330
17
100
AcDbEntity
  8
MyLines
100
AcDbLine
 10
241.76817288801573
 20
91.1625
 30
0.0
 11
242.18074656188605
 21
91.1625
 31
0.0
  0
LINE
  5
171
330
17
100
AcDbEntity
  8
MyLines
100
AcDbLine
 10
242.18074656188605
 20
91.1625
 30
0.0
 11
242.59332023575638
 21
90.75
 31
0.0
  0
LINE
  5
172
330
17
100
AcDbEntity
  8
MyLines
100
AcDbLine
 10
242.59332023575638
 20
90.75
 30
0.0
 11
243.0058939096267
 21
90.75
 31
0.0
  0
LINE
  5
173
330
17
100
AcDbEntity
  8
MyLines
100
AcDbLine
 10
243.0058939096267
 20
90.75
 30
0.0
 11
243.41846758349706
 21
90.3375
 31
0.0
  0
LINE
  5
174
330
17
100
AcDbEntity
  8
MyLines
100
AcDbLine
 10
243.41846758349706
 20
90.3375
 30
0.0
 11
243.8310412573674
 21
90.3375
 31
0.0
  0
LINE
  5
175
330
17
100
AcDbEntity
  8
MyLines
100
AcDbLine
 10
243.8310412573674
 20
90.3375
 30
0.0
 11
244.24361493123772
 21
89.925
 31
0.0
  0
LINE
  5
176
330
17
100
AcDbEntity
  8
MyLines
100
AcDbLine
 10
244.24361493123772
 20
89.925
 30
0.0
 11
244.65618860510804
 21
89.925
 31
0.0
  0
LINE
  5
177
330
17
100
AcDbEntity
  8
MyLines
100
AcDbLine
 10
244.65618860510804
 20
89.925
 30
0.0
 11
245.0687622789784
 21
89.5125
 31
0.0
  0
LINE
  5
178
330
17
100
AcDbEntity
  8
MyLines
100
AcDbLine
 10
245.0687622789784
 20
89.5125
 30
0.0
 11
245.48133595284872
 21
89.5125
 31
0.0
  0
LINE
  5
179
330
17
100
AcDbEntity
  8
MyLines
100
AcDbLine
 10
245.48133595284872
 20
89.5125
 30
0.0
 11
245.89390962671905
 21
89.1
 31
0.0
  0
LINE
  5
17A
330
17
100
AcDbEntity
  8
MyLines
100
AcDbLine
 10
245.89390962671905
 20
89.1
 30
0.0
 11
246.30648330058938
 21
89.1
 31
0.0
  0
LINE
  5
17B
330
17
100
AcDbEntity
  8
MyLines
100
AcDbLine
 10
246.30648330058938
 20
89.1
 30
0.0
 11
246.71905697445973
 21
88.6875
 31
0.0
  0
LINE
  5
17C
330
17
100
AcDbEntity
  8
MyLines
100
AcDbLine
 10
246.71905697445973
 20
88.6875
 30
0.0
 11
247.13163064833006
 21
88.6875
 31
0.0
  0
LINE
  5
17D
330
17
100
AcDbEntity
  8
MyLines
100
AcDbLine
 10
247.13163064833006
 20
88.6875
 30
0.0
 11
247.5442043222004
 21
88.275
 31
0.0
  0
LINE
  5
17E
330
17
100
AcDbEntity
  8
MyLines
100
AcDbLine
 10
247.5442043222004
 20
88.275
 30
0.0
 11
247.9567779960707
 21
88.275
 31
0.0
  0
LINE
  5
17F
330
17
100
AcDbEntity
  8
MyLines
100
AcDbLine
 10
247.9567779960707
 20
88.275
 30
0.0
 11
248.36935166994107
 21
87.8625
 31
0.0
  0
LINE
  5
180
330
17
100
AcDbEntity
  8
MyLines
100
AcDbLine
 10
248.36935166994107
 20
87.8625
 30
0.0
 11
249.19449901768172
 21
87.8625
 31
0.0
  0
LINE
  5
181
330
17
100
AcDbEntity
  8
MyLines
100
AcDbLine
 10
249.19449901768172
 20
87.8625
 30
0.0
 11
249.60707269155208
 21
87.45
 31
0.0
  0
LINE
  5
182
330
17
100
AcDbEntity
  8
MyLines
100
AcDbLine
 10
249.60707269155208
 20
87.45
 30
0.0
 11
250.0196463654224
 21
87.45
 31
0.0
  0
LINE
  5
183
330
17
100
AcDbEntity
  8
MyLines
100
AcDbLine
 10
250.0196463654224
 20
87.45
 30
0.0
 11
250.84479371316306
 21
86.625
 31
0.0
  0
LINE
  5
184
330
17
100
AcDbEntity
  8
MyLines
100
AcDbLine
 10
250.84479371316306
 20
86.625
 30
0.0
 11
251.2573673870334
 21
86.625
 31
0.0
  0
LINE
  5
185
330
17
100
AcDbEntity
  8
MyLines
100
AcDbLine
 10
251.2573673870334
 20
86.625
 30
0.0
 11
251.66994106090374
 21
86.2125
 31
0.0
  0
LINE
  5
186
330
17
100
AcDbEntity
  8
MyLines
100
AcDbLine
 10
251.66994106090374
 20
86.2125
 30
0.0
 11
252.08251473477407
 21
86.2125
 31
0.0
  0
LINE
  5
187
330
17
100
AcDbEntity
  8
MyLines
100
AcDbLine
 10
252.08251473477407
 20
86.2125
 30
0.0
 11
253.7328094302554
 21
84.5625
 31
0.0
  0
LINE
  5
188
330
17
100
AcDbEntity
  8
MyLines
100
AcDbLine
 10
253.7328094302554
 20
84.5625
 30
0.0
 11
253.7328094302554
 21
84.15
 31
0.0
  0
LINE
  5
189
330
17
100
AcDbEntity
  8
MyLines
100
AcDbLine
 10
253.7328094302554
 20
84.15
 30
0.0
 11
254.14538310412573
 21
83.7375
 31
0.0
  0
LINE
  5
18A
330
17
100
AcDbEntity
  8
MyLines
100
AcDbLine
 10
254.14538310412573
 20
83.7375
 30
0.0
 11
254.14538310412573
 21
83.325
 31
0.0
  0
LINE
  5
18B
330
17
100
AcDbEntity
  8
MyLines
100
AcDbLine
 10
254.14538310412573
 20
83.325
 30
0.0
 11
254.55795677799608
 21
82.9125
 31
0.0
  0
LINE
  5
18C
330
17
100
AcDbEntity
  8
MyLines
100
AcDbLine
 10
254.55795677799608
 20
82.9125
 30
0.0
 11
254.55795677799608
 21
63.9375
 31
0.0
  0
LINE
  5
18D
330
17
100
AcDbEntity
  8
MyLines
100
AcDbLine
 10
254.55795677799608
 20
63.9375
 30
0.0
 11
254.14538310412573
 21
63.525
 31
0.0
  0
LINE
  5
18E
330
17
100
AcDbEntity
  8
MyLines
100
AcDbLine
 10
254.14538310412573
 20
63.525
 30
0.0
 11
254.14538310412573
 21
43.725
 31
0.0
  0
LINE
  5
18F
330
17
100
AcDbEntity
  8
MyLines
100
AcDbLine
 10
254.14538310412573
 20
43.725
 30
0.0
 11
253.7328094302554
 21
43.3125
 31
0.0
  0
LINE
  5
190
330
17
100
AcDbEntity
  8
MyLines
100
AcDbLine
 10
253.7328094302554
 20
43.3125
 30
0.0
 11
253.7328094302554
 21
23.1
 31
0.0
  0
LINE
  5
191
330
17
100
AcDbEntity
  8
MyLines
100
AcDbLine
 10
253.7328094302554
 20
23.1
 30
0.0
 11
253.32023575638507
 21
22.6875
 31
0.0
  0
LINE
  5
192
330
17
100
AcDbEntity
  8
MyLines
100
AcDbLine
 10
253.32023575638507
 20
22.6875
 30
0.0
 11
253.32023575638507
 21
13.6125
 31
0.0
  0
LINE
  5
193
330
17
100
AcDbEntity
  8
MyLines
100
AcDbLine
 10
253.32023575638507
 20
13.6125
 30
0.0
 11
252.90766208251475
 21
13.2
 31
0.0
  0
LINE
  5
194
330
17
100
AcDbEntity
  8
MyLines
100
AcDbLine
 10
252.90766208251475
 20
13.2
 30
0.0
 11
252.90766208251475
 21
12.375
 31
0.0
  0
LINE
  5
195
330
17
100
AcDbEntity
  8
MyLines
100
AcDbLine
 10
252.90766208251475
 20
12.375
 30
0.0
 11
252.08251473477407
 21
11.55
 31
0.0
  0
LINE
  5
196
330
17
100
AcDbEntity
  8
MyLines
100
AcDbLine
 10
252.08251473477407
 20
11.55
 30
0.0
 11
252.08251473477407
 21
11.1375
 31
0.0
  0
LINE
  5
197
330
17
100
AcDbEntity
  8
MyLines
100
AcDbLine
 10
252.08251473477407
 20
11.1375
 30
0.0
 11
250.84479371316306
 21
9.9
 31
0.0
  0
LINE
  5
198
330
17
100
AcDbEntity
  8
MyLines
100
AcDbLine
 10
250.84479371316306
 20
9.9
 30
0.0
 11
250.43222003929273
 21
9.9
 31
0.0
  0
LINE
  5
199
330
17
100
AcDbEntity
  8
MyLines
100
AcDbLine
 10
250.43222003929273
 20
9.9
 30
0.0
 11
250.0196463654224
 21
9.4875
 31
0.0
  0
LINE
  5
19A
330
17
100
AcDbEntity
  8
MyLines
100
AcDbLine
 10
250.0196463654224
 20
9.4875
 30
0.0
 11
249.60707269155208
 21
9.4875
 31
0.0
  0
LINE
  5
19B
330
17
100
AcDbEntity
  8
MyLines
100
AcDbLine
 10
249.60707269155208
 20
9.4875
 30
0.0
 11
249.19449901768172
 21
9.075
 31
0.0
  0
LINE
  5
19C
330
17
100
AcDbEntity
  8
MyLines
100
AcDbLine
 10
249.19449901768172
 20
9.075
 30
0.0
 11
247.13163064833006
 21
9.075
 31
0.0
  0
LINE
  5
19D
330
17
100
AcDbEntity
  8
MyLines
100
AcDbLine
 10
247.13163064833006
 20
9.075
 30
0.0
 11
246.71905697445973
 21
8.6625
 31
0.0
  0
LINE
  5
19E
330
17
100
AcDbEntity
  8
MyLines
100
AcDbLine
 10
246.71905697445973
 20
8.6625
 30
0.0
 11
232.27897838899804
 21
8.6625
 31
0.0
  0
LINE
  5
19F
330
17
100
AcDbEntity
  8
MyLines
100
AcDbLine
 10
232.27897838899804
 20
8.6625
 30
0.0
 11
231.86640471512771
 21
8.25
 31
0.0
  0
LINE
  5
1A0
330
17
100
AcDbEntity
  8
MyLines
100
AcDbLine
 10
231.86640471512771
 20
8.25
 30
0.0
 11
215.36345776031433
 21
8.25
 31
0.0
  0
LINE
  5
1A1
330
17
100
AcDbEntity
  8
MyLines
100
AcDbLine
 10
215.36345776031433
 20
8.25
 30
0.0
 11
214.950884086444
 21
7.8375
 31
0.0
  0
LINE
  5
1A2
330
17
100
AcDbEntity
  8
MyLines
100
AcDbLine
 10
214.950884086444
 20
7.8375
 30
0.0
 11
192.67190569744596
 21
7.8375
 31
0.0
  0
LINE
  5
1A3
330
17
100
AcDbEntity
  8
MyLines
100
AcDbLine
 10
192.67190569744596
 20
7.8375
 30
0.0
 11
192.25933202357564
 21
7.425
 31
0.0
  0
LINE
  5
1A4
330
17
100
AcDbEntity
  8
MyLines
100
AcDbLine
 10
192.25933202357564
 20
7.425
 30
0.0
 11
167.5049115913556
 21
7.425
 31
0.0
  0
LINE
  5
1A5
330
17
100
AcDbEntity
  8
MyLines
100
AcDbLine
 10
167.5049115913556
 20
7.425
 30
0.0
 11
167.09233791748525
 21
7.0125
 31
0.0
  0
LINE
  5
1A6
330
17
100
AcDbEntity
  8
MyLines
100
AcDbLine
 10
167.09233791748525
 20
7.0125
 30
0.0
 11
139.86247544204323
 21
7.0125
 31
0.0
  0
LINE
  5
1A7
330
17
100
AcDbEntity
  8
MyLines
100
AcDbLine
 10
139.86247544204323
 20
7.0125
 30
0.0
 11
139.44990176817288
 21
6.6
 31
0.0
  0
LINE
  5
1A8
330
17
100
AcDbEntity
  8
MyLines
100
AcDbLine
 10
139.44990176817288
 20
6.6
 30
0.0
 11
115.10805500982319
 21
6.6
 31
0.0
  0
LINE
  5
1A9
330
17
100
AcDbEntity
  8
MyLines
100
AcDbLine
 10
115.10805500982319
 20
6.6
 30
0.0
 11
114.69548133595285
 21
6.1875
 31
0.0
  0
LINE
  5
1AA
330
17
100
AcDbEntity
  8
MyLines
100
AcDbLine
 10
114.69548133595285
 20
6.1875
 30
0.0
 11
86.2278978388998
 21
6.1875
 31
0.0
  0
LINE
  5
1AB
330
17
100
AcDbEntity
  8
MyLines
100
AcDbLine
 10
86.2278978388998
 20
6.1875
 30
0.0
 11
85.81532416502947
 21
5.775
 31
0.0
  0
LINE
  5
1AC
330
17
100
AcDbEntity
  8
MyLines
100
AcDbLine
 10
85.81532416502947
 20
5.775
 30
0.0
 11
56.93516699410609
 21
5.775
 31
0.0
  0
LINE
  5
1AD
330
17
100
AcDbEntity
  8
MyLines
100
AcDbLine
 10
56.93516699410609
 20
5.775
 30
0.0
 11
56.52259332023576
 21
6.1875
 31
0.0
  0
LINE
  5
1AE
330
17
100
AcDbEntity
  8
MyLines
100
AcDbLine
 10
56.52259332023576
 20
6.1875
 30
0.0
 11
55.69744597249509
 21
6.1875
 31
0.0
  0
LINE
  5
1AF
330
17
100
AcDbEntity
  8
MyLines
100
AcDbLine
 10
55.69744597249509
 20
6.1875
 30
0.0
 11
55.284872298624755
 21
5.775
 31
0.0
  0
LINE
  5
1B0
330
17
100
AcDbEntity
  8
MyLines
100
AcDbLine
 10
55.284872298624755
 20
5.775
 30
0.0
 11
50.74656188605108
 21
5.775
 31
0.0
  0
LINE
  5
1B1
330
17
100
AcDbEntity
  8
MyLines
100
AcDbLine
 10
217.42632612966602
 20
19.8
 30
0.0
 11
217.83889980353635
 21
19.3875
 31
0.0
  0
LINE
  5
1B2
330
17
100
AcDbEntity
  8
MyLines
100
AcDbLine
 10
217.83889980353635
 20
19.3875
 30
0.0
 11
219.901768172888
 21
19.3875
 31
0.0
  0
LINE
  5
1B3
330
17
100
AcDbEntity
  8
MyLines
100
AcDbLine
 10
219.901768172888
 20
19.3875
 30
0.0
 11
220.31434184675834
 21
19.8
 31
0.0
  0
LINE
  5
1B4
330
17
100
AcDbEntity
  8
MyLines
100
AcDbLine
 10
220.31434184675834
 20
19.8
 30
0.0
 11
220.31434184675834
 21
25.1625
 31
0.0
  0
LINE
  5
1B5
330
17
100
AcDbEntity
  8
MyLines
100
AcDbLine
 10
220.31434184675834
 20
25.1625
 30
0.0
 11
220.7269155206287
 21
25.575
 31
0.0
  0
LINE
  5
1B6
330
17
100
AcDbEntity
  8
MyLines
100
AcDbLine
 10
220.7269155206287
 20
25.575
 30
0.0
 11
220.7269155206287
 21
25.9875
 31
0.0
  0
LINE
  5
1B7
330
17
100
AcDbEntity
  8
MyLines
100
AcDbLine
 10
220.7269155206287
 20
25.9875
 30
0.0
 11
220.31434184675834
 21
26.4
 31
0.0
  0
LINE
  5
1B8
330
17
100
AcDbEntity
  8
MyLines
100
AcDbLine
 10
220.31434184675834
 20
26.4
 30
0.0
 11
220.31434184675834
 21
26.8125
 31
0.0
  0
LINE
  5
1B9
330
17
100
AcDbEntity
  8
MyLines
100
AcDbLine
 10
220.31434184675834
 20
26.8125
 30
0.0
 11
220.7269155206287
 21
27.225
 31
0.0
  0
LINE
  5
1BA
330
17
100
AcDbEntity
  8
MyLines
100
AcDbLine
 10
220.7269155206287
 20
27.225
 30
0.0
 11
220.7269155206287
 21
49.5
 31
0.0
  0
LINE
  5
1BB
330
17
100
AcDbEntity
  8
MyLines
100
AcDbLine
 10
220.7269155206287
 20
49.5
 30
0.0
 11
221.13948919449902
 21
49.9125
 31
0.0
  0
LINE
  5
1BC
330
17
100
AcDbEntity
  8
MyLines
100
AcDbLine
 10
221.13948919449902
 20
49.9125
 30
0.0
 11
221.13948919449902
 21
83.325
 31
0.0
  0
LINE
  5
1BD
330
17
100
AcDbEntity
  8
MyLines
100
AcDbLine
 10
221.13948919449902
 20
83.325
 30
0.0
 11
221.55206286836935
 21
83.7375
 31
0.0
  0
LINE
  5
1BE
330
17
100
AcDbEntity
  8
MyLines
100
AcDbLine
 10
221.55206286836935
 20
83.7375
 30
0.0
 11
221.55206286836935
 21
108.075
 31
0.0
  0
LINE
  5
1BF
330
17
100
AcDbEntity
  8
MyLines
100
AcDbLine
 10
221.55206286836935
 20
108.075
 30
0.0
 11
221.96463654223967
 21
108.4875
 31
0.0
  0
LINE
  5
1C0
330
17
100
AcDbEntity
  8
MyLines
100
AcDbLine
 10
221.96463654223967
 20
108.4875
 30
0.0
 11
221.55206286836935
 21
108.9
 31
0.0
  0
LINE
  5
1C1
330
17
100
AcDbEntity
  8
MyLines
100
AcDbLine
 10
221.55206286836935
 20
108.9
 30
0.0
 11
221.55206286836935
 21
110.55
 31
0.0
  0
LINE
  5
1C2
330
17
100
AcDbEntity
  8
MyLines
100
AcDbLine
 10
221.55206286836935
 20
110.55
 30
0.0
 11
221.96463654223967
 21
110.9625
 31
0.0
  0
LINE
  5
1C3
330
17
100
AcDbEntity
  8
MyLines
100
AcDbLine
 10
221.96463654223967
 20
110.9625
 30
0.0
 11
221.55206286836935
 21
111.375
 31
0.0
  0
LINE
  5
1C4
330
17
100
AcDbEntity
  8
MyLines
100
AcDbLine
 10
221.55206286836935
 20
111.375
 30
0.0
 11
221.55206286836935
 21
111.7875
 31
0.0
  0
LINE
  5
1C5
330
17
100
AcDbEntity
  8
MyLines
100
AcDbLine
 10
221.55206286836935
 20
111.7875
 30
0.0
 11
221.96463654223967
 21
112.2
 31
0.0
  0
LINE
  5
1C6
330
17
100
AcDbEntity
  8
MyLines
100
AcDbLine
 10
221.96463654223967
 20
112.2
 30
0.0
 11
221.96463654223967
 21
116.325
 31
0.0
  0
LINE
  5
1C7
330
17
100
AcDbEntity
  8
MyLines
100
AcDbLine
 10
221.96463654223967
 20
116.325
 30
0.0
 11
221.55206286836935
 21
116.7375
 31
0.0
  0
LINE
  5
1C8
330
17
100
AcDbEntity
  8
MyLines
100
AcDbLine
 10
221.55206286836935
 20
116.7375
 30
0.0
 11
221.55206286836935
 21
117.5625
 31
0.0
  0
LINE
  5
1C9
330
17
100
AcDbEntity
  8
MyLines
100
AcDbLine
 10
221.55206286836935
 20
117.5625
 30
0.0
 11
221.96463654223967
 21
117.975
 31
0.0
  0
LINE
  5
1CA
330
17
100
AcDbEntity
  8
MyLines
100
AcDbLine
 10
221.96463654223967
 20
117.975
 30
0.0
 11
221.96463654223967
 21
149.7375
 31
0.0
  0
LINE
  5
1CB
330
17
100
AcDbEntity
  8
MyLines
100
AcDbLine
 10
221.96463654223967
 20
149.7375
 30
0.0
 11
222.37721021611003
 21
150.15
 31
0.0
  0
LINE
  5
1CC
330
17
100
AcDbEntity
  8
MyLines
100
AcDbLine
 10
222.37721021611003
 20
150.15
 30
0.0
 11
221.96463654223967
 21
150.5625
 31
0.0
  0
LINE
  5
1CD
330
17
100
AcDbEntity
  8
MyLines
100
AcDbLine
 10
221.96463654223967
 20
150.5625
 30
0.0
 11
221.96463654223967
 21
152.2125
 31
0.0
  0
LINE
  5
1CE
330
17
100
AcDbEntity
  8
MyLines
100
AcDbLine
 10
221.96463654223967
 20
152.2125
 30
0.0
 11
222.37721021611003
 21
152.625
 31
0.0
  0
LINE
  5
1CF
330
17
100
AcDbEntity
  8
MyLines
100
AcDbLine
 10
222.37721021611003
 20
152.625
 30
0.0
 11
222.37721021611003
 21
153.0375
 31
0.0
  0
LINE
  5
1D0
330
17
100
AcDbEntity
  8
MyLines
100
AcDbLine
 10
222.37721021611003
 20
153.0375
 30
0.0
 11
221.96463654223967
 21
153.45
 31
0.0
  0
LINE
  5
1D1
330
17
100
AcDbEntity
  8
MyLines
100
AcDbLine
 10
221.96463654223967
 20
153.45
 30
0.0
 11
221.96463654223967
 21
154.275
 31
0.0
  0
LINE
  5
1D2
330
17
100
AcDbEntity
  8
MyLines
100
AcDbLine
 10
221.96463654223967
 20
154.275
 30
0.0
 11
222.37721021611003
 21
154.6875
 31
0.0
  0
LINE
  5
1D3
330
17
100
AcDbEntity
  8
MyLines
100
AcDbLine
 10
222.37721021611003
 20
154.6875
 30
0.0
 11
222.37721021611003
 21
155.925
 31
0.0
  0
LINE
  5
1D4
330
17
100
AcDbEntity
  8
MyLines
100
AcDbLine
 10
222.37721021611003
 20
155.925
 30
0.0
 11
221.96463654223967
 21
156.3375
 31
0.0
  0
LINE
  5
1D5
330
17
100
AcDbEntity
  8
MyLines
100
AcDbLine
 10
221.96463654223967
 20
156.3375
 30
0.0
 11
221.96463654223967
 21
156.75
 31
0.0
  0
LINE
  5
1D6
330
17
100
AcDbEntity
  8
MyLines
100
AcDbLine
 10
221.96463654223967
 20
156.75
 30
0.0
 11
222.37721021611003
 21
157.1625
 31
0.0
  0
LINE
  5
1D7
330
17
100
AcDbEntity
  8
MyLines
100
AcDbLine
 10
222.37721021611003
 20
157.1625
 30
0.0
 11
222.37721021611003
 21
162.1125
 31
0.0
  0
LINE
  5
1D8
330
17
100
AcDbEntity
  8
MyLines
100
AcDbLine
 10
222.37721021611003
 20
162.1125
 30
0.0
 11
221.96463654223967
 21
162.525
 31
0.0
  0
LINE
  5
1D9
330
17
100
AcDbEntity
  8
MyLines
100
AcDbLine
 10
221.96463654223967
 20
162.525
 30
0.0
 11
221.96463654223967
 21
163.35
 31
0.0
  0
LINE
  5
1DA
330
17
100
AcDbEntity
  8
MyLines
100
AcDbLine
 10
221.96463654223967
 20
163.35
 30
0.0
 11
222.37721021611003
 21
163.7625
 31
0.0
  0
LINE
  5
1DB
330
17
100
AcDbEntity
  8
MyLines
100
AcDbLine
 10
222.37721021611003
 20
163.7625
 30
0.0
 11
222.37721021611003
 21
165.4125
 31
0.0
  0
LINE
  5
1DC
330
17
100
AcDbEntity
  8
MyLines
100
AcDbLine
 10
222.37721021611003
 20
165.4125
 30
0.0
 11
221.96463654223967
 21
165.825
 31
0.0
  0
LINE
  5
1DD
330
17
100
AcDbEntity
  8
MyLines
100
AcDbLine
 10
221.96463654223967
 20
165.825
 30
0.0
 11
221.96463654223967
 21
166.2375
 31
0.0
  0
LINE
  5
1DE
330
17
100
AcDbEntity
  8
MyLines
100
AcDbLine
 10
221.96463654223967
 20
166.2375
 30
0.0
 11
222.37721021611003
 21
166.65
 31
0.0
  0
LINE
  5
1DF
330
17
100
AcDbEntity
  8
MyLines
100
AcDbLine
 10
222.37721021611003
 20
166.65
 30
0.0
 11
222.37721021611003
 21
175.3125
 31
0.0
  0
LINE
  5
1E0
330
17
100
AcDbEntity
  8
MyLines
100
AcDbLine
 10
222.37721021611003
 20
175.3125
 30
0.0
 11
221.96463654223967
 21
175.725
 31
0.0
  0
LINE
  5
1E1
330
17
100
AcDbEntity
  8
MyLines
100
AcDbLine
 10
221.96463654223967
 20
175.725
 30
0.0
 11
221.96463654223967
 21
180.675
 31
0.0
  0
LINE
  5
1E2
330
17
100
AcDbEntity
  8
MyLines
100
AcDbLine
 10
221.96463654223967
 20
180.675
 30
0.0
 11
222.37721021611003
 21
181.0875
 31
0.0
  0
LINE
  5
1E3
330
17
100
AcDbEntity
  8
MyLines
100
AcDbLine
 10
222.37721021611003
 20
181.0875
 30
0.0
 11
222.37721021611003
 21
182.7375
 31
0.0
  0
LINE
  5
1E4
330
17
100
AcDbEntity
  8
MyLines
100
AcDbLine
 10
222.37721021611003
 20
182.7375
 30
0.0
 11
221.96463654223967
 21
183.15
 31
0.0
  0
LINE
  5
1E5
330
17
100
AcDbEntity
  8
MyLines
100
AcDbLine
 10
221.96463654223967
 20
183.15
 30
0.0
 11
221.96463654223967
 21
187.275
 31
0.0
  0
LINE
  5
1E6
330
17
100
AcDbEntity
  8
MyLines
100
AcDbLine
 10
221.96463654223967
 20
187.275
 30
0.0
 11
222.37721021611003
 21
187.6875
 31
0.0
  0
LINE
  5
1E7
330
17
100
AcDbEntity
  8
MyLines
100
AcDbLine
 10
222.37721021611003
 20
187.6875
 30
0.0
 11
221.96463654223967
 21
188.1
 31
0.0
  0
LINE
  5
1E8
330
17
100
AcDbEntity
  8
MyLines
100
AcDbLine
 10
221.96463654223967
 20
188.1
 30
0.0
 11
221.96463654223967
 21
190.1625
 31
0.0
  0
LINE
  5
1E9
330
17
100
AcDbEntity
  8
MyLines
100
AcDbLine
 10
221.96463654223967
 20
190.1625
 30
0.0
 11
222.37721021611003
 21
190.575
 31
0.0
  0
LINE
  5
1EA
330
17
100
AcDbEntity
  8
MyLines
100
AcDbLine
 10
222.37721021611003
 20
190.575
 30
0.0
 11
222.37721021611003
 21
190.9875
 31
0.0
  0
LINE
  5
1EB
330
17
100
AcDbEntity
  8
MyLines
100
AcDbLine
 10
222.37721021611003
 20
190.9875
 30
0.0
 11
221.55206286836935
 21
191.8125
 31
0.0
  0
LINE
  5
1EC
330
17
100
AcDbEntity
  8
MyLines
100
AcDbLine
 10
221.55206286836935
 20
191.8125
 30
0.0
 11
219.48919449901769
 21
191.8125
 31
0.0
  0
LINE
  5
1ED
330
17
100
AcDbEntity
  8
MyLines
100
AcDbLine
 10
219.48919449901769
 20
191.8125
 30
0.0
 11
219.07662082514736
 21
191.4
 31
0.0
  0
LINE
  5
1EE
330
17
100
AcDbEntity
  8
MyLines
100
AcDbLine
 10
219.07662082514736
 20
191.4
 30
0.0
 11
219.07662082514736
 21
157.575
 31
0.0
  0
LINE
  5
1EF
330
17
100
AcDbEntity
  8
MyLines
100
AcDbLine
 10
219.07662082514736
 20
157.575
 30
0.0
 11
218.664047151277
 21
157.1625
 31
0.0
  0
LINE
  5
1F0
330
17
100
AcDbEntity
  8
MyLines
100
AcDbLine
 10
218.664047151277
 20
157.1625
 30
0.0
 11
218.664047151277
 21
124.1625
 31
0.0
  0
LINE
  5
1F1
330
17
100
AcDbEntity
  8
MyLines
100
AcDbLine
 10
218.664047151277
 20
124.1625
 30
0.0
 11
218.25147347740668
 21
123.75
 31
0.0
  0
LINE
  5
1F2
330
17
100
AcDbEntity
  8
MyLines
100
AcDbLine
 10
218.25147347740668
 20
123.75
 30
0.0
 11
218.664047151277
 21
123.3375
 31
0.0
  0
LINE
  5
1F3
330
17
100
AcDbEntity
  8
MyLines
100
AcDbLine
 10
218.664047151277
 20
123.3375
 30
0.0
 11
218.664047151277
 21
122.925
 31
0.0
  0
LINE
  5
1F4
330
17
100
AcDbEntity
  8
MyLines
100
AcDbLine
 10
218.664047151277
 20
122.925
 30
0.0
 11
218.25147347740668
 21
122.5125
 31
0.0
  0
LINE
  5
1F5
330
17
100
AcDbEntity
  8
MyLines
100
AcDbLine
 10
218.25147347740668
 20
122.5125
 30
0.0
 11
218.25147347740668
 21
92.8125
 31
0.0
  0
LINE
  5
1F6
330
17
100
AcDbEntity
  8
MyLines
100
AcDbLine
 10
218.25147347740668
 20
92.8125
 30
0.0
 11
217.83889980353635
 21
92.4
 31
0.0
  0
LINE
  5
1F7
330
17
100
AcDbEntity
  8
MyLines
100
AcDbLine
 10
217.83889980353635
 20
92.4
 30
0.0
 11
218.25147347740668
 21
91.9875
 31
0.0
  0
LINE
  5
1F8
330
17
100
AcDbEntity
  8
MyLines
100
AcDbLine
 10
218.25147347740668
 20
91.9875
 30
0.0
 11
218.25147347740668
 21
90.3375
 31
0.0
  0
LINE
  5
1F9
330
17
100
AcDbEntity
  8
MyLines
100
AcDbLine
 10
218.25147347740668
 20
90.3375
 30
0.0
 11
217.83889980353635
 21
89.925
 31
0.0
  0
LINE
  5
1FA
330
17
100
AcDbEntity
  8
MyLines
100
AcDbLine
 10
217.83889980353635
 20
89.925
 30
0.0
 11
217.83889980353635
 21
41.25
 31
0.0
  0
LINE
  5
1FB
330
17
100
AcDbEntity
  8
MyLines
100
AcDbLine
 10
217.83889980353635
 20
41.25
 30
0.0
 11
217.42632612966602
 21
40.8375
 31
0.0
  0
LINE
  5
1FC
330
17
100
AcDbEntity
  8
MyLines
100
AcDbLine
 10
217.42632612966602
 20
40.8375
 30
0.0
 11
217.42632612966602
 21
19.8
 31
0.0
  0
LINE
  5
1FD
330
17
100
AcDbEntity
  8
MyLines
100
AcDbLine
 10
206.69941060903733
 20
19.3875
 30
0.0
 11
207.11198428290766
 21
18.975
 31
0.0
  0
LINE
  5
1FE
330
17
100
AcDbEntity
  8
MyLines
100
AcDbLine
 10
207.11198428290766
 20
18.975
 30
0.0
 11
212.06286836935166
 21
18.975
 31
0.0
  0
LINE
  5
1FF
330
17
100
AcDbEntity
  8
MyLines
100
AcDbLine
 10
212.06286836935166
 20
18.975
 30
0.0
 11
212.88801571709234
 21
19.8
 31
0.0
  0
LINE
  5
200
330
17
100
AcDbEntity
  8
MyLines
100
AcDbLine
 10
212.88801571709234
 20
19.8
 30
0.0
 11
212.88801571709234
 21
45.7875
 31
0.0
  0
LINE
  5
201
330
17
100
AcDbEntity
  8
MyLines
100
AcDbLine
 10
212.88801571709234
 20
45.7875
 30
0.0
 11
213.30058939096267
 21
46.2
 31
0.0
  0
LINE
  5
202
330
17
100
AcDbEntity
  8
MyLines
100
AcDbLine
 10
213.30058939096267
 20
46.2
 30
0.0
 11
213.30058939096267
 21
80.85
 31
0.0
  0
LINE
  5
203
330
17
100
AcDbEntity
  8
MyLines
100
AcDbLine
 10
213.30058939096267
 20
80.85
 30
0.0
 11
213.713163064833
 21
81.2625
 31
0.0
  0
LINE
  5
204
330
17
100
AcDbEntity
  8
MyLines
100
AcDbLine
 10
213.713163064833
 20
81.2625
 30
0.0
 11
213.30058939096267
 21
81.675
 31
0.0
  0
LINE
  5
205
330
17
100
AcDbEntity
  8
MyLines
100
AcDbLine
 10
213.30058939096267
 20
81.675
 30
0.0
 11
213.30058939096267
 21
82.0875
 31
0.0
  0
LINE
  5
206
330
17
100
AcDbEntity
  8
MyLines
100
AcDbLine
 10
213.30058939096267
 20
82.0875
 30
0.0
 11
213.713163064833
 21
82.5
 31
0.0
  0
LINE
  5
207
330
17
100
AcDbEntity
  8
MyLines
100
AcDbLine
 10
213.713163064833
 20
82.5
 30
0.0
 11
213.713163064833
 21
82.9125
 31
0.0
  0
LINE
  5
208
330
17
100
AcDbEntity
  8
MyLines
100
AcDbLine
 10
213.713163064833
 20
82.9125
 30
0.0
 11
213.30058939096267
 21
83.325
 31
0.0
  0
LINE
  5
209
330
17
100
AcDbEntity
  8
MyLines
100
AcDbLine
 10
213.30058939096267
 20
83.325
 30
0.0
 11
213.30058939096267
 21
84.15
 31
0.0
  0
LINE
  5
20A
330
17
100
AcDbEntity
  8
MyLines
100
AcDbLine
 10
213.30058939096267
 20
84.15
 30
0.0
 11
213.713163064833
 21
84.5625
 31
0.0
  0
LINE
  5
20B
330
17
100
AcDbEntity
  8
MyLines
100
AcDbLine
 10
213.713163064833
 20
84.5625
 30
0.0
 11
213.30058939096267
 21
84.975
 31
0.0
  0
LINE
  5
20C
330
17
100
AcDbEntity
  8
MyLines
100
AcDbLine
 10
213.30058939096267
 20
84.975
 30
0.0
 11
213.30058939096267
 21
85.3875
 31
0.0
  0
LINE
  5
20D
330
17
100
AcDbEntity
  8
MyLines
100
AcDbLine
 10
213.30058939096267
 20
85.3875
 30
0.0
 11
213.713163064833
 21
85.8
 31
0.0
  0
LINE
  5
20E
330
17
100
AcDbEntity
  8
MyLines
100
AcDbLine
 10
213.713163064833
 20
85.8
 30
0.0
 11
213.713163064833
 21
111.7875
 31
0.0
  0
LINE
  5
20F
330
17
100
AcDbEntity
  8
MyLines
100
AcDbLine
 10
213.713163064833
 20
111.7875
 30
0.0
 11
214.12573673870335
 21
112.2
 31
0.0
  0
LINE
  5
210
330
17
100
AcDbEntity
  8
MyLines
100
AcDbLine
 10
214.12573673870335
 20
112.2
 30
0.0
 11
214.12573673870335
 21
114.675
 31
0.0
  0
LINE
  5
211
330
17
100
AcDbEntity
  8
MyLines
100
AcDbLine
 10
214.12573673870335
 20
114.675
 30
0.0
 11
213.713163064833
 21
115.0875
 31
0.0
  0
LINE
  5
212
330
17
100
AcDbEntity
  8
MyLines
100
AcDbLine
 10
213.713163064833
 20
115.0875
 30
0.0
 11
213.713163064833
 21
115.9125
 31
0.0
  0
LINE
  5
213
330
17
100
AcDbEntity
  8
MyLines
100
AcDbLine
 10
213.713163064833
 20
115.9125
 30
0.0
 11
214.12573673870335
 21
116.325
 31
0.0
  0
LINE
  5
214
330
17
100
AcDbEntity
  8
MyLines
100
AcDbLine
 10
214.12573673870335
 20
116.325
 30
0.0
 11
214.12573673870335
 21
136.95
 31
0.0
  0
LINE
  5
215
330
17
100
AcDbEntity
  8
MyLines
100
AcDbLine
 10
214.12573673870335
 20
136.95
 30
0.0
 11
214.53831041257368
 21
137.3625
 31
0.0
  0
LINE
  5
216
330
17
100
AcDbEntity
  8
MyLines
100
AcDbLine
 10
214.53831041257368
 20
137.3625
 30
0.0
 11
214.53831041257368
 21
138.1875
 31
0.0
  0
LINE
  5
217
330
17
100
AcDbEntity
  8
MyLines
100
AcDbLine
 10
214.53831041257368
 20
138.1875
 30
0.0
 11
214.12573673870335
 21
138.6
 31
0.0
  0
LINE
  5
218
330
17
100
AcDbEntity
  8
MyLines
100
AcDbLine
 10
214.12573673870335
 20
138.6
 30
0.0
 11
214.12573673870335
 21
142.3125
 31
0.0
  0
LINE
  5
219
330
17
100
AcDbEntity
  8
MyLines
100
AcDbLine
 10
214.12573673870335
 20
142.3125
 30
0.0
 11
214.53831041257368
 21
142.725
 31
0.0
  0
LINE
  5
21A
330
17
100
AcDbEntity
  8
MyLines
100
AcDbLine
 10
214.53831041257368
 20
142.725
 30
0.0
 11
214.53831041257368
 21
143.1375
 31
0.0
  0
LINE
  5
21B
330
17
100
AcDbEntity
  8
MyLines
100
AcDbLine
 10
214.53831041257368
 20
143.1375
 30
0.0
 11
214.12573673870335
 21
143.55
 31
0.0
  0
LINE
  5
21C
330
17
100
AcDbEntity
  8
MyLines
100
AcDbLine
 10
214.12573673870335
 20
143.55
 30
0.0
 11
214.12573673870335
 21
143.9625
 31
0.0
  0
LINE
  5
21D
330
17
100
AcDbEntity
  8
MyLines
100
AcDbLine
 10
214.12573673870335
 20
143.9625
 30
0.0
 11
214.53831041257368
 21
144.375
 31
0.0
  0
LINE
  5
21E
330
17
100
AcDbEntity
  8
MyLines
100
AcDbLine
 10
214.53831041257368
 20
144.375
 30
0.0
 11
214.53831041257368
 21
169.125
 31
0.0
  0
LINE
  5
21F
330
17
100
AcDbEntity
  8
MyLines
100
AcDbLine
 10
214.53831041257368
 20
169.125
 30
0.0
 11
214.950884086444
 21
169.5375
 31
0.0
  0
LINE
  5
220
330
17
100
AcDbEntity
  8
MyLines
100
AcDbLine
 10
214.950884086444
 20
169.5375
 30
0.0
 11
214.950884086444
 21
169.95
 31
0.0
  0
LINE
  5
221
330
17
100
AcDbEntity
  8
MyLines
100
AcDbLine
 10
214.950884086444
 20
169.95
 30
0.0
 11
214.53831041257368
 21
170.3625
 31
0.0
  0
LINE
  5
222
330
17
100
AcDbEntity
  8
MyLines
100
AcDbLine
 10
214.53831041257368
 20
170.3625
 30
0.0
 11
214.53831041257368
 21
171.6
 31
0.0
  0
LINE
  5
223
330
17
100
AcDbEntity
  8
MyLines
100
AcDbLine
 10
214.53831041257368
 20
171.6
 30
0.0
 11
214.950884086444
 21
172.0125
 31
0.0
  0
LINE
  5
224
330
17
100
AcDbEntity
  8
MyLines
100
AcDbLine
 10
214.950884086444
 20
172.0125
 30
0.0
 11
214.950884086444
 21
174.4875
 31
0.0
  0
LINE
  5
225
330
17
100
AcDbEntity
  8
MyLines
100
AcDbLine
 10
214.950884086444
 20
174.4875
 30
0.0
 11
214.53831041257368
 21
174.9
 31
0.0
  0
LINE
  5
226
330
17
100
AcDbEntity
  8
MyLines
100
AcDbLine
 10
214.53831041257368
 20
174.9
 30
0.0
 11
214.53831041257368
 21
176.9625
 31
0.0
  0
LINE
  5
227
330
17
100
AcDbEntity
  8
MyLines
100
AcDbLine
 10
214.53831041257368
 20
176.9625
 30
0.0
 11
214.950884086444
 21
177.375
 31
0.0
  0
LINE
  5
228
330
17
100
AcDbEntity
  8
MyLines
100
AcDbLine
 10
214.950884086444
 20
177.375
 30
0.0
 11
214.950884086444
 21
180.2625
 31
0.0
  0
LINE
  5
229
330
17
100
AcDbEntity
  8
MyLines
100
AcDbLine
 10
214.950884086444
 20
180.2625
 30
0.0
 11
214.53831041257368
 21
180.675
 31
0.0
  0
LINE
  5
22A
330
17
100
AcDbEntity
  8
MyLines
100
AcDbLine
 10
214.53831041257368
 20
180.675
 30
0.0
 11
214.53831041257368
 21
181.5
 31
0.0
  0
LINE
  5
22B
330
17
100
AcDbEntity
  8
MyLines
100
AcDbLine
 10
214.53831041257368
 20
181.5
 30
0.0
 11
214.950884086444
 21
181.9125
 31
0.0
  0
LINE
  5
22C
330
17
100
AcDbEntity
  8
MyLines
100
AcDbLine
 10
214.950884086444
 20
181.9125
 30
0.0
 11
214.950884086444
 21
190.575
 31
0.0
  0
LINE
  5
22D
330
17
100
AcDbEntity
  8
MyLines
100
AcDbLine
 10
214.950884086444
 20
190.575
 30
0.0
 11
214.53831041257368
 21
190.9875
 31
0.0
  0
LINE
  5
22E
330
17
100
AcDbEntity
  8
MyLines
100
AcDbLine
 10
214.53831041257368
 20
190.9875
 30
0.0
 11
214.53831041257368
 21
191.4
 31
0.0
  0
LINE
  5
22F
330
17
100
AcDbEntity
  8
MyLines
100
AcDbLine
 10
214.53831041257368
 20
191.4
 30
0.0
 11
214.12573673870335
 21
191.8125
 31
0.0
  0
LINE
  5
230
330
17
100
AcDbEntity
  8
MyLines
100
AcDbLine
 10
214.12573673870335
 20
191.8125
 30
0.0
 11
209.17485265225932
 21
191.8125
 31
0.0
  0
LINE
  5
231
330
17
100
AcDbEntity
  8
MyLines
100
AcDbLine
 10
209.17485265225932
 20
191.8125
 30
0.0
 11
208.762278978389
 21
191.4
 31
0.0
  0
LINE
  5
232
330
17
100
AcDbEntity
  8
MyLines
100
AcDbLine
 10
208.762278978389
 20
191.4
 30
0.0
 11
208.762278978389
 21
177.7875
 31
0.0
  0
LINE
  5
233
330
17
100
AcDbEntity
  8
MyLines
100
AcDbLine
 10
208.762278978389
 20
177.7875
 30
0.0
 11
208.34970530451866
 21
177.375
 31
0.0
  0
LINE
  5
234
330
17
100
AcDbEntity
  8
MyLines
100
AcDbLine
 10
208.34970530451866
 20
177.375
 30
0.0
 11
208.762278978389
 21
176.9625
 31
0.0
  0
LINE
  5
235
330
17
100
AcDbEntity
  8
MyLines
100
AcDbLine
 10
208.762278978389
 20
176.9625
 30
0.0
 11
208.762278978389
 21
172.425
 31
0.0
  0
LINE
  5
236
330
17
100
AcDbEntity
  8
MyLines
100
AcDbLine
 10
208.762278978389
 20
172.425
 30
0.0
 11
208.34970530451866
 21
172.0125
 31
0.0
  0
LINE
  5
237
330
17
100
AcDbEntity
  8
MyLines
100
AcDbLine
 10
208.34970530451866
 20
172.0125
 30
0.0
 11
208.34970530451866
 21
141.4875
 31
0.0
  0
LINE
  5
238
330
17
100
AcDbEntity
  8
MyLines
100
AcDbLine
 10
208.34970530451866
 20
141.4875
 30
0.0
 11
207.93713163064834
 21
141.075
 31
0.0
  0
LINE
  5
239
330
17
100
AcDbEntity
  8
MyLines
100
AcDbLine
 10
207.93713163064834
 20
141.075
 30
0.0
 11
207.93713163064834
 21
139.425
 31
0.0
  0
LINE
  5
23A
330
17
100
AcDbEntity
  8
MyLines
100
AcDbLine
 10
207.93713163064834
 20
139.425
 30
0.0
 11
208.34970530451866
 21
139.0125
 31
0.0
  0
LINE
  5
23B
330
17
100
AcDbEntity
  8
MyLines
100
AcDbLine
 10
208.34970530451866
 20
139.0125
 30
0.0
 11
207.93713163064834
 21
138.6
 31
0.0
  0
LINE
  5
23C
330
17
100
AcDbEntity
  8
MyLines
100
AcDbLine
 10
207.93713163064834
 20
138.6
 30
0.0
 11
207.93713163064834
 21
113.4375
 31
0.0
  0
LINE
  5
23D
330
17
100
AcDbEntity
  8
MyLines
100
AcDbLine
 10
207.93713163064834
 20
113.4375
 30
0.0
 11
207.52455795677798
 21
113.025
 31
0.0
  0
LINE
  5
23E
330
17
100
AcDbEntity
  8
MyLines
100
AcDbLine
 10
207.52455795677798
 20
113.025
 30
0.0
 11
207.52455795677798
 21
81.675
 31
0.0
  0
LINE
  5
23F
330
17
100
AcDbEntity
  8
MyLines
100
AcDbLine
 10
207.52455795677798
 20
81.675
 30
0.0
 11
207.11198428290766
 21
81.2625
 31
0.0
  0
LINE
  5
240
330
17
100
AcDbEntity
  8
MyLines
100
AcDbLine
 10
207.11198428290766
 20
81.2625
 30
0.0
 11
207.52455795677798
 21
80.85
 31
0.0
  0
LINE
  5
241
330
17
100
AcDbEntity
  8
MyLines
100
AcDbLine
 10
207.52455795677798
 20
80.85
 30
0.0
 11
207.52455795677798
 21
80.4375
 31
0.0
  0
LINE
  5
242
330
17
100
AcDbEntity
  8
MyLines
100
AcDbLine
 10
207.52455795677798
 20
80.4375
 30
0.0
 11
207.11198428290766
 21
80.025
 31
0.0
  0
LINE
  5
243
330
17
100
AcDbEntity
  8
MyLines
100
AcDbLine
 10
207.11198428290766
 20
80.025
 30
0.0
 11
207.11198428290766
 21
40.425
 31
0.0
  0
LINE
  5
244
330
17
100
AcDbEntity
  8
MyLines
100
AcDbLine
 10
207.11198428290766
 20
40.425
 30
0.0
 11
206.69941060903733
 21
40.0125
 31
0.0
  0
LINE
  5
245
330
17
100
AcDbEntity
  8
MyLines
100
AcDbLine
 10
206.69941060903733
 20
40.0125
 30
0.0
 11
206.69941060903733
 21
19.3875
 31
0.0
  0
ENDSEC
  0
SECTION
  2
OBJECTS
  0
DICTIONARY
  5
A
330
0
100
AcDbDictionary
281
1
  3
ACAD_COLOR
350
B
  3
ACAD_GROUP
350
C
  3
ACAD_LAYOUT
350
D
  3
ACAD_MATERIAL
350
E
  3
ACAD_MLEADERSTYLE
350
F
  3
ACAD_MLINESTYLE
350
10
  3
ACAD_PLOTSETTINGS
350
11
  3
ACAD_PLOTSTYLENAME
350
12
  3
ACAD_SCALELIST
350
14
  3
ACAD_TABLESTYLE
350
15
  3
ACAD_VISUALSTYLE
350
16
  0
DICTIONARY
  5
B
330
A
100
AcDbDictionary
281
1
  0
DICTIONARY
  5
C
330
A
100
AcDbDictionary
281
1
  0
DICTIONARY
  5
D
330
A
100
AcDbDictionary
281
1
  3
Model
350
1A
  3
Layout1
350
1E
  0
DICTIONARY
  5
E
330
A
100
AcDbDictionary
281
1
  3
ByBlock
350
1F
  3
ByLayer
350
20
  3
Global
350
21
  0
DICTIONARY
  5
F
330
A
100
AcDbDictionary
281
1
  3
Standard
350
2C
  0
DICTIONARY
  5
10
330
A
100
AcDbDictionary
281
1
  3
Standard
350
22
  0
DICTIONARY
  5
11
330
A
100
AcDbDictionary
281
1
  0
ACDBDICTIONARYWDFLT
  5
12
330
A
100
AcDbDictionary
281
1
  3
Normal
350
13
100
AcDbDictionaryWithDefault
340
13
  0
ACDBPLACEHOLDER
  5
13
330
12
  0
DICTIONARY
  5
14
330
A
100
AcDbDictionary
281
1
  0
DICTIONARY
  5
15
330
A
100
AcDbDictionary
281
1
  0
DICTIONARY
  5
16
330
A
100
AcDbDictionary
281
1
  0
LAYOUT
  5
1A
330
D
100
AcDbPlotSettings
  1

  2
Adobe PDF
  4
A4
  6

 40
3.175
 41
3.175
 42
3.175
 43
3.175
 44
209.91
 45
297.03
 46
0.0
 47
0.0
 48
0.0
 49
0.0
140
0.0
141
0.0
142
1.0
143
1.0
 70
1024
 72
0
 73
1
 74
5
  7

 75
16
 76
0
 77
2
 78
300
147
1.0
148
0.0
149
0.0
100
AcDbLayout
  1
Model
 70
1
 71
0
 10
-3.175
 20
-3.175
 11
293.857
 21
206.735
 12
0.0
 22
0.0
 32
0.0
 14
29.068
 24
20.356
 34
0.0
 15
261.614
 25
183.204
 35
0.0
146
0.0
 13
0.0
 23
0.0
 33
0.0
 16
1.0
 26
0.0
 36
0.0
 17
0.0
 27
1.0
 37
0.0
 76
1
330
17
  0
LAYOUT
  5
1E
330
D
100
AcDbPlotSettings
  1

  2
Adobe PDF
  4
A4
  6

 40
3.175
 41
3.175
 42
3.175
 43
3.175
 44
209.91
 45
297.03
 46
0.0
 47
0.0
 48
0.0
 49
0.0
140
0.0
141
0.0
142
1.0
143
1.0
 70
0
 72
0
 73
1
 74
5
  7

 75
16
 76
0
 77
2
 78
300
147
1.0
148
0.0
149
0.0
100
AcDbLayout
  1
Layout1
 70
1
 71
1
 10
-3.175
 20
-3.175
 11
293.857
 21
206.735
 12
0.0
 22
0.0
 32
0.0
 14
29.068
 24
20.356
 34
0.0
 15
261.614
 25
183.204
 35
0.0
146
0.0
 13
0.0
 23
0.0
 33
0.0
 16
1.0
 26
0.0
 36
0.0
 17
0.0
 27
1.0
 37
0.0
 76
1
330
1B
  0
MATERIAL
  5
1F
102
{ACAD_REACTORS
330
E
102
}
330
E
100
AcDbMaterial
  1
ByBlock
  2

 70
0
 40
1.0
 71
1
 41
1.0
 91
-1023410177
 42
1.0
 72
1
  3

 73
1
 74
1
 75
1
 44
0.5
 73
0
 45
1.0
 46
1.0
 77
1
  4

 78
1
 79
1
170
1
 48
1.0
171
1
  6

172
1
173
1
174
1
140
1.0
141
1.0
175
1
  7

176
1
177
1
178
1
143
1.0
179
1
  8

270
1
271
1
272
1
145
1.0
146
1.0
273
1
  9

274
1
275
1
276
1
 42
1.0
 72
1
  3

 73
1
 74
1
 75
1
 94
63
  0
MATERIAL
  5
20
102
{ACAD_REACTORS
330
E
102
}
330
E
100
AcDbMaterial
  1
ByLayer
  2

 70
0
 40
1.0
 71
1
 41
1.0
 91
-1023410177
 42
1.0
 72
1
  3

 73
1
 74
1
 75
1
 44
0.5
 73
0
 45
1.0
 46
1.0
 77
1
  4

 78
1
 79
1
170
1
 48
1.0
171
1
  6

172
1
173
1
174
1
140
1.0
141
1.0
175
1
  7

176
1
177
1
178
1
143
1.0
179
1
  8

270
1
271
1
272
1
145
1.0
146
1.0
273
1
  9

274
1
275
1
276
1
 42
1.0
 72
1
  3

 73
1
 74
1
 75
1
 94
63
  0
MATERIAL
  5
21
102
{ACAD_REACTORS
330
E
102
}
330
E
100
AcDbMaterial
  1
Global
  2

 70
0
 40
1.0
 71
1
 41
1.0
 91
-1023410177
 42
1.0
 72
1
  3

 73
1
 74
1
 75
1
 44
0.5
 73
0
 45
1.0
 46
1.0
 77
1
  4

 78
1
 79
1
170
1
 48
1.0
171
1
  6

172
1
173
1
174
1
140
1.0
141
1.0
175
1
  7

176
1
177
1
178
1
143
1.0
179
1
  8

270
1
271
1
272
1
145
1.0
146
1.0
273
1
  9

274
1
275
1
276
1
 42
1.0
 72
1
  3

 73
1
 74
1
 75
1
 94
63
  0
MLINESTYLE
  5
22
102
{ACAD_REACTORS
330
10
102
}
330
10
100
AcDbMlineStyle
  2
Standard
 70
0
  3

 62
256
 51
90.0
 52
90.0
 71
2
 49
0.5
 62
256
  6
BYLAYER
 49
-0.5
 62
256
  6
BYLAYER
  0
MLEADERSTYLE
  5
2C
102
{ACAD_REACTORS
330
F
102
}
330
F
100
AcDbMLeaderStyle
179
2
170
2
171
1
172
0
 90
2
 40
0.0
 41
0.0
173
1
 91
-1056964608
 92
-2
290
1
 42
2.0
291
1
 43
8.0
  3
Standard
 44
4.0
300

342
29
174
1
175
1
176
0
178
1
 93
-1056964608
 45
4.0
292
0
297
0
 46
4.0
 94
-1056964608
 47
1.0
 49
1.0
140
1.0
294
1
141
0.0
177
0
142
1.0
295
0
296
0
143
3.75
271
0
272
9
273
9
  0
ENDSEC
  0
EOF
