  0
SECTION
  2
HEADER
  9
$ACADVER
  1
AC1024
  9
$ACADMAINTVER
 70
6
  9
$DWGCODEPAGE
  3
ANSI_1252
  9
$LASTSAVEDBY
  1
ezdxf
  9
$INSBASE
 10
0.0
 20
0.0
 30
0.0
  9
$EXTMIN
 10
-100
 20
-100
 30
-100
  9
$EXTMAX
 10
100
 20
100
 30
100
  9
$LIMMIN
 10
0.0
 20
0.0
  9
$LIMMAX
 10
420.0
 20
297.0
  9
$ORTHOMODE
 70
0
  9
$REGENMODE
 70
1
  9
$FILLMODE
 70
1
  9
$QTEXTMODE
 70
0
  9
$MIRRTEXT
 70
1
  9
$LTSCALE
 40
1.0
  9
$ATTMODE
 70
1
  9
$TEXTSIZE
 40
2.5
  9
$TRACEWID
 40
1.0
  9
$TEXTSTYLE
  7
Standard
  9
$CLAYER
  8
0
  9
$CELTYPE
  6
ByLayer
  9
$CECOLOR
 62
256
  9
$CELTSCALE
 40
1.0
  9
$DISPSILH
 70
0
  9
$DIMSCALE
 40
1.0
  9
$DIMASZ
 40
2.5
  9
$DIMEXO
 40
0.625
  9
$DIMDLI
 40
3.75
  9
$DIMRND
 40
0.0
  9
$DIMDLE
 40
0.0
  9
$DIMEXE
 40
1.25
  9
$DIMTP
 40
0.0
  9
$DIMTM
 40
0.0
  9
$DIMTXT
 40
2.5
  9
$DIMCEN
 40
2.5
  9
$DIMTSZ
 40
0.0
  9
$DIMTOL
 70
0
  9
$DIMLIM
 70
0
  9
$DIMTIH
 70
0
  9
$DIMTOH
 70
0
  9
$DIMSE1
 70
0
  9
$DIMSE2
 70
0
  9
$DIMTAD
 70
1
  9
$DIMZIN
 70
8
  9
$DIMBLK
  1

  9
$DIMASO
 70
1
  9
$DIMSHO
 70
1
  9
$DIMPOST
  1

  9
$DIMAPOST
  1

  9
$DIMALT
 70
0
  9
$DIMALTD
 70
3
  9
$DIMALTF
 40
0.03937007874
  9
$DIMLFAC
 40
1.0
  9
$DIMTOFL
 70
1
  9
$DIMTVP
 40
0.0
  9
$DIMTIX
 70
0
  9
$DIMSOXD
 70
0
  9
$DIMSAH
 70
0
  9
$DIMBLK1
  1

  9
$DIMBLK2
  1

  9
$DIMSTYLE
  2
ISO-25
  9
$DIMCLRD
 70
0
  9
$DIMCLRE
 70
0
  9
$DIMCLRT
 70
0
  9
$DIMTFAC
 40
1.0
  9
$DIMGAP
 40
0.625
  9
$DIMJUST
 70
0
  9
$DIMSD1
 70
0
  9
$DIMSD2
 70
0
  9
$DIMTOLJ
 70
0
  9
$DIMTZIN
 70
8
  9
$DIMALTZ
 70
0
  9
$DIMALTTZ
 70
0
  9
$DIMUPT
 70
0
  9
$DIMDEC
 70
2
  9
$DIMTDEC
 70
2
  9
$DIMALTU
 70
2
  9
$DIMALTTD
 70
3
  9
$DIMTXSTY
  7
Standard
  9
$DIMAUNIT
 70
0
  9
$DIMADEC
 70
0
  9
$DIMALTRND
 40
0.0
  9
$DIMAZIN
 70
0
  9
$DIMDSEP
 70
44
  9
$DIMATFIT
 70
3
  9
$DIMFRAC
 70
0
  9
$DIMLDRBLK
  1

  9
$DIMLUNIT
 70
2
  9
$DIMLWD
 70
-2
  9
$DIMLWE
 70
-2
  9
$DIMTMOVE
 70
0
  9
$DIMFXL
 40
1.0
  9
$DIMFXLON
 70
0
  9
$DIMJOGANG
 40
0.785398163397
  9
$DIMTFILL
 70
0
  9
$DIMTFILLCLR
 70
0
  9
$DIMARCSYM
 70
0
  9
$DIMLTYPE
  6

  9
$DIMLTEX1
  6

  9
$DIMLTEX2
  6

  9
$DIMTXTDIRECTION
 70
0
  9
$LUNITS
 70
2
  9
$LUPREC
 70
4
  9
$SKETCHINC
 40
1.0
  9
$FILLETRAD
 40
10.0
  9
$AUNITS
 70
0
  9
$AUPREC
 70
2
  9
$MENU
  1
.
  9
$ELEVATION
 40
0.0
  9
$PELEVATION
 40
0.0
  9
$THICKNESS
 40
0.0
  9
$LIMCHECK
 70
0
  9
$CHAMFERA
 40
0.0
  9
$CHAMFERB
 40
0.0
  9
$CHAMFERC
 40
0.0
  9
$CHAMFERD
 40
0.0
  9
$SKPOLY
 70
0
  9
$TDCREATE
 40
2459269.4528125
  9
$TDUCREATE
 40
2458532.153996898
  9
$TDUPDATE
 40
2459269.452824074
  9
$TDUUPDATE
 40
2458532.1544311
  9
$TDINDWG
 40
0.0
  9
$TDUSRTIMER
 40
0.0
  9
$USRTIMER
 70
1
  9
$ANGBASE
 50
0.0
  9
$ANGDIR
 70
0
  9
$PDMODE
 70
0
  9
$PDSIZE
 40
0.0
  9
$PLINEWID
 40
0.0
  9
$SPLFRAME
 70
0
  9
$SPLINETYPE
 70
6
  9
$SPLINESEGS
 70
8
  9
$HANDSEED
  5
32B
  9
$SURFTAB1
 70
6
  9
$SURFTAB2
 70
6
  9
$SURFTYPE
 70
6
  9
$SURFU
 70
6
  9
$SURFV
 70
6
  9
$UCSBASE
  2

  9
$UCSNAME
  2

  9
$UCSORG
 10
0.0
 20
0.0
 30
0.0
  9
$UCSXDIR
 10
1.0
 20
0.0
 30
0.0
  9
$UCSYDIR
 10
0.0
 20
1.0
 30
0.0
  9
$UCSORTHOREF
  2

  9
$UCSORTHOVIEW
 70
0
  9
$UCSORGTOP
 10
0.0
 20
0.0
 30
0.0
  9
$UCSORGBOTTOM
 10
0.0
 20
0.0
 30
0.0
  9
$UCSORGLEFT
 10
0.0
 20
0.0
 30
0.0
  9
$UCSORGRIGHT
 10
0.0
 20
0.0
 30
0.0
  9
$UCSORGFRONT
 10
0.0
 20
0.0
 30
0.0
  9
$UCSORGBACK
 10
0.0
 20
0.0
 30
0.0
  9
$PUCSBASE
  2

  9
$PUCSNAME
  2

  9
$PUCSORG
 10
0.0
 20
0.0
 30
0.0
  9
$PUCSXDIR
 10
1.0
 20
0.0
 30
0.0
  9
$PUCSYDIR
 10
0.0
 20
1.0
 30
0.0
  9
$PUCSORTHOREF
  2

  9
$PUCSORTHOVIEW
 70
0
  9
$PUCSORGTOP
 10
0.0
 20
0.0
 30
0.0
  9
$PUCSORGBOTTOM
 10
0.0
 20
0.0
 30
0.0
  9
$PUCSORGLEFT
 10
0.0
 20
0.0
 30
0.0
  9
$PUCSORGRIGHT
 10
0.0
 20
0.0
 30
0.0
  9
$PUCSORGFRONT
 10
0.0
 20
0.0
 30
0.0
  9
$PUCSORGBACK
 10
0.0
 20
0.0
 30
0.0
  9
$USERI1
 70
0
  9
$USERI2
 70
0
  9
$USERI3
 70
0
  9
$USERI4
 70
0
  9
$USERI5
 70
0
  9
$USERR1
 40
0.0
  9
$USERR2
 40
0.0
  9
$USERR3
 40
0.0
  9
$USERR4
 40
0.0
  9
$USERR5
 40
0.0
  9
$WORLDVIEW
 70
1
  9
$SHADEDGE
 70
3
  9
$SHADEDIF
 70
70
  9
$TILEMODE
 70
1
  9
$MAXACTVP
 70
64
  9
$PINSBASE
 10
0.0
 20
0.0
 30
0.0
  9
$PLIMCHECK
 70
0
  9
$PEXTMIN
 10
1e+20
 20
1e+20
 30
1e+20
  9
$PEXTMAX
 10
-1e+20
 20
-1e+20
 30
-1e+20
  9
$PLIMMIN
 10
0.0
 20
0.0
  9
$PLIMMAX
 10
420.0
 20
297.0
  9
$UNITMODE
 70
0
  9
$VISRETAIN
 70
1
  9
$PLINEGEN
 70
0
  9
$PSLTSCALE
 70
1
  9
$TREEDEPTH
 70
3020
  9
$CMLSTYLE
  2
Standard
  9
$CMLJUST
 70
0
  9
$CMLSCALE
 40
20.0
  9
$PROXYGRAPHICS
 70
1
  9
$MEASUREMENT
 70
1
  9
$CELWEIGHT
370
-1
  9
$ENDCAPS
280
0
  9
$JOINSTYLE
280
0
  9
$LWDISPLAY
290
0
  9
$INSUNITS
 70
6
  9
$HYPERLINKBASE
  1

  9
$STYLESHEET
  1

  9
$XEDIT
290
1
  9
$CEPSNTYPE
380
0
  9
$PSTYLEMODE
290
1
  9
$FINGERPRINTGUID
  2
12DA7337-75EF-11EB-8A76-28C63F9D1731
  9
$VERSIONGUID
  2
1315E48D-75EF-11EB-A493-28C63F9D1731
  9
$EXTNAMES
290
1
  9
$PSVPSCALE
 40
0.0
  9
$OLESTARTUP
290
0
  9
$SORTENTS
280
127
  9
$INDEXCTL
280
0
  9
$HIDETEXT
280
1
  9
$XCLIPFRAME
280
2
  9
$HALOGAP
280
0
  9
$OBSCOLOR
 70
257
  9
$OBSLTYPE
280
0
  9
$INTERSECTIONDISPLAY
280
0
  9
$INTERSECTIONCOLOR
 70
257
  9
$DIMASSOC
280
2
  9
$PROJECTNAME
  1

  9
$CAMERADISPLAY
290
0
  9
$LENSLENGTH
 40
50.0
  9
$CAMERAHEIGHT
 40
0.0
  9
$STEPSPERSEC
 40
24.0
  9
$STEPSIZE
 40
100.0
  9
$3DDWFPREC
 40
2.0
  9
$PSOLWIDTH
 40
0.005
  9
$PSOLHEIGHT
 40
0.08
  9
$LOFTANG1
 40
1.570796326795
  9
$LOFTANG2
 40
1.570796326795
  9
$LOFTMAG1
 40
0.0
  9
$LOFTMAG2
 40
0.0
  9
$LOFTPARAM
 70
7
  9
$LOFTNORMALS
280
1
  9
$LATITUDE
 40
37.795
  9
$LONGITUDE
 40
-122.394
  9
$NORTHDIRECTION
 40
0.0
  9
$TIMEZONE
 70
-8000
  9
$LIGHTGLYPHDISPLAY
280
1
  9
$TILEMODELIGHTSYNCH
280
1
  9
$CMATERIAL
347
20
  9
$SOLIDHIST
280
0
  9
$SHOWHIST
280
1
  9
$DWFFRAME
280
2
  9
$DGNFRAME
280
2
  9
$REALWORLDSCALE
290
1
  9
$INTERFERECOLOR
 62
256
  9
$CSHADOW
280
0
  9
$SHADOWPLANELOCATION
 40
0.0
  0
ENDSEC
  0
SECTION
  2
CLASSES
  0
CLASS
  1
ACDBDICTIONARYWDFLT
  2
AcDbDictionaryWithDefault
  3
ObjectDBX Classes
 90
0
 91
0
280
0
281
0
  0
CLASS
  1
SUN
  2
AcDbSun
  3
SCENEOE
 90
1153
 91
0
280
0
281
0
  0
CLASS
  1
VISUALSTYLE
  2
AcDbVisualStyle
  3
ObjectDBX Classes
 90
4095
 91
0
280
0
281
0
  0
CLASS
  1
MATERIAL
  2
AcDbMaterial
  3
ObjectDBX Classes
 90
1153
 91
0
280
0
281
0
  0
CLASS
  1
SCALE
  2
AcDbScale
  3
ObjectDBX Classes
 90
1153
 91
0
280
0
281
0
  0
CLASS
  1
TABLESTYLE
  2
AcDbTableStyle
  3
ObjectDBX Classes
 90
4095
 91
0
280
0
281
0
  0
CLASS
  1
MLEADERSTYLE
  2
AcDbMLeaderStyle
  3
ACDB_MLEADERSTYLE_CLASS
 90
4095
 91
0
280
0
281
0
  0
CLASS
  1
DICTIONARYVAR
  2
AcDbDictionaryVar
  3
ObjectDBX Classes
 90
0
 91
0
280
0
281
0
  0
CLASS
  1
CELLSTYLEMAP
  2
AcDbCellStyleMap
  3
ObjectDBX Classes
 90
1152
 91
0
280
0
281
0
  0
CLASS
  1
MENTALRAYRENDERSETTINGS
  2
AcDbMentalRayRenderSettings
  3
SCENEOE
 90
1024
 91
0
280
0
281
0
  0
CLASS
  1
ACDBDETAILVIEWSTYLE
  2
AcDbDetailViewStyle
  3
ObjectDBX Classes
 90
1025
 91
0
280
0
281
0
  0
CLASS
  1
ACDBSECTIONVIEWSTYLE
  2
AcDbSectionViewStyle
  3
ObjectDBX Classes
 90
1025
 91
0
280
0
281
0
  0
CLASS
  1
RASTERVARIABLES
  2
AcDbRasterVariables
  3
ISM
 90
0
 91
0
280
0
281
0
  0
CLASS
  1
ACDBPLACEHOLDER
  2
AcDbPlaceHolder
  3
ObjectDBX Classes
 90
0
 91
0
280
0
281
0
  0
CLASS
  1
LAYOUT
  2
AcDbLayout
  3
ObjectDBX Classes
 90
0
 91
0
280
0
281
0
  0
ENDSEC
  0
SECTION
  2
TABLES
  0
TABLE
  2
VPORT
  5
8
330
0
100
AcDbSymbolTable
 70
1
  0
VPORT
  5
23
330
8
100
AcDbSymbolTableRecord
100
AcDbViewportTableRecord
  2
*Active
 70
0
 10
0.0
 20
0.0
 11
1.0
 21
1.0
 12
70.0
 22
50.0
 13
0.0
 23
0.0
 14
0.5
 24
0.5
 15
0.5
 25
0.5
 16
0.0
 26
0.0
 36
1.0
 17
0.0
 27
0.0
 37
0.0
 40
1.0
 41
1.34
 42
50.0
 43
0.0
 44
0.0
 50
0.0
 51
0.0
 71
0
 72
1000
 73
1
 74
3
 75
0
 76
0
 77
0
 78
0
281
0
 65
0
146
0.0
  0
ENDTAB
  0
TABLE
  2
LTYPE
  5
2
330
0
100
AcDbSymbolTable
 70
3
  0
LTYPE
  5
24
330
2
100
AcDbSymbolTableRecord
100
AcDbLinetypeTableRecord
  2
ByBlock
 70
0
  3

 72
65
 73
0
 40
0.0
  0
LTYPE
  5
25
330
2
100
AcDbSymbolTableRecord
100
AcDbLinetypeTableRecord
  2
ByLayer
 70
0
  3

 72
65
 73
0
 40
0.0
  0
LTYPE
  5
26
330
2
100
AcDbSymbolTableRecord
100
AcDbLinetypeTableRecord
  2
Continuous
 70
0
  3

 72
65
 73
0
 40
0.0
  0
ENDTAB
  0
TABLE
  2
LAYER
  5
1
330
0
100
AcDbSymbolTable
 70
3
  0
LAYER
  5
27
330
1
100
AcDbSymbolTableRecord
100
AcDbLayerTableRecord
  2
0
 70
0
 62
7
  6
Continuous
370
-3
390
13
347
21
  0
LAYER
  5
28
330
1
100
AcDbSymbolTableRecord
100
AcDbLayerTableRecord
  2
Defpoints
 70
0
 62
7
  6
Continuous
290
0
370
-3
390
13
347
21
  0
LAYER
  5
2D
330
1
100
AcDbSymbolTableRecord
100
AcDbLayerTableRecord
  2
Countour
 70
0
 62
2
  6
Continuous
370
-3
390
13
347
21
  0
ENDTAB
  0
TABLE
  2
STYLE
  5
5
330
0
100
AcDbSymbolTable
 70
1
  0
STYLE
  5
29
330
5
100
AcDbSymbolTableRecord
100
AcDbTextStyleTableRecord
  2
Standard
 70
0
 40
0.0
 41
1.0
 50
0.0
 71
0
 42
2.5
  3
txt
  4

  0
ENDTAB
  0
TABLE
  2
VIEW
  5
7
330
0
100
AcDbSymbolTable
 70
0
  0
ENDTAB
  0
TABLE
  2
UCS
  5
6
330
0
100
AcDbSymbolTable
 70
0
  0
ENDTAB
  0
TABLE
  2
APPID
  5
3
330
0
100
AcDbSymbolTable
 70
2
  0
APPID
  5
2A
330
3
100
AcDbSymbolTableRecord
100
AcDbRegAppTableRecord
  2
ACAD
 70
0
  0
APPID
  5
32A
330
3
100
AcDbSymbolTableRecord
100
AcDbRegAppTableRecord
  2
HATCHBACKGROUNDCOLOR
 70
0
  0
ENDTAB
  0
TABLE
  2
DIMSTYLE
  5
4
330
0
100
AcDbSymbolTable
 70
1
100
AcDbDimStyleTable
  0
DIMSTYLE
105
2B
330
4
100
AcDbSymbolTableRecord
100
AcDbDimStyleTableRecord
  2
Standard
 70
0
 40
1.0
 41
2.5
 42
0.625
 43
3.75
 44
1.25
 45
0.0
 46
0.0
 47
0.0
 48
0.0
 49
2.5
140
2.5
141
2.5
142
0.0
143
0.03937007874
144
1.0
145
0.0
146
1.0
147
0.625
148
0.0
 69
0
 70
0
 71
0
 72
0
 73
0
 74
0
 75
0
 76
0
 77
1
 78
8
 79
0
170
0
171
3
172
1
173
0
174
0
175
0
176
0
177
0
178
0
179
0
271
0
272
2
273
2
274
3
275
0
276
0
277
2
278
44
279
0
280
0
281
0
282
0
283
0
284
8
285
0
286
0
288
0
289
3
290
0
371
-2
372
-2
  0
ENDTAB
  0
TABLE
  2
BLOCK_RECORD
  5
9
330
0
100
AcDbSymbolTable
 70
2
  0
BLOCK_RECORD
  5
17
330
9
100
AcDbSymbolTableRecord
100
AcDbBlockTableRecord
  2
*Model_Space
340
1A
 70
0
280
1
281
0
  0
BLOCK_RECORD
  5
1B
330
9
100
AcDbSymbolTableRecord
100
AcDbBlockTableRecord
  2
*Paper_Space
340
1E
 70
0
280
1
281
0
  0
ENDTAB
  0
ENDSEC
  0
SECTION
  2
BLOCKS
  0
BLOCK
  5
18
330
17
100
AcDbEntity
  8
0
100
AcDbBlockBegin
  2
*Model_Space
 70
0
 10
0.0
 20
0.0
 30
0.0
  3
*Model_Space
  1

  0
ENDBLK
  5
19
330
17
100
AcDbEntity
  8
0
100
AcDbBlockEnd
  0
BLOCK
  5
1C
330
1B
100
AcDbEntity
  8
0
100
AcDbBlockBegin
  2
*Paper_Space
 70
0
 10
0.0
 20
0.0
 30
0.0
  3
*Paper_Space
  1

  0
ENDBLK
  5
1D
330
1B
100
AcDbEntity
  8
0
100
AcDbBlockEnd
  0
ENDSEC
  0
SECTION
  2
ENTITIES
  0
LINE
  5
2E
330
17
100
AcDbEntity
  8
MyLines
100
AcDbLine
 10
0.0
 20
0.0
 30
0.0
 11
0.0
 21
222.475
 31
0.0
  0
LINE
  5
2F
330
17
100
AcDbEntity
  8
MyLines
100
AcDbLine
 10
0.0
 20
222.475
 30
0.0
 11
279.74074074074076
 21
222.475
 31
0.0
  0
LINE
  5
30
330
17
100
AcDbEntity
  8
MyLines
100
AcDbLine
 10
279.74074074074076
 20
222.475
 30
0.0
 11
279.74074074074076
 21
0.0
 31
0.0
  0
LINE
  5
31
330
17
100
AcDbEntity
  8
MyLines
100
AcDbLine
 10
279.74074074074076
 20
0.0
 30
0.0
 11
0.0
 21
0.0
 31
0.0
  0
LINE
  5
32
330
17
100
AcDbEntity
  8
MyLines
100
AcDbLine
 10
70.51851851851852
 20
71.225
 30
0.0
 11
70.77777777777777
 21
70.95
 31
0.0
  0
LINE
  5
33
330
17
100
AcDbEntity
  8
MyLines
100
AcDbLine
 10
70.77777777777777
 20
70.95
 30
0.0
 11
75.44444444444444
 21
70.95
 31
0.0
  0
LINE
  5
34
330
17
100
AcDbEntity
  8
MyLines
100
AcDbLine
 10
75.44444444444444
 20
70.95
 30
0.0
 11
75.70370370370371
 21
71.225
 31
0.0
  0
LINE
  5
35
330
17
100
AcDbEntity
  8
MyLines
100
AcDbLine
 10
75.70370370370371
 20
71.225
 30
0.0
 11
82.18518518518519
 21
71.225
 31
0.0
  0
LINE
  5
36
330
17
100
AcDbEntity
  8
MyLines
100
AcDbLine
 10
82.18518518518519
 20
71.225
 30
0.0
 11
82.44444444444444
 21
71.5
 31
0.0
  0
LINE
  5
37
330
17
100
AcDbEntity
  8
MyLines
100
AcDbLine
 10
82.44444444444444
 20
71.5
 30
0.0
 11
87.62962962962963
 21
71.5
 31
0.0
  0
LINE
  5
38
330
17
100
AcDbEntity
  8
MyLines
100
AcDbLine
 10
87.62962962962963
 20
71.5
 30
0.0
 11
87.88888888888889
 21
71.775
 31
0.0
  0
LINE
  5
39
330
17
100
AcDbEntity
  8
MyLines
100
AcDbLine
 10
87.88888888888889
 20
71.775
 30
0.0
 11
93.85185185185185
 21
71.775
 31
0.0
  0
LINE
  5
3A
330
17
100
AcDbEntity
  8
MyLines
100
AcDbLine
 10
93.85185185185185
 20
71.775
 30
0.0
 11
94.11111111111111
 21
72.05
 31
0.0
  0
LINE
  5
3B
330
17
100
AcDbEntity
  8
MyLines
100
AcDbLine
 10
94.11111111111111
 20
72.05
 30
0.0
 11
100.33333333333333
 21
72.05
 31
0.0
  0
LINE
  5
3C
330
17
100
AcDbEntity
  8
MyLines
100
AcDbLine
 10
100.33333333333333
 20
72.05
 30
0.0
 11
100.5925925925926
 21
72.325
 31
0.0
  0
LINE
  5
3D
330
17
100
AcDbEntity
  8
MyLines
100
AcDbLine
 10
100.5925925925926
 20
72.325
 30
0.0
 11
106.55555555555556
 21
72.325
 31
0.0
  0
LINE
  5
3E
330
17
100
AcDbEntity
  8
MyLines
100
AcDbLine
 10
106.55555555555556
 20
72.325
 30
0.0
 11
106.81481481481481
 21
72.6
 31
0.0
  0
LINE
  5
3F
330
17
100
AcDbEntity
  8
MyLines
100
AcDbLine
 10
106.81481481481481
 20
72.6
 30
0.0
 11
112.25925925925925
 21
72.6
 31
0.0
  0
LINE
  5
40
330
17
100
AcDbEntity
  8
MyLines
100
AcDbLine
 10
112.25925925925925
 20
72.6
 30
0.0
 11
112.51851851851852
 21
72.875
 31
0.0
  0
LINE
  5
41
330
17
100
AcDbEntity
  8
MyLines
100
AcDbLine
 10
112.51851851851852
 20
72.875
 30
0.0
 11
118.74074074074075
 21
72.875
 31
0.0
  0
LINE
  5
42
330
17
100
AcDbEntity
  8
MyLines
100
AcDbLine
 10
118.74074074074075
 20
72.875
 30
0.0
 11
119.0
 21
73.15
 31
0.0
  0
LINE
  5
43
330
17
100
AcDbEntity
  8
MyLines
100
AcDbLine
 10
119.0
 20
73.15
 30
0.0
 11
125.74074074074075
 21
73.15
 31
0.0
  0
LINE
  5
44
330
17
100
AcDbEntity
  8
MyLines
100
AcDbLine
 10
125.74074074074075
 20
73.15
 30
0.0
 11
126.0
 21
73.425
 31
0.0
  0
LINE
  5
45
330
17
100
AcDbEntity
  8
MyLines
100
AcDbLine
 10
126.0
 20
73.425
 30
0.0
 11
134.55555555555554
 21
73.425
 31
0.0
  0
LINE
  5
46
330
17
100
AcDbEntity
  8
MyLines
100
AcDbLine
 10
134.55555555555554
 20
73.425
 30
0.0
 11
134.8148148148148
 21
73.7
 31
0.0
  0
LINE
  5
47
330
17
100
AcDbEntity
  8
MyLines
100
AcDbLine
 10
134.8148148148148
 20
73.7
 30
0.0
 11
143.88888888888889
 21
73.7
 31
0.0
  0
LINE
  5
48
330
17
100
AcDbEntity
  8
MyLines
100
AcDbLine
 10
143.88888888888889
 20
73.7
 30
0.0
 11
144.14814814814815
 21
73.975
 31
0.0
  0
LINE
  5
49
330
17
100
AcDbEntity
  8
MyLines
100
AcDbLine
 10
144.14814814814815
 20
73.975
 30
0.0
 11
154.25925925925927
 21
73.975
 31
0.0
  0
LINE
  5
4A
330
17
100
AcDbEntity
  8
MyLines
100
AcDbLine
 10
154.25925925925927
 20
73.975
 30
0.0
 11
154.5185185185185
 21
74.25
 31
0.0
  0
LINE
  5
4B
330
17
100
AcDbEntity
  8
MyLines
100
AcDbLine
 10
154.5185185185185
 20
74.25
 30
0.0
 11
165.40740740740742
 21
74.25
 31
0.0
  0
LINE
  5
4C
330
17
100
AcDbEntity
  8
MyLines
100
AcDbLine
 10
165.40740740740742
 20
74.25
 30
0.0
 11
165.66666666666666
 21
74.525
 31
0.0
  0
LINE
  5
4D
330
17
100
AcDbEntity
  8
MyLines
100
AcDbLine
 10
165.66666666666666
 20
74.525
 30
0.0
 11
178.88888888888889
 21
74.525
 31
0.0
  0
LINE
  5
4E
330
17
100
AcDbEntity
  8
MyLines
100
AcDbLine
 10
178.88888888888889
 20
74.525
 30
0.0
 11
179.14814814814815
 21
74.8
 31
0.0
  0
LINE
  5
4F
330
17
100
AcDbEntity
  8
MyLines
100
AcDbLine
 10
179.14814814814815
 20
74.8
 30
0.0
 11
193.40740740740742
 21
74.8
 31
0.0
  0
LINE
  5
50
330
17
100
AcDbEntity
  8
MyLines
100
AcDbLine
 10
193.40740740740742
 20
74.8
 30
0.0
 11
193.66666666666666
 21
75.075
 31
0.0
  0
LINE
  5
51
330
17
100
AcDbEntity
  8
MyLines
100
AcDbLine
 10
193.66666666666666
 20
75.075
 30
0.0
 11
204.8148148148148
 21
75.075
 31
0.0
  0
LINE
  5
52
330
17
100
AcDbEntity
  8
MyLines
100
AcDbLine
 10
204.8148148148148
 20
75.075
 30
0.0
 11
205.07407407407408
 21
75.35
 31
0.0
  0
LINE
  5
53
330
17
100
AcDbEntity
  8
MyLines
100
AcDbLine
 10
205.07407407407408
 20
75.35
 30
0.0
 11
213.62962962962962
 21
75.35
 31
0.0
  0
LINE
  5
54
330
17
100
AcDbEntity
  8
MyLines
100
AcDbLine
 10
213.62962962962962
 20
75.35
 30
0.0
 11
213.88888888888889
 21
75.625
 31
0.0
  0
LINE
  5
55
330
17
100
AcDbEntity
  8
MyLines
100
AcDbLine
 10
213.88888888888889
 20
75.625
 30
0.0
 11
221.66666666666666
 21
75.625
 31
0.0
  0
LINE
  5
56
330
17
100
AcDbEntity
  8
MyLines
100
AcDbLine
 10
221.66666666666666
 20
75.625
 30
0.0
 11
221.92592592592592
 21
75.9
 31
0.0
  0
LINE
  5
57
330
17
100
AcDbEntity
  8
MyLines
100
AcDbLine
 10
221.92592592592592
 20
75.9
 30
0.0
 11
224.25925925925927
 21
75.9
 31
0.0
  0
LINE
  5
58
330
17
100
AcDbEntity
  8
MyLines
100
AcDbLine
 10
224.25925925925927
 20
75.9
 30
0.0
 11
224.77777777777777
 21
76.45
 31
0.0
  0
LINE
  5
59
330
17
100
AcDbEntity
  8
MyLines
100
AcDbLine
 10
224.77777777777777
 20
76.45
 30
0.0
 11
225.03703703703704
 21
76.45
 31
0.0
  0
LINE
  5
5A
330
17
100
AcDbEntity
  8
MyLines
100
AcDbLine
 10
225.03703703703704
 20
76.45
 30
0.0
 11
225.8148148148148
 21
77.275
 31
0.0
  0
LINE
  5
5B
330
17
100
AcDbEntity
  8
MyLines
100
AcDbLine
 10
225.8148148148148
 20
77.275
 30
0.0
 11
225.8148148148148
 21
77.55
 31
0.0
  0
LINE
  5
5C
330
17
100
AcDbEntity
  8
MyLines
100
AcDbLine
 10
225.8148148148148
 20
77.55
 30
0.0
 11
226.33333333333334
 21
78.1
 31
0.0
  0
LINE
  5
5D
330
17
100
AcDbEntity
  8
MyLines
100
AcDbLine
 10
226.33333333333334
 20
78.1
 30
0.0
 11
226.33333333333334
 21
78.65
 31
0.0
  0
LINE
  5
5E
330
17
100
AcDbEntity
  8
MyLines
100
AcDbLine
 10
226.33333333333334
 20
78.65
 30
0.0
 11
226.59259259259258
 21
78.925
 31
0.0
  0
LINE
  5
5F
330
17
100
AcDbEntity
  8
MyLines
100
AcDbLine
 10
226.59259259259258
 20
78.925
 30
0.0
 11
226.59259259259258
 21
79.2
 31
0.0
  0
LINE
  5
60
330
17
100
AcDbEntity
  8
MyLines
100
AcDbLine
 10
226.59259259259258
 20
79.2
 30
0.0
 11
226.85185185185185
 21
79.475
 31
0.0
  0
LINE
  5
61
330
17
100
AcDbEntity
  8
MyLines
100
AcDbLine
 10
226.85185185185185
 20
79.475
 30
0.0
 11
226.85185185185185
 21
80.025
 31
0.0
  0
LINE
  5
62
330
17
100
AcDbEntity
  8
MyLines
100
AcDbLine
 10
226.85185185185185
 20
80.025
 30
0.0
 11
227.11111111111111
 21
80.3
 31
0.0
  0
LINE
  5
63
330
17
100
AcDbEntity
  8
MyLines
100
AcDbLine
 10
227.11111111111111
 20
80.3
 30
0.0
 11
227.11111111111111
 21
80.575
 31
0.0
  0
LINE
  5
64
330
17
100
AcDbEntity
  8
MyLines
100
AcDbLine
 10
227.11111111111111
 20
80.575
 30
0.0
 11
227.37037037037038
 21
80.85
 31
0.0
  0
LINE
  5
65
330
17
100
AcDbEntity
  8
MyLines
100
AcDbLine
 10
227.37037037037038
 20
80.85
 30
0.0
 11
227.37037037037038
 21
81.675
 31
0.0
  0
LINE
  5
66
330
17
100
AcDbEntity
  8
MyLines
100
AcDbLine
 10
227.37037037037038
 20
81.675
 30
0.0
 11
227.62962962962962
 21
81.95
 31
0.0
  0
LINE
  5
67
330
17
100
AcDbEntity
  8
MyLines
100
AcDbLine
 10
227.62962962962962
 20
81.95
 30
0.0
 11
227.62962962962962
 21
82.5
 31
0.0
  0
LINE
  5
68
330
17
100
AcDbEntity
  8
MyLines
100
AcDbLine
 10
227.62962962962962
 20
82.5
 30
0.0
 11
227.88888888888889
 21
82.775
 31
0.0
  0
LINE
  5
69
330
17
100
AcDbEntity
  8
MyLines
100
AcDbLine
 10
227.88888888888889
 20
82.775
 30
0.0
 11
227.88888888888889
 21
83.325
 31
0.0
  0
LINE
  5
6A
330
17
100
AcDbEntity
  8
MyLines
100
AcDbLine
 10
227.88888888888889
 20
83.325
 30
0.0
 11
228.14814814814815
 21
83.6
 31
0.0
  0
LINE
  5
6B
330
17
100
AcDbEntity
  8
MyLines
100
AcDbLine
 10
228.14814814814815
 20
83.6
 30
0.0
 11
228.14814814814815
 21
84.15
 31
0.0
  0
LINE
  5
6C
330
17
100
AcDbEntity
  8
MyLines
100
AcDbLine
 10
228.14814814814815
 20
84.15
 30
0.0
 11
228.40740740740742
 21
84.425
 31
0.0
  0
LINE
  5
6D
330
17
100
AcDbEntity
  8
MyLines
100
AcDbLine
 10
228.40740740740742
 20
84.425
 30
0.0
 11
228.40740740740742
 21
85.25
 31
0.0
  0
LINE
  5
6E
330
17
100
AcDbEntity
  8
MyLines
100
AcDbLine
 10
228.40740740740742
 20
85.25
 30
0.0
 11
228.66666666666666
 21
85.525
 31
0.0
  0
LINE
  5
6F
330
17
100
AcDbEntity
  8
MyLines
100
AcDbLine
 10
228.66666666666666
 20
85.525
 30
0.0
 11
228.66666666666666
 21
86.075
 31
0.0
  0
LINE
  5
70
330
17
100
AcDbEntity
  8
MyLines
100
AcDbLine
 10
228.66666666666666
 20
86.075
 30
0.0
 11
228.92592592592592
 21
86.35
 31
0.0
  0
LINE
  5
71
330
17
100
AcDbEntity
  8
MyLines
100
AcDbLine
 10
228.92592592592592
 20
86.35
 30
0.0
 11
228.92592592592592
 21
87.175
 31
0.0
  0
LINE
  5
72
330
17
100
AcDbEntity
  8
MyLines
100
AcDbLine
 10
228.92592592592592
 20
87.175
 30
0.0
 11
229.1851851851852
 21
87.45
 31
0.0
  0
LINE
  5
73
330
17
100
AcDbEntity
  8
MyLines
100
AcDbLine
 10
229.1851851851852
 20
87.45
 30
0.0
 11
229.1851851851852
 21
88.0
 31
0.0
  0
LINE
  5
74
330
17
100
AcDbEntity
  8
MyLines
100
AcDbLine
 10
229.1851851851852
 20
88.0
 30
0.0
 11
229.44444444444446
 21
88.275
 31
0.0
  0
LINE
  5
75
330
17
100
AcDbEntity
  8
MyLines
100
AcDbLine
 10
229.44444444444446
 20
88.275
 30
0.0
 11
229.44444444444446
 21
88.825
 31
0.0
  0
LINE
  5
76
330
17
100
AcDbEntity
  8
MyLines
100
AcDbLine
 10
229.44444444444446
 20
88.825
 30
0.0
 11
229.7037037037037
 21
89.1
 31
0.0
  0
LINE
  5
77
330
17
100
AcDbEntity
  8
MyLines
100
AcDbLine
 10
229.7037037037037
 20
89.1
 30
0.0
 11
229.7037037037037
 21
89.925
 31
0.0
  0
LINE
  5
78
330
17
100
AcDbEntity
  8
MyLines
100
AcDbLine
 10
229.7037037037037
 20
89.925
 30
0.0
 11
229.96296296296296
 21
90.2
 31
0.0
  0
LINE
  5
79
330
17
100
AcDbEntity
  8
MyLines
100
AcDbLine
 10
229.96296296296296
 20
90.2
 30
0.0
 11
229.96296296296296
 21
91.025
 31
0.0
  0
LINE
  5
7A
330
17
100
AcDbEntity
  8
MyLines
100
AcDbLine
 10
229.96296296296296
 20
91.025
 30
0.0
 11
230.22222222222223
 21
91.3
 31
0.0
  0
LINE
  5
7B
330
17
100
AcDbEntity
  8
MyLines
100
AcDbLine
 10
230.22222222222223
 20
91.3
 30
0.0
 11
230.22222222222223
 21
91.85
 31
0.0
  0
LINE
  5
7C
330
17
100
AcDbEntity
  8
MyLines
100
AcDbLine
 10
230.22222222222223
 20
91.85
 30
0.0
 11
230.4814814814815
 21
92.125
 31
0.0
  0
LINE
  5
7D
330
17
100
AcDbEntity
  8
MyLines
100
AcDbLine
 10
230.4814814814815
 20
92.125
 30
0.0
 11
230.4814814814815
 21
92.95
 31
0.0
  0
LINE
  5
7E
330
17
100
AcDbEntity
  8
MyLines
100
AcDbLine
 10
230.4814814814815
 20
92.95
 30
0.0
 11
230.74074074074073
 21
93.225
 31
0.0
  0
LINE
  5
7F
330
17
100
AcDbEntity
  8
MyLines
100
AcDbLine
 10
230.74074074074073
 20
93.225
 30
0.0
 11
230.74074074074073
 21
94.05
 31
0.0
  0
LINE
  5
80
330
17
100
AcDbEntity
  8
MyLines
100
AcDbLine
 10
230.74074074074073
 20
94.05
 30
0.0
 11
231.0
 21
94.325
 31
0.0
  0
LINE
  5
81
330
17
100
AcDbEntity
  8
MyLines
100
AcDbLine
 10
231.0
 20
94.325
 30
0.0
 11
231.0
 21
95.15
 31
0.0
  0
LINE
  5
82
330
17
100
AcDbEntity
  8
MyLines
100
AcDbLine
 10
231.0
 20
95.15
 30
0.0
 11
231.25925925925927
 21
95.425
 31
0.0
  0
LINE
  5
83
330
17
100
AcDbEntity
  8
MyLines
100
AcDbLine
 10
231.25925925925927
 20
95.425
 30
0.0
 11
231.25925925925927
 21
96.25
 31
0.0
  0
LINE
  5
84
330
17
100
AcDbEntity
  8
MyLines
100
AcDbLine
 10
231.25925925925927
 20
96.25
 30
0.0
 11
231.5185185185185
 21
96.525
 31
0.0
  0
LINE
  5
85
330
17
100
AcDbEntity
  8
MyLines
100
AcDbLine
 10
231.5185185185185
 20
96.525
 30
0.0
 11
231.5185185185185
 21
97.35
 31
0.0
  0
LINE
  5
86
330
17
100
AcDbEntity
  8
MyLines
100
AcDbLine
 10
231.5185185185185
 20
97.35
 30
0.0
 11
231.77777777777777
 21
97.625
 31
0.0
  0
LINE
  5
87
330
17
100
AcDbEntity
  8
MyLines
100
AcDbLine
 10
231.77777777777777
 20
97.625
 30
0.0
 11
231.77777777777777
 21
98.175
 31
0.0
  0
LINE
  5
88
330
17
100
AcDbEntity
  8
MyLines
100
AcDbLine
 10
231.77777777777777
 20
98.175
 30
0.0
 11
232.03703703703704
 21
98.45
 31
0.0
  0
LINE
  5
89
330
17
100
AcDbEntity
  8
MyLines
100
AcDbLine
 10
232.03703703703704
 20
98.45
 30
0.0
 11
232.03703703703704
 21
99.275
 31
0.0
  0
LINE
  5
8A
330
17
100
AcDbEntity
  8
MyLines
100
AcDbLine
 10
232.03703703703704
 20
99.275
 30
0.0
 11
232.2962962962963
 21
99.55
 31
0.0
  0
LINE
  5
8B
330
17
100
AcDbEntity
  8
MyLines
100
AcDbLine
 10
232.2962962962963
 20
99.55
 30
0.0
 11
232.2962962962963
 21
100.375
 31
0.0
  0
LINE
  5
8C
330
17
100
AcDbEntity
  8
MyLines
100
AcDbLine
 10
232.2962962962963
 20
100.375
 30
0.0
 11
232.55555555555554
 21
100.65
 31
0.0
  0
LINE
  5
8D
330
17
100
AcDbEntity
  8
MyLines
100
AcDbLine
 10
232.55555555555554
 20
100.65
 30
0.0
 11
232.55555555555554
 21
101.75
 31
0.0
  0
LINE
  5
8E
330
17
100
AcDbEntity
  8
MyLines
100
AcDbLine
 10
232.55555555555554
 20
101.75
 30
0.0
 11
232.8148148148148
 21
102.025
 31
0.0
  0
LINE
  5
8F
330
17
100
AcDbEntity
  8
MyLines
100
AcDbLine
 10
232.8148148148148
 20
102.025
 30
0.0
 11
232.8148148148148
 21
102.575
 31
0.0
  0
LINE
  5
90
330
17
100
AcDbEntity
  8
MyLines
100
AcDbLine
 10
232.8148148148148
 20
102.575
 30
0.0
 11
233.07407407407408
 21
102.85
 31
0.0
  0
LINE
  5
91
330
17
100
AcDbEntity
  8
MyLines
100
AcDbLine
 10
233.07407407407408
 20
102.85
 30
0.0
 11
233.07407407407408
 21
103.675
 31
0.0
  0
LINE
  5
92
330
17
100
AcDbEntity
  8
MyLines
100
AcDbLine
 10
233.07407407407408
 20
103.675
 30
0.0
 11
233.33333333333334
 21
103.95
 31
0.0
  0
LINE
  5
93
330
17
100
AcDbEntity
  8
MyLines
100
AcDbLine
 10
233.33333333333334
 20
103.95
 30
0.0
 11
233.33333333333334
 21
104.775
 31
0.0
  0
LINE
  5
94
330
17
100
AcDbEntity
  8
MyLines
100
AcDbLine
 10
233.33333333333334
 20
104.775
 30
0.0
 11
233.59259259259258
 21
105.05
 31
0.0
  0
LINE
  5
95
330
17
100
AcDbEntity
  8
MyLines
100
AcDbLine
 10
233.59259259259258
 20
105.05
 30
0.0
 11
233.59259259259258
 21
105.875
 31
0.0
  0
LINE
  5
96
330
17
100
AcDbEntity
  8
MyLines
100
AcDbLine
 10
233.59259259259258
 20
105.875
 30
0.0
 11
233.85185185185185
 21
106.15
 31
0.0
  0
LINE
  5
97
330
17
100
AcDbEntity
  8
MyLines
100
AcDbLine
 10
233.85185185185185
 20
106.15
 30
0.0
 11
233.85185185185185
 21
106.975
 31
0.0
  0
LINE
  5
98
330
17
100
AcDbEntity
  8
MyLines
100
AcDbLine
 10
233.85185185185185
 20
106.975
 30
0.0
 11
234.11111111111111
 21
107.25
 31
0.0
  0
LINE
  5
99
330
17
100
AcDbEntity
  8
MyLines
100
AcDbLine
 10
234.11111111111111
 20
107.25
 30
0.0
 11
234.11111111111111
 21
108.075
 31
0.0
  0
LINE
  5
9A
330
17
100
AcDbEntity
  8
MyLines
100
AcDbLine
 10
234.11111111111111
 20
108.075
 30
0.0
 11
234.37037037037038
 21
108.35
 31
0.0
  0
LINE
  5
9B
330
17
100
AcDbEntity
  8
MyLines
100
AcDbLine
 10
234.37037037037038
 20
108.35
 30
0.0
 11
234.37037037037038
 21
109.175
 31
0.0
  0
LINE
  5
9C
330
17
100
AcDbEntity
  8
MyLines
100
AcDbLine
 10
234.37037037037038
 20
109.175
 30
0.0
 11
234.62962962962962
 21
109.45
 31
0.0
  0
LINE
  5
9D
330
17
100
AcDbEntity
  8
MyLines
100
AcDbLine
 10
234.62962962962962
 20
109.45
 30
0.0
 11
234.62962962962962
 21
110.275
 31
0.0
  0
LINE
  5
9E
330
17
100
AcDbEntity
  8
MyLines
100
AcDbLine
 10
234.62962962962962
 20
110.275
 30
0.0
 11
234.88888888888889
 21
110.55
 31
0.0
  0
LINE
  5
9F
330
17
100
AcDbEntity
  8
MyLines
100
AcDbLine
 10
234.88888888888889
 20
110.55
 30
0.0
 11
234.88888888888889
 21
111.65
 31
0.0
  0
LINE
  5
A0
330
17
100
AcDbEntity
  8
MyLines
100
AcDbLine
 10
234.88888888888889
 20
111.65
 30
0.0
 11
235.14814814814815
 21
111.925
 31
0.0
  0
LINE
  5
A1
330
17
100
AcDbEntity
  8
MyLines
100
AcDbLine
 10
235.14814814814815
 20
111.925
 30
0.0
 11
235.14814814814815
 21
112.75
 31
0.0
  0
LINE
  5
A2
330
17
100
AcDbEntity
  8
MyLines
100
AcDbLine
 10
235.14814814814815
 20
112.75
 30
0.0
 11
235.40740740740742
 21
113.025
 31
0.0
  0
LINE
  5
A3
330
17
100
AcDbEntity
  8
MyLines
100
AcDbLine
 10
235.40740740740742
 20
113.025
 30
0.0
 11
235.40740740740742
 21
114.125
 31
0.0
  0
LINE
  5
A4
330
17
100
AcDbEntity
  8
MyLines
100
AcDbLine
 10
235.40740740740742
 20
114.125
 30
0.0
 11
235.66666666666666
 21
114.4
 31
0.0
  0
LINE
  5
A5
330
17
100
AcDbEntity
  8
MyLines
100
AcDbLine
 10
235.66666666666666
 20
114.4
 30
0.0
 11
235.66666666666666
 21
115.225
 31
0.0
  0
LINE
  5
A6
330
17
100
AcDbEntity
  8
MyLines
100
AcDbLine
 10
235.66666666666666
 20
115.225
 30
0.0
 11
235.92592592592592
 21
115.5
 31
0.0
  0
LINE
  5
A7
330
17
100
AcDbEntity
  8
MyLines
100
AcDbLine
 10
235.92592592592592
 20
115.5
 30
0.0
 11
235.92592592592592
 21
116.325
 31
0.0
  0
LINE
  5
A8
330
17
100
AcDbEntity
  8
MyLines
100
AcDbLine
 10
235.92592592592592
 20
116.325
 30
0.0
 11
236.1851851851852
 21
116.6
 31
0.0
  0
LINE
  5
A9
330
17
100
AcDbEntity
  8
MyLines
100
AcDbLine
 10
236.1851851851852
 20
116.6
 30
0.0
 11
236.1851851851852
 21
117.425
 31
0.0
  0
LINE
  5
AA
330
17
100
AcDbEntity
  8
MyLines
100
AcDbLine
 10
236.1851851851852
 20
117.425
 30
0.0
 11
236.44444444444446
 21
117.7
 31
0.0
  0
LINE
  5
AB
330
17
100
AcDbEntity
  8
MyLines
100
AcDbLine
 10
236.44444444444446
 20
117.7
 30
0.0
 11
236.44444444444446
 21
118.525
 31
0.0
  0
LINE
  5
AC
330
17
100
AcDbEntity
  8
MyLines
100
AcDbLine
 10
236.44444444444446
 20
118.525
 30
0.0
 11
236.7037037037037
 21
118.8
 31
0.0
  0
LINE
  5
AD
330
17
100
AcDbEntity
  8
MyLines
100
AcDbLine
 10
236.7037037037037
 20
118.8
 30
0.0
 11
236.7037037037037
 21
119.9
 31
0.0
  0
LINE
  5
AE
330
17
100
AcDbEntity
  8
MyLines
100
AcDbLine
 10
236.7037037037037
 20
119.9
 30
0.0
 11
236.96296296296296
 21
120.175
 31
0.0
  0
LINE
  5
AF
330
17
100
AcDbEntity
  8
MyLines
100
AcDbLine
 10
236.96296296296296
 20
120.175
 30
0.0
 11
236.96296296296296
 21
121.0
 31
0.0
  0
LINE
  5
B0
330
17
100
AcDbEntity
  8
MyLines
100
AcDbLine
 10
236.96296296296296
 20
121.0
 30
0.0
 11
237.22222222222223
 21
121.275
 31
0.0
  0
LINE
  5
B1
330
17
100
AcDbEntity
  8
MyLines
100
AcDbLine
 10
237.22222222222223
 20
121.275
 30
0.0
 11
237.22222222222223
 21
122.1
 31
0.0
  0
LINE
  5
B2
330
17
100
AcDbEntity
  8
MyLines
100
AcDbLine
 10
237.22222222222223
 20
122.1
 30
0.0
 11
237.4814814814815
 21
122.375
 31
0.0
  0
LINE
  5
B3
330
17
100
AcDbEntity
  8
MyLines
100
AcDbLine
 10
237.4814814814815
 20
122.375
 30
0.0
 11
237.4814814814815
 21
123.2
 31
0.0
  0
LINE
  5
B4
330
17
100
AcDbEntity
  8
MyLines
100
AcDbLine
 10
237.4814814814815
 20
123.2
 30
0.0
 11
237.74074074074073
 21
123.475
 31
0.0
  0
LINE
  5
B5
330
17
100
AcDbEntity
  8
MyLines
100
AcDbLine
 10
237.74074074074073
 20
123.475
 30
0.0
 11
237.74074074074073
 21
124.575
 31
0.0
  0
LINE
  5
B6
330
17
100
AcDbEntity
  8
MyLines
100
AcDbLine
 10
237.74074074074073
 20
124.575
 30
0.0
 11
238.0
 21
124.85
 31
0.0
  0
LINE
  5
B7
330
17
100
AcDbEntity
  8
MyLines
100
AcDbLine
 10
238.0
 20
124.85
 30
0.0
 11
238.0
 21
125.675
 31
0.0
  0
LINE
  5
B8
330
17
100
AcDbEntity
  8
MyLines
100
AcDbLine
 10
238.0
 20
125.675
 30
0.0
 11
238.25925925925927
 21
125.95
 31
0.0
  0
LINE
  5
B9
330
17
100
AcDbEntity
  8
MyLines
100
AcDbLine
 10
238.25925925925927
 20
125.95
 30
0.0
 11
238.25925925925927
 21
127.05
 31
0.0
  0
LINE
  5
BA
330
17
100
AcDbEntity
  8
MyLines
100
AcDbLine
 10
238.25925925925927
 20
127.05
 30
0.0
 11
238.5185185185185
 21
127.325
 31
0.0
  0
LINE
  5
BB
330
17
100
AcDbEntity
  8
MyLines
100
AcDbLine
 10
238.5185185185185
 20
127.325
 30
0.0
 11
238.5185185185185
 21
128.425
 31
0.0
  0
LINE
  5
BC
330
17
100
AcDbEntity
  8
MyLines
100
AcDbLine
 10
238.5185185185185
 20
128.425
 30
0.0
 11
238.77777777777777
 21
128.7
 31
0.0
  0
LINE
  5
BD
330
17
100
AcDbEntity
  8
MyLines
100
AcDbLine
 10
238.77777777777777
 20
128.7
 30
0.0
 11
238.77777777777777
 21
129.8
 31
0.0
  0
LINE
  5
BE
330
17
100
AcDbEntity
  8
MyLines
100
AcDbLine
 10
238.77777777777777
 20
129.8
 30
0.0
 11
239.03703703703704
 21
130.075
 31
0.0
  0
LINE
  5
BF
330
17
100
AcDbEntity
  8
MyLines
100
AcDbLine
 10
239.03703703703704
 20
130.075
 30
0.0
 11
239.03703703703704
 21
131.175
 31
0.0
  0
LINE
  5
C0
330
17
100
AcDbEntity
  8
MyLines
100
AcDbLine
 10
239.03703703703704
 20
131.175
 30
0.0
 11
239.2962962962963
 21
131.45
 31
0.0
  0
LINE
  5
C1
330
17
100
AcDbEntity
  8
MyLines
100
AcDbLine
 10
239.2962962962963
 20
131.45
 30
0.0
 11
239.2962962962963
 21
132.55
 31
0.0
  0
LINE
  5
C2
330
17
100
AcDbEntity
  8
MyLines
100
AcDbLine
 10
239.2962962962963
 20
132.55
 30
0.0
 11
239.55555555555554
 21
132.825
 31
0.0
  0
LINE
  5
C3
330
17
100
AcDbEntity
  8
MyLines
100
AcDbLine
 10
239.55555555555554
 20
132.825
 30
0.0
 11
239.55555555555554
 21
133.925
 31
0.0
  0
LINE
  5
C4
330
17
100
AcDbEntity
  8
MyLines
100
AcDbLine
 10
239.55555555555554
 20
133.925
 30
0.0
 11
239.8148148148148
 21
134.2
 31
0.0
  0
LINE
  5
C5
330
17
100
AcDbEntity
  8
MyLines
100
AcDbLine
 10
239.8148148148148
 20
134.2
 30
0.0
 11
239.8148148148148
 21
135.3
 31
0.0
  0
LINE
  5
C6
330
17
100
AcDbEntity
  8
MyLines
100
AcDbLine
 10
239.8148148148148
 20
135.3
 30
0.0
 11
240.07407407407408
 21
135.575
 31
0.0
  0
LINE
  5
C7
330
17
100
AcDbEntity
  8
MyLines
100
AcDbLine
 10
240.07407407407408
 20
135.575
 30
0.0
 11
240.07407407407408
 21
136.95
 31
0.0
  0
LINE
  5
C8
330
17
100
AcDbEntity
  8
MyLines
100
AcDbLine
 10
240.07407407407408
 20
136.95
 30
0.0
 11
240.33333333333334
 21
137.225
 31
0.0
  0
LINE
  5
C9
330
17
100
AcDbEntity
  8
MyLines
100
AcDbLine
 10
240.33333333333334
 20
137.225
 30
0.0
 11
240.33333333333334
 21
138.325
 31
0.0
  0
LINE
  5
CA
330
17
100
AcDbEntity
  8
MyLines
100
AcDbLine
 10
240.33333333333334
 20
138.325
 30
0.0
 11
240.59259259259258
 21
138.6
 31
0.0
  0
LINE
  5
CB
330
17
100
AcDbEntity
  8
MyLines
100
AcDbLine
 10
240.59259259259258
 20
138.6
 30
0.0
 11
240.59259259259258
 21
139.7
 31
0.0
  0
LINE
  5
CC
330
17
100
AcDbEntity
  8
MyLines
100
AcDbLine
 10
240.59259259259258
 20
139.7
 30
0.0
 11
240.85185185185185
 21
139.975
 31
0.0
  0
LINE
  5
CD
330
17
100
AcDbEntity
  8
MyLines
100
AcDbLine
 10
240.85185185185185
 20
139.975
 30
0.0
 11
240.85185185185185
 21
141.35
 31
0.0
  0
LINE
  5
CE
330
17
100
AcDbEntity
  8
MyLines
100
AcDbLine
 10
240.85185185185185
 20
141.35
 30
0.0
 11
241.11111111111111
 21
141.625
 31
0.0
  0
LINE
  5
CF
330
17
100
AcDbEntity
  8
MyLines
100
AcDbLine
 10
241.11111111111111
 20
141.625
 30
0.0
 11
241.11111111111111
 21
142.725
 31
0.0
  0
LINE
  5
D0
330
17
100
AcDbEntity
  8
MyLines
100
AcDbLine
 10
241.11111111111111
 20
142.725
 30
0.0
 11
241.37037037037038
 21
143.0
 31
0.0
  0
LINE
  5
D1
330
17
100
AcDbEntity
  8
MyLines
100
AcDbLine
 10
241.37037037037038
 20
143.0
 30
0.0
 11
241.37037037037038
 21
144.375
 31
0.0
  0
LINE
  5
D2
330
17
100
AcDbEntity
  8
MyLines
100
AcDbLine
 10
241.37037037037038
 20
144.375
 30
0.0
 11
241.62962962962962
 21
144.65
 31
0.0
  0
LINE
  5
D3
330
17
100
AcDbEntity
  8
MyLines
100
AcDbLine
 10
241.62962962962962
 20
144.65
 30
0.0
 11
241.62962962962962
 21
146.025
 31
0.0
  0
LINE
  5
D4
330
17
100
AcDbEntity
  8
MyLines
100
AcDbLine
 10
241.62962962962962
 20
146.025
 30
0.0
 11
241.88888888888889
 21
146.3
 31
0.0
  0
LINE
  5
D5
330
17
100
AcDbEntity
  8
MyLines
100
AcDbLine
 10
241.88888888888889
 20
146.3
 30
0.0
 11
241.88888888888889
 21
147.675
 31
0.0
  0
LINE
  5
D6
330
17
100
AcDbEntity
  8
MyLines
100
AcDbLine
 10
241.88888888888889
 20
147.675
 30
0.0
 11
242.14814814814815
 21
147.95
 31
0.0
  0
LINE
  5
D7
330
17
100
AcDbEntity
  8
MyLines
100
AcDbLine
 10
242.14814814814815
 20
147.95
 30
0.0
 11
242.14814814814815
 21
149.6
 31
0.0
  0
LINE
  5
D8
330
17
100
AcDbEntity
  8
MyLines
100
AcDbLine
 10
242.14814814814815
 20
149.6
 30
0.0
 11
242.40740740740742
 21
149.875
 31
0.0
  0
LINE
  5
D9
330
17
100
AcDbEntity
  8
MyLines
100
AcDbLine
 10
242.40740740740742
 20
149.875
 30
0.0
 11
242.40740740740742
 21
151.25
 31
0.0
  0
LINE
  5
DA
330
17
100
AcDbEntity
  8
MyLines
100
AcDbLine
 10
242.40740740740742
 20
151.25
 30
0.0
 11
242.66666666666666
 21
151.525
 31
0.0
  0
LINE
  5
DB
330
17
100
AcDbEntity
  8
MyLines
100
AcDbLine
 10
242.66666666666666
 20
151.525
 30
0.0
 11
242.66666666666666
 21
156.75
 31
0.0
  0
LINE
  5
DC
330
17
100
AcDbEntity
  8
MyLines
100
AcDbLine
 10
242.66666666666666
 20
156.75
 30
0.0
 11
242.40740740740742
 21
157.025
 31
0.0
  0
LINE
  5
DD
330
17
100
AcDbEntity
  8
MyLines
100
AcDbLine
 10
242.40740740740742
 20
157.025
 30
0.0
 11
242.40740740740742
 21
157.575
 31
0.0
  0
LINE
  5
DE
330
17
100
AcDbEntity
  8
MyLines
100
AcDbLine
 10
242.40740740740742
 20
157.575
 30
0.0
 11
241.37037037037038
 21
158.675
 31
0.0
  0
LINE
  5
DF
330
17
100
AcDbEntity
  8
MyLines
100
AcDbLine
 10
241.37037037037038
 20
158.675
 30
0.0
 11
240.85185185185185
 21
158.675
 31
0.0
  0
LINE
  5
E0
330
17
100
AcDbEntity
  8
MyLines
100
AcDbLine
 10
240.85185185185185
 20
158.675
 30
0.0
 11
240.59259259259258
 21
158.95
 31
0.0
  0
LINE
  5
E1
330
17
100
AcDbEntity
  8
MyLines
100
AcDbLine
 10
240.59259259259258
 20
158.95
 30
0.0
 11
239.8148148148148
 21
158.95
 31
0.0
  0
LINE
  5
E2
330
17
100
AcDbEntity
  8
MyLines
100
AcDbLine
 10
239.8148148148148
 20
158.95
 30
0.0
 11
239.55555555555554
 21
158.675
 31
0.0
  0
LINE
  5
E3
330
17
100
AcDbEntity
  8
MyLines
100
AcDbLine
 10
239.55555555555554
 20
158.675
 30
0.0
 11
227.62962962962962
 21
158.675
 31
0.0
  0
LINE
  5
E4
330
17
100
AcDbEntity
  8
MyLines
100
AcDbLine
 10
227.62962962962962
 20
158.675
 30
0.0
 11
227.37037037037038
 21
158.4
 31
0.0
  0
LINE
  5
E5
330
17
100
AcDbEntity
  8
MyLines
100
AcDbLine
 10
227.37037037037038
 20
158.4
 30
0.0
 11
226.85185185185185
 21
158.4
 31
0.0
  0
LINE
  5
E6
330
17
100
AcDbEntity
  8
MyLines
100
AcDbLine
 10
226.85185185185185
 20
158.4
 30
0.0
 11
226.59259259259258
 21
158.675
 31
0.0
  0
LINE
  5
E7
330
17
100
AcDbEntity
  8
MyLines
100
AcDbLine
 10
226.59259259259258
 20
158.675
 30
0.0
 11
226.33333333333334
 21
158.4
 31
0.0
  0
LINE
  5
E8
330
17
100
AcDbEntity
  8
MyLines
100
AcDbLine
 10
226.33333333333334
 20
158.4
 30
0.0
 11
224.0
 21
158.4
 31
0.0
  0
LINE
  5
E9
330
17
100
AcDbEntity
  8
MyLines
100
AcDbLine
 10
224.0
 20
158.4
 30
0.0
 11
223.74074074074073
 21
158.125
 31
0.0
  0
LINE
  5
EA
330
17
100
AcDbEntity
  8
MyLines
100
AcDbLine
 10
223.74074074074073
 20
158.125
 30
0.0
 11
217.25925925925927
 21
158.125
 31
0.0
  0
LINE
  5
EB
330
17
100
AcDbEntity
  8
MyLines
100
AcDbLine
 10
217.25925925925927
 20
158.125
 30
0.0
 11
217.0
 21
157.85
 31
0.0
  0
LINE
  5
EC
330
17
100
AcDbEntity
  8
MyLines
100
AcDbLine
 10
217.0
 20
157.85
 30
0.0
 11
211.2962962962963
 21
157.85
 31
0.0
  0
LINE
  5
ED
330
17
100
AcDbEntity
  8
MyLines
100
AcDbLine
 10
211.2962962962963
 20
157.85
 30
0.0
 11
211.03703703703704
 21
157.575
 31
0.0
  0
LINE
  5
EE
330
17
100
AcDbEntity
  8
MyLines
100
AcDbLine
 10
211.03703703703704
 20
157.575
 30
0.0
 11
205.59259259259258
 21
157.575
 31
0.0
  0
LINE
  5
EF
330
17
100
AcDbEntity
  8
MyLines
100
AcDbLine
 10
205.59259259259258
 20
157.575
 30
0.0
 11
205.33333333333334
 21
157.3
 31
0.0
  0
LINE
  5
F0
330
17
100
AcDbEntity
  8
MyLines
100
AcDbLine
 10
205.33333333333334
 20
157.3
 30
0.0
 11
202.22222222222223
 21
157.3
 31
0.0
  0
LINE
  5
F1
330
17
100
AcDbEntity
  8
MyLines
100
AcDbLine
 10
202.22222222222223
 20
157.3
 30
0.0
 11
201.96296296296296
 21
157.575
 31
0.0
  0
LINE
  5
F2
330
17
100
AcDbEntity
  8
MyLines
100
AcDbLine
 10
201.96296296296296
 20
157.575
 30
0.0
 11
201.44444444444446
 21
157.575
 31
0.0
  0
LINE
  5
F3
330
17
100
AcDbEntity
  8
MyLines
100
AcDbLine
 10
201.44444444444446
 20
157.575
 30
0.0
 11
201.1851851851852
 21
157.3
 31
0.0
  0
LINE
  5
F4
330
17
100
AcDbEntity
  8
MyLines
100
AcDbLine
 10
201.1851851851852
 20
157.3
 30
0.0
 11
198.07407407407408
 21
157.3
 31
0.0
  0
LINE
  5
F5
330
17
100
AcDbEntity
  8
MyLines
100
AcDbLine
 10
198.07407407407408
 20
157.3
 30
0.0
 11
197.8148148148148
 21
157.025
 31
0.0
  0
LINE
  5
F6
330
17
100
AcDbEntity
  8
MyLines
100
AcDbLine
 10
197.8148148148148
 20
157.025
 30
0.0
 11
194.7037037037037
 21
157.025
 31
0.0
  0
LINE
  5
F7
330
17
100
AcDbEntity
  8
MyLines
100
AcDbLine
 10
194.7037037037037
 20
157.025
 30
0.0
 11
194.44444444444446
 21
156.75
 31
0.0
  0
LINE
  5
F8
330
17
100
AcDbEntity
  8
MyLines
100
AcDbLine
 10
194.44444444444446
 20
156.75
 30
0.0
 11
189.5185185185185
 21
156.75
 31
0.0
  0
LINE
  5
F9
330
17
100
AcDbEntity
  8
MyLines
100
AcDbLine
 10
189.5185185185185
 20
156.75
 30
0.0
 11
189.25925925925927
 21
156.475
 31
0.0
  0
LINE
  5
FA
330
17
100
AcDbEntity
  8
MyLines
100
AcDbLine
 10
189.25925925925927
 20
156.475
 30
0.0
 11
187.96296296296296
 21
156.475
 31
0.0
  0
LINE
  5
FB
330
17
100
AcDbEntity
  8
MyLines
100
AcDbLine
 10
187.96296296296296
 20
156.475
 30
0.0
 11
187.7037037037037
 21
156.75
 31
0.0
  0
LINE
  5
FC
330
17
100
AcDbEntity
  8
MyLines
100
AcDbLine
 10
187.7037037037037
 20
156.75
 30
0.0
 11
187.44444444444446
 21
156.75
 31
0.0
  0
LINE
  5
FD
330
17
100
AcDbEntity
  8
MyLines
100
AcDbLine
 10
187.44444444444446
 20
156.75
 30
0.0
 11
187.1851851851852
 21
156.475
 31
0.0
  0
LINE
  5
FE
330
17
100
AcDbEntity
  8
MyLines
100
AcDbLine
 10
187.1851851851852
 20
156.475
 30
0.0
 11
185.11111111111111
 21
156.475
 31
0.0
  0
LINE
  5
FF
330
17
100
AcDbEntity
  8
MyLines
100
AcDbLine
 10
185.11111111111111
 20
156.475
 30
0.0
 11
184.85185185185185
 21
156.2
 31
0.0
  0
LINE
  5
100
330
17
100
AcDbEntity
  8
MyLines
100
AcDbLine
 10
184.85185185185185
 20
156.2
 30
0.0
 11
179.92592592592592
 21
156.2
 31
0.0
  0
LINE
  5
101
330
17
100
AcDbEntity
  8
MyLines
100
AcDbLine
 10
179.92592592592592
 20
156.2
 30
0.0
 11
179.66666666666666
 21
155.925
 31
0.0
  0
LINE
  5
102
330
17
100
AcDbEntity
  8
MyLines
100
AcDbLine
 10
179.66666666666666
 20
155.925
 30
0.0
 11
173.96296296296296
 21
155.925
 31
0.0
  0
LINE
  5
103
330
17
100
AcDbEntity
  8
MyLines
100
AcDbLine
 10
173.96296296296296
 20
155.925
 30
0.0
 11
173.7037037037037
 21
156.2
 31
0.0
  0
LINE
  5
104
330
17
100
AcDbEntity
  8
MyLines
100
AcDbLine
 10
173.7037037037037
 20
156.2
 30
0.0
 11
173.1851851851852
 21
156.2
 31
0.0
  0
LINE
  5
105
330
17
100
AcDbEntity
  8
MyLines
100
AcDbLine
 10
173.1851851851852
 20
156.2
 30
0.0
 11
172.66666666666666
 21
156.75
 31
0.0
  0
LINE
  5
106
330
17
100
AcDbEntity
  8
MyLines
100
AcDbLine
 10
172.66666666666666
 20
156.75
 30
0.0
 11
172.40740740740742
 21
156.75
 31
0.0
  0
LINE
  5
107
330
17
100
AcDbEntity
  8
MyLines
100
AcDbLine
 10
172.40740740740742
 20
156.75
 30
0.0
 11
172.14814814814815
 21
157.025
 31
0.0
  0
LINE
  5
108
330
17
100
AcDbEntity
  8
MyLines
100
AcDbLine
 10
172.14814814814815
 20
157.025
 30
0.0
 11
171.88888888888889
 21
157.025
 31
0.0
  0
LINE
  5
109
330
17
100
AcDbEntity
  8
MyLines
100
AcDbLine
 10
171.88888888888889
 20
157.025
 30
0.0
 11
171.62962962962962
 21
157.3
 31
0.0
  0
LINE
  5
10A
330
17
100
AcDbEntity
  8
MyLines
100
AcDbLine
 10
171.62962962962962
 20
157.3
 30
0.0
 11
171.11111111111111
 21
157.3
 31
0.0
  0
LINE
  5
10B
330
17
100
AcDbEntity
  8
MyLines
100
AcDbLine
 10
171.11111111111111
 20
157.3
 30
0.0
 11
170.85185185185185
 21
157.025
 31
0.0
  0
LINE
  5
10C
330
17
100
AcDbEntity
  8
MyLines
100
AcDbLine
 10
170.85185185185185
 20
157.025
 30
0.0
 11
170.59259259259258
 21
157.025
 31
0.0
  0
LINE
  5
10D
330
17
100
AcDbEntity
  8
MyLines
100
AcDbLine
 10
170.59259259259258
 20
157.025
 30
0.0
 11
169.8148148148148
 21
156.2
 31
0.0
  0
LINE
  5
10E
330
17
100
AcDbEntity
  8
MyLines
100
AcDbLine
 10
169.8148148148148
 20
156.2
 30
0.0
 11
169.55555555555554
 21
156.2
 31
0.0
  0
LINE
  5
10F
330
17
100
AcDbEntity
  8
MyLines
100
AcDbLine
 10
169.55555555555554
 20
156.2
 30
0.0
 11
169.2962962962963
 21
155.925
 31
0.0
  0
LINE
  5
110
330
17
100
AcDbEntity
  8
MyLines
100
AcDbLine
 10
169.2962962962963
 20
155.925
 30
0.0
 11
168.77777777777777
 21
155.925
 31
0.0
  0
LINE
  5
111
330
17
100
AcDbEntity
  8
MyLines
100
AcDbLine
 10
168.77777777777777
 20
155.925
 30
0.0
 11
168.5185185185185
 21
155.65
 31
0.0
  0
LINE
  5
112
330
17
100
AcDbEntity
  8
MyLines
100
AcDbLine
 10
168.5185185185185
 20
155.65
 30
0.0
 11
167.74074074074073
 21
155.65
 31
0.0
  0
LINE
  5
113
330
17
100
AcDbEntity
  8
MyLines
100
AcDbLine
 10
167.74074074074073
 20
155.65
 30
0.0
 11
167.4814814814815
 21
155.375
 31
0.0
  0
LINE
  5
114
330
17
100
AcDbEntity
  8
MyLines
100
AcDbLine
 10
167.4814814814815
 20
155.375
 30
0.0
 11
161.77777777777777
 21
155.375
 31
0.0
  0
LINE
  5
115
330
17
100
AcDbEntity
  8
MyLines
100
AcDbLine
 10
161.77777777777777
 20
155.375
 30
0.0
 11
161.5185185185185
 21
155.1
 31
0.0
  0
LINE
  5
116
330
17
100
AcDbEntity
  8
MyLines
100
AcDbLine
 10
161.5185185185185
 20
155.1
 30
0.0
 11
156.59259259259258
 21
155.1
 31
0.0
  0
LINE
  5
117
330
17
100
AcDbEntity
  8
MyLines
100
AcDbLine
 10
156.59259259259258
 20
155.1
 30
0.0
 11
156.33333333333334
 21
154.825
 31
0.0
  0
LINE
  5
118
330
17
100
AcDbEntity
  8
MyLines
100
AcDbLine
 10
156.33333333333334
 20
154.825
 30
0.0
 11
151.14814814814815
 21
154.825
 31
0.0
  0
LINE
  5
119
330
17
100
AcDbEntity
  8
MyLines
100
AcDbLine
 10
151.14814814814815
 20
154.825
 30
0.0
 11
150.88888888888889
 21
154.55
 31
0.0
  0
LINE
  5
11A
330
17
100
AcDbEntity
  8
MyLines
100
AcDbLine
 10
150.88888888888889
 20
154.55
 30
0.0
 11
144.92592592592592
 21
154.55
 31
0.0
  0
LINE
  5
11B
330
17
100
AcDbEntity
  8
MyLines
100
AcDbLine
 10
144.92592592592592
 20
154.55
 30
0.0
 11
144.66666666666666
 21
154.275
 31
0.0
  0
LINE
  5
11C
330
17
100
AcDbEntity
  8
MyLines
100
AcDbLine
 10
144.66666666666666
 20
154.275
 30
0.0
 11
139.4814814814815
 21
154.275
 31
0.0
  0
LINE
  5
11D
330
17
100
AcDbEntity
  8
MyLines
100
AcDbLine
 10
139.4814814814815
 20
154.275
 30
0.0
 11
139.22222222222223
 21
154.0
 31
0.0
  0
LINE
  5
11E
330
17
100
AcDbEntity
  8
MyLines
100
AcDbLine
 10
139.22222222222223
 20
154.0
 30
0.0
 11
132.4814814814815
 21
154.0
 31
0.0
  0
LINE
  5
11F
330
17
100
AcDbEntity
  8
MyLines
100
AcDbLine
 10
132.4814814814815
 20
154.0
 30
0.0
 11
132.22222222222223
 21
153.725
 31
0.0
  0
LINE
  5
120
330
17
100
AcDbEntity
  8
MyLines
100
AcDbLine
 10
132.22222222222223
 20
153.725
 30
0.0
 11
125.48148148148148
 21
153.725
 31
0.0
  0
LINE
  5
121
330
17
100
AcDbEntity
  8
MyLines
100
AcDbLine
 10
125.48148148148148
 20
153.725
 30
0.0
 11
125.22222222222223
 21
153.45
 31
0.0
  0
LINE
  5
122
330
17
100
AcDbEntity
  8
MyLines
100
AcDbLine
 10
125.22222222222223
 20
153.45
 30
0.0
 11
118.74074074074075
 21
153.45
 31
0.0
  0
LINE
  5
123
330
17
100
AcDbEntity
  8
MyLines
100
AcDbLine
 10
118.74074074074075
 20
153.45
 30
0.0
 11
118.48148148148148
 21
153.175
 31
0.0
  0
LINE
  5
124
330
17
100
AcDbEntity
  8
MyLines
100
AcDbLine
 10
118.48148148148148
 20
153.175
 30
0.0
 11
111.74074074074075
 21
153.175
 31
0.0
  0
LINE
  5
125
330
17
100
AcDbEntity
  8
MyLines
100
AcDbLine
 10
111.74074074074075
 20
153.175
 30
0.0
 11
111.48148148148148
 21
152.9
 31
0.0
  0
LINE
  5
126
330
17
100
AcDbEntity
  8
MyLines
100
AcDbLine
 10
111.48148148148148
 20
152.9
 30
0.0
 11
103.96296296296296
 21
152.9
 31
0.0
  0
LINE
  5
127
330
17
100
AcDbEntity
  8
MyLines
100
AcDbLine
 10
103.96296296296296
 20
152.9
 30
0.0
 11
103.70370370370371
 21
152.625
 31
0.0
  0
LINE
  5
128
330
17
100
AcDbEntity
  8
MyLines
100
AcDbLine
 10
103.70370370370371
 20
152.625
 30
0.0
 11
95.66666666666667
 21
152.625
 31
0.0
  0
LINE
  5
129
330
17
100
AcDbEntity
  8
MyLines
100
AcDbLine
 10
95.66666666666667
 20
152.625
 30
0.0
 11
95.4074074074074
 21
152.35
 31
0.0
  0
LINE
  5
12A
330
17
100
AcDbEntity
  8
MyLines
100
AcDbLine
 10
95.4074074074074
 20
152.35
 30
0.0
 11
93.85185185185185
 21
152.35
 31
0.0
  0
LINE
  5
12B
330
17
100
AcDbEntity
  8
MyLines
100
AcDbLine
 10
93.85185185185185
 20
152.35
 30
0.0
 11
93.5925925925926
 21
152.625
 31
0.0
  0
LINE
  5
12C
330
17
100
AcDbEntity
  8
MyLines
100
AcDbLine
 10
93.5925925925926
 20
152.625
 30
0.0
 11
92.81481481481481
 21
152.625
 31
0.0
  0
LINE
  5
12D
330
17
100
AcDbEntity
  8
MyLines
100
AcDbLine
 10
92.81481481481481
 20
152.625
 30
0.0
 11
92.55555555555556
 21
152.35
 31
0.0
  0
LINE
  5
12E
330
17
100
AcDbEntity
  8
MyLines
100
AcDbLine
 10
92.55555555555556
 20
152.35
 30
0.0
 11
85.03703703703704
 21
152.35
 31
0.0
  0
LINE
  5
12F
330
17
100
AcDbEntity
  8
MyLines
100
AcDbLine
 10
85.03703703703704
 20
152.35
 30
0.0
 11
84.77777777777777
 21
152.075
 31
0.0
  0
LINE
  5
130
330
17
100
AcDbEntity
  8
MyLines
100
AcDbLine
 10
84.77777777777777
 20
152.075
 30
0.0
 11
74.66666666666667
 21
152.075
 31
0.0
  0
LINE
  5
131
330
17
100
AcDbEntity
  8
MyLines
100
AcDbLine
 10
74.66666666666667
 20
152.075
 30
0.0
 11
74.4074074074074
 21
151.8
 31
0.0
  0
LINE
  5
132
330
17
100
AcDbEntity
  8
MyLines
100
AcDbLine
 10
74.4074074074074
 20
151.8
 30
0.0
 11
67.14814814814815
 21
151.8
 31
0.0
  0
LINE
  5
133
330
17
100
AcDbEntity
  8
MyLines
100
AcDbLine
 10
67.14814814814815
 20
151.8
 30
0.0
 11
66.88888888888889
 21
151.525
 31
0.0
  0
LINE
  5
134
330
17
100
AcDbEntity
  8
MyLines
100
AcDbLine
 10
66.88888888888889
 20
151.525
 30
0.0
 11
62.48148148148148
 21
151.525
 31
0.0
  0
LINE
  5
135
330
17
100
AcDbEntity
  8
MyLines
100
AcDbLine
 10
62.48148148148148
 20
151.525
 30
0.0
 11
62.22222222222222
 21
151.25
 31
0.0
  0
LINE
  5
136
330
17
100
AcDbEntity
  8
MyLines
100
AcDbLine
 10
62.22222222222222
 20
151.25
 30
0.0
 11
57.03703703703704
 21
151.25
 31
0.0
  0
LINE
  5
137
330
17
100
AcDbEntity
  8
MyLines
100
AcDbLine
 10
57.03703703703704
 20
151.25
 30
0.0
 11
56.77777777777778
 21
150.975
 31
0.0
  0
LINE
  5
138
330
17
100
AcDbEntity
  8
MyLines
100
AcDbLine
 10
56.77777777777778
 20
150.975
 30
0.0
 11
52.629629629629626
 21
150.975
 31
0.0
  0
LINE
  5
139
330
17
100
AcDbEntity
  8
MyLines
100
AcDbLine
 10
52.629629629629626
 20
150.975
 30
0.0
 11
52.370370370370374
 21
150.7
 31
0.0
  0
LINE
  5
13A
330
17
100
AcDbEntity
  8
MyLines
100
AcDbLine
 10
52.370370370370374
 20
150.7
 30
0.0
 11
48.48148148148148
 21
150.7
 31
0.0
  0
LINE
  5
13B
330
17
100
AcDbEntity
  8
MyLines
100
AcDbLine
 10
48.48148148148148
 20
150.7
 30
0.0
 11
48.22222222222222
 21
150.425
 31
0.0
  0
LINE
  5
13C
330
17
100
AcDbEntity
  8
MyLines
100
AcDbLine
 10
48.22222222222222
 20
150.425
 30
0.0
 11
47.96296296296296
 21
150.425
 31
0.0
  0
LINE
  5
13D
330
17
100
AcDbEntity
  8
MyLines
100
AcDbLine
 10
47.96296296296296
 20
150.425
 30
0.0
 11
47.18518518518518
 21
149.6
 31
0.0
  0
LINE
  5
13E
330
17
100
AcDbEntity
  8
MyLines
100
AcDbLine
 10
47.18518518518518
 20
149.6
 30
0.0
 11
47.18518518518518
 21
149.05
 31
0.0
  0
LINE
  5
13F
330
17
100
AcDbEntity
  8
MyLines
100
AcDbLine
 10
47.18518518518518
 20
149.05
 30
0.0
 11
46.925925925925924
 21
148.775
 31
0.0
  0
LINE
  5
140
330
17
100
AcDbEntity
  8
MyLines
100
AcDbLine
 10
46.925925925925924
 20
148.775
 30
0.0
 11
46.925925925925924
 21
146.3
 31
0.0
  0
LINE
  5
141
330
17
100
AcDbEntity
  8
MyLines
100
AcDbLine
 10
46.925925925925924
 20
146.3
 30
0.0
 11
46.666666666666664
 21
146.025
 31
0.0
  0
LINE
  5
142
330
17
100
AcDbEntity
  8
MyLines
100
AcDbLine
 10
46.666666666666664
 20
146.025
 30
0.0
 11
46.666666666666664
 21
142.725
 31
0.0
  0
LINE
  5
143
330
17
100
AcDbEntity
  8
MyLines
100
AcDbLine
 10
46.666666666666664
 20
142.725
 30
0.0
 11
46.407407407407405
 21
142.45
 31
0.0
  0
LINE
  5
144
330
17
100
AcDbEntity
  8
MyLines
100
AcDbLine
 10
46.407407407407405
 20
142.45
 30
0.0
 11
46.407407407407405
 21
137.225
 31
0.0
  0
LINE
  5
145
330
17
100
AcDbEntity
  8
MyLines
100
AcDbLine
 10
46.407407407407405
 20
137.225
 30
0.0
 11
46.148148148148145
 21
136.95
 31
0.0
  0
LINE
  5
146
330
17
100
AcDbEntity
  8
MyLines
100
AcDbLine
 10
46.148148148148145
 20
136.95
 30
0.0
 11
46.148148148148145
 21
132.825
 31
0.0
  0
LINE
  5
147
330
17
100
AcDbEntity
  8
MyLines
100
AcDbLine
 10
46.148148148148145
 20
132.825
 30
0.0
 11
45.888888888888886
 21
132.55
 31
0.0
  0
LINE
  5
148
330
17
100
AcDbEntity
  8
MyLines
100
AcDbLine
 10
45.888888888888886
 20
132.55
 30
0.0
 11
45.888888888888886
 21
127.875
 31
0.0
  0
LINE
  5
149
330
17
100
AcDbEntity
  8
MyLines
100
AcDbLine
 10
45.888888888888886
 20
127.875
 30
0.0
 11
45.629629629629626
 21
127.6
 31
0.0
  0
LINE
  5
14A
330
17
100
AcDbEntity
  8
MyLines
100
AcDbLine
 10
45.629629629629626
 20
127.6
 30
0.0
 11
45.629629629629626
 21
122.65
 31
0.0
  0
LINE
  5
14B
330
17
100
AcDbEntity
  8
MyLines
100
AcDbLine
 10
45.629629629629626
 20
122.65
 30
0.0
 11
45.370370370370374
 21
122.375
 31
0.0
  0
LINE
  5
14C
330
17
100
AcDbEntity
  8
MyLines
100
AcDbLine
 10
45.370370370370374
 20
122.375
 30
0.0
 11
45.370370370370374
 21
117.15
 31
0.0
  0
LINE
  5
14D
330
17
100
AcDbEntity
  8
MyLines
100
AcDbLine
 10
45.370370370370374
 20
117.15
 30
0.0
 11
45.111111111111114
 21
116.875
 31
0.0
  0
LINE
  5
14E
330
17
100
AcDbEntity
  8
MyLines
100
AcDbLine
 10
45.111111111111114
 20
116.875
 30
0.0
 11
45.111111111111114
 21
110.55
 31
0.0
  0
LINE
  5
14F
330
17
100
AcDbEntity
  8
MyLines
100
AcDbLine
 10
45.111111111111114
 20
110.55
 30
0.0
 11
44.851851851851855
 21
110.275
 31
0.0
  0
LINE
  5
150
330
17
100
AcDbEntity
  8
MyLines
100
AcDbLine
 10
44.851851851851855
 20
110.275
 30
0.0
 11
44.851851851851855
 21
96.525
 31
0.0
  0
LINE
  5
151
330
17
100
AcDbEntity
  8
MyLines
100
AcDbLine
 10
44.851851851851855
 20
96.525
 30
0.0
 11
45.111111111111114
 21
96.25
 31
0.0
  0
LINE
  5
152
330
17
100
AcDbEntity
  8
MyLines
100
AcDbLine
 10
45.111111111111114
 20
96.25
 30
0.0
 11
45.111111111111114
 21
93.5
 31
0.0
  0
LINE
  5
153
330
17
100
AcDbEntity
  8
MyLines
100
AcDbLine
 10
45.111111111111114
 20
93.5
 30
0.0
 11
45.370370370370374
 21
93.225
 31
0.0
  0
LINE
  5
154
330
17
100
AcDbEntity
  8
MyLines
100
AcDbLine
 10
45.370370370370374
 20
93.225
 30
0.0
 11
45.370370370370374
 21
91.3
 31
0.0
  0
LINE
  5
155
330
17
100
AcDbEntity
  8
MyLines
100
AcDbLine
 10
45.370370370370374
 20
91.3
 30
0.0
 11
45.629629629629626
 21
91.025
 31
0.0
  0
LINE
  5
156
330
17
100
AcDbEntity
  8
MyLines
100
AcDbLine
 10
45.629629629629626
 20
91.025
 30
0.0
 11
45.629629629629626
 21
89.65
 31
0.0
  0
LINE
  5
157
330
17
100
AcDbEntity
  8
MyLines
100
AcDbLine
 10
45.629629629629626
 20
89.65
 30
0.0
 11
45.888888888888886
 21
89.375
 31
0.0
  0
LINE
  5
158
330
17
100
AcDbEntity
  8
MyLines
100
AcDbLine
 10
45.888888888888886
 20
89.375
 30
0.0
 11
45.888888888888886
 21
88.275
 31
0.0
  0
LINE
  5
159
330
17
100
AcDbEntity
  8
MyLines
100
AcDbLine
 10
45.888888888888886
 20
88.275
 30
0.0
 11
46.148148148148145
 21
88.0
 31
0.0
  0
LINE
  5
15A
330
17
100
AcDbEntity
  8
MyLines
100
AcDbLine
 10
46.148148148148145
 20
88.0
 30
0.0
 11
46.148148148148145
 21
87.175
 31
0.0
  0
LINE
  5
15B
330
17
100
AcDbEntity
  8
MyLines
100
AcDbLine
 10
46.148148148148145
 20
87.175
 30
0.0
 11
46.407407407407405
 21
86.9
 31
0.0
  0
LINE
  5
15C
330
17
100
AcDbEntity
  8
MyLines
100
AcDbLine
 10
46.407407407407405
 20
86.9
 30
0.0
 11
46.407407407407405
 21
86.35
 31
0.0
  0
LINE
  5
15D
330
17
100
AcDbEntity
  8
MyLines
100
AcDbLine
 10
46.407407407407405
 20
86.35
 30
0.0
 11
46.666666666666664
 21
86.075
 31
0.0
  0
LINE
  5
15E
330
17
100
AcDbEntity
  8
MyLines
100
AcDbLine
 10
46.666666666666664
 20
86.075
 30
0.0
 11
46.666666666666664
 21
85.25
 31
0.0
  0
LINE
  5
15F
330
17
100
AcDbEntity
  8
MyLines
100
AcDbLine
 10
46.666666666666664
 20
85.25
 30
0.0
 11
46.925925925925924
 21
84.975
 31
0.0
  0
LINE
  5
160
330
17
100
AcDbEntity
  8
MyLines
100
AcDbLine
 10
46.925925925925924
 20
84.975
 30
0.0
 11
46.925925925925924
 21
84.425
 31
0.0
  0
LINE
  5
161
330
17
100
AcDbEntity
  8
MyLines
100
AcDbLine
 10
46.925925925925924
 20
84.425
 30
0.0
 11
47.18518518518518
 21
84.15
 31
0.0
  0
LINE
  5
162
330
17
100
AcDbEntity
  8
MyLines
100
AcDbLine
 10
47.18518518518518
 20
84.15
 30
0.0
 11
47.18518518518518
 21
83.875
 31
0.0
  0
LINE
  5
163
330
17
100
AcDbEntity
  8
MyLines
100
AcDbLine
 10
47.18518518518518
 20
83.875
 30
0.0
 11
47.44444444444444
 21
83.6
 31
0.0
  0
LINE
  5
164
330
17
100
AcDbEntity
  8
MyLines
100
AcDbLine
 10
47.44444444444444
 20
83.6
 30
0.0
 11
47.44444444444444
 21
83.05
 31
0.0
  0
LINE
  5
165
330
17
100
AcDbEntity
  8
MyLines
100
AcDbLine
 10
47.44444444444444
 20
83.05
 30
0.0
 11
47.7037037037037
 21
82.775
 31
0.0
  0
LINE
  5
166
330
17
100
AcDbEntity
  8
MyLines
100
AcDbLine
 10
47.7037037037037
 20
82.775
 30
0.0
 11
47.7037037037037
 21
82.5
 31
0.0
  0
LINE
  5
167
330
17
100
AcDbEntity
  8
MyLines
100
AcDbLine
 10
47.7037037037037
 20
82.5
 30
0.0
 11
47.96296296296296
 21
82.225
 31
0.0
  0
LINE
  5
168
330
17
100
AcDbEntity
  8
MyLines
100
AcDbLine
 10
47.96296296296296
 20
82.225
 30
0.0
 11
47.96296296296296
 21
81.95
 31
0.0
  0
LINE
  5
169
330
17
100
AcDbEntity
  8
MyLines
100
AcDbLine
 10
47.96296296296296
 20
81.95
 30
0.0
 11
48.22222222222222
 21
81.675
 31
0.0
  0
LINE
  5
16A
330
17
100
AcDbEntity
  8
MyLines
100
AcDbLine
 10
48.22222222222222
 20
81.675
 30
0.0
 11
48.22222222222222
 21
81.4
 31
0.0
  0
LINE
  5
16B
330
17
100
AcDbEntity
  8
MyLines
100
AcDbLine
 10
48.22222222222222
 20
81.4
 30
0.0
 11
48.74074074074074
 21
80.85
 31
0.0
  0
LINE
  5
16C
330
17
100
AcDbEntity
  8
MyLines
100
AcDbLine
 10
48.74074074074074
 20
80.85
 30
0.0
 11
48.74074074074074
 21
80.575
 31
0.0
  0
LINE
  5
16D
330
17
100
AcDbEntity
  8
MyLines
100
AcDbLine
 10
48.74074074074074
 20
80.575
 30
0.0
 11
49.0
 21
80.3
 31
0.0
  0
LINE
  5
16E
330
17
100
AcDbEntity
  8
MyLines
100
AcDbLine
 10
49.0
 20
80.3
 30
0.0
 11
49.0
 21
80.025
 31
0.0
  0
LINE
  5
16F
330
17
100
AcDbEntity
  8
MyLines
100
AcDbLine
 10
49.0
 20
80.025
 30
0.0
 11
49.51851851851852
 21
79.475
 31
0.0
  0
LINE
  5
170
330
17
100
AcDbEntity
  8
MyLines
100
AcDbLine
 10
49.51851851851852
 20
79.475
 30
0.0
 11
49.51851851851852
 21
79.2
 31
0.0
  0
LINE
  5
171
330
17
100
AcDbEntity
  8
MyLines
100
AcDbLine
 10
49.51851851851852
 20
79.2
 30
0.0
 11
52.629629629629626
 21
75.9
 31
0.0
  0
LINE
  5
172
330
17
100
AcDbEntity
  8
MyLines
100
AcDbLine
 10
52.629629629629626
 20
75.9
 30
0.0
 11
52.888888888888886
 21
75.9
 31
0.0
  0
LINE
  5
173
330
17
100
AcDbEntity
  8
MyLines
100
AcDbLine
 10
52.888888888888886
 20
75.9
 30
0.0
 11
53.666666666666664
 21
75.075
 31
0.0
  0
LINE
  5
174
330
17
100
AcDbEntity
  8
MyLines
100
AcDbLine
 10
53.666666666666664
 20
75.075
 30
0.0
 11
53.925925925925924
 21
75.075
 31
0.0
  0
LINE
  5
175
330
17
100
AcDbEntity
  8
MyLines
100
AcDbLine
 10
53.925925925925924
 20
75.075
 30
0.0
 11
54.18518518518518
 21
74.8
 31
0.0
  0
LINE
  5
176
330
17
100
AcDbEntity
  8
MyLines
100
AcDbLine
 10
54.18518518518518
 20
74.8
 30
0.0
 11
54.44444444444444
 21
74.8
 31
0.0
  0
LINE
  5
177
330
17
100
AcDbEntity
  8
MyLines
100
AcDbLine
 10
54.44444444444444
 20
74.8
 30
0.0
 11
54.7037037037037
 21
74.525
 31
0.0
  0
LINE
  5
178
330
17
100
AcDbEntity
  8
MyLines
100
AcDbLine
 10
54.7037037037037
 20
74.525
 30
0.0
 11
54.96296296296296
 21
74.525
 31
0.0
  0
LINE
  5
179
330
17
100
AcDbEntity
  8
MyLines
100
AcDbLine
 10
54.96296296296296
 20
74.525
 30
0.0
 11
55.22222222222222
 21
74.25
 31
0.0
  0
LINE
  5
17A
330
17
100
AcDbEntity
  8
MyLines
100
AcDbLine
 10
55.22222222222222
 20
74.25
 30
0.0
 11
55.48148148148148
 21
74.25
 31
0.0
  0
LINE
  5
17B
330
17
100
AcDbEntity
  8
MyLines
100
AcDbLine
 10
55.48148148148148
 20
74.25
 30
0.0
 11
55.74074074074074
 21
73.975
 31
0.0
  0
LINE
  5
17C
330
17
100
AcDbEntity
  8
MyLines
100
AcDbLine
 10
55.74074074074074
 20
73.975
 30
0.0
 11
56.0
 21
73.975
 31
0.0
  0
LINE
  5
17D
330
17
100
AcDbEntity
  8
MyLines
100
AcDbLine
 10
56.0
 20
73.975
 30
0.0
 11
56.25925925925926
 21
73.7
 31
0.0
  0
LINE
  5
17E
330
17
100
AcDbEntity
  8
MyLines
100
AcDbLine
 10
56.25925925925926
 20
73.7
 30
0.0
 11
56.51851851851852
 21
73.7
 31
0.0
  0
LINE
  5
17F
330
17
100
AcDbEntity
  8
MyLines
100
AcDbLine
 10
56.51851851851852
 20
73.7
 30
0.0
 11
56.77777777777778
 21
73.425
 31
0.0
  0
LINE
  5
180
330
17
100
AcDbEntity
  8
MyLines
100
AcDbLine
 10
56.77777777777778
 20
73.425
 30
0.0
 11
57.2962962962963
 21
73.425
 31
0.0
  0
LINE
  5
181
330
17
100
AcDbEntity
  8
MyLines
100
AcDbLine
 10
57.2962962962963
 20
73.425
 30
0.0
 11
57.55555555555556
 21
73.15
 31
0.0
  0
LINE
  5
182
330
17
100
AcDbEntity
  8
MyLines
100
AcDbLine
 10
57.55555555555556
 20
73.15
 30
0.0
 11
57.81481481481482
 21
73.15
 31
0.0
  0
LINE
  5
183
330
17
100
AcDbEntity
  8
MyLines
100
AcDbLine
 10
57.81481481481482
 20
73.15
 30
0.0
 11
58.074074074074076
 21
72.875
 31
0.0
  0
LINE
  5
184
330
17
100
AcDbEntity
  8
MyLines
100
AcDbLine
 10
58.074074074074076
 20
72.875
 30
0.0
 11
58.851851851851855
 21
72.875
 31
0.0
  0
LINE
  5
185
330
17
100
AcDbEntity
  8
MyLines
100
AcDbLine
 10
58.851851851851855
 20
72.875
 30
0.0
 11
59.111111111111114
 21
72.6
 31
0.0
  0
LINE
  5
186
330
17
100
AcDbEntity
  8
MyLines
100
AcDbLine
 10
59.111111111111114
 20
72.6
 30
0.0
 11
59.888888888888886
 21
72.6
 31
0.0
  0
LINE
  5
187
330
17
100
AcDbEntity
  8
MyLines
100
AcDbLine
 10
59.888888888888886
 20
72.6
 30
0.0
 11
60.148148148148145
 21
72.325
 31
0.0
  0
LINE
  5
188
330
17
100
AcDbEntity
  8
MyLines
100
AcDbLine
 10
60.148148148148145
 20
72.325
 30
0.0
 11
60.666666666666664
 21
72.325
 31
0.0
  0
LINE
  5
189
330
17
100
AcDbEntity
  8
MyLines
100
AcDbLine
 10
60.666666666666664
 20
72.325
 30
0.0
 11
60.925925925925924
 21
72.05
 31
0.0
  0
LINE
  5
18A
330
17
100
AcDbEntity
  8
MyLines
100
AcDbLine
 10
60.925925925925924
 20
72.05
 30
0.0
 11
62.22222222222222
 21
72.05
 31
0.0
  0
LINE
  5
18B
330
17
100
AcDbEntity
  8
MyLines
100
AcDbLine
 10
62.22222222222222
 20
72.05
 30
0.0
 11
62.48148148148148
 21
71.775
 31
0.0
  0
LINE
  5
18C
330
17
100
AcDbEntity
  8
MyLines
100
AcDbLine
 10
62.48148148148148
 20
71.775
 30
0.0
 11
64.03703703703704
 21
71.775
 31
0.0
  0
LINE
  5
18D
330
17
100
AcDbEntity
  8
MyLines
100
AcDbLine
 10
64.03703703703704
 20
71.775
 30
0.0
 11
64.29629629629629
 21
71.5
 31
0.0
  0
LINE
  5
18E
330
17
100
AcDbEntity
  8
MyLines
100
AcDbLine
 10
64.29629629629629
 20
71.5
 30
0.0
 11
65.85185185185185
 21
71.5
 31
0.0
  0
LINE
  5
18F
330
17
100
AcDbEntity
  8
MyLines
100
AcDbLine
 10
65.85185185185185
 20
71.5
 30
0.0
 11
66.11111111111111
 21
71.225
 31
0.0
  0
LINE
  5
190
330
17
100
AcDbEntity
  8
MyLines
100
AcDbLine
 10
66.11111111111111
 20
71.225
 30
0.0
 11
70.51851851851852
 21
71.225
 31
0.0
  0
LINE
  5
191
330
17
100
AcDbEntity
  8
MyLines
100
AcDbLine
 10
101.37037037037037
 20
144.1
 30
0.0
 11
101.11111111111111
 21
144.375
 31
0.0
  0
LINE
  5
192
330
17
100
AcDbEntity
  8
MyLines
100
AcDbLine
 10
101.11111111111111
 20
144.375
 30
0.0
 11
101.11111111111111
 21
144.65
 31
0.0
  0
LINE
  5
193
330
17
100
AcDbEntity
  8
MyLines
100
AcDbLine
 10
101.11111111111111
 20
144.65
 30
0.0
 11
101.62962962962963
 21
145.2
 31
0.0
  0
LINE
  5
194
330
17
100
AcDbEntity
  8
MyLines
100
AcDbLine
 10
101.62962962962963
 20
145.2
 30
0.0
 11
102.4074074074074
 21
145.2
 31
0.0
  0
LINE
  5
195
330
17
100
AcDbEntity
  8
MyLines
100
AcDbLine
 10
102.4074074074074
 20
145.2
 30
0.0
 11
102.66666666666667
 21
145.475
 31
0.0
  0
LINE
  5
196
330
17
100
AcDbEntity
  8
MyLines
100
AcDbLine
 10
102.66666666666667
 20
145.475
 30
0.0
 11
103.18518518518519
 21
145.475
 31
0.0
  0
LINE
  5
197
330
17
100
AcDbEntity
  8
MyLines
100
AcDbLine
 10
103.18518518518519
 20
145.475
 30
0.0
 11
103.44444444444444
 21
145.2
 31
0.0
  0
LINE
  5
198
330
17
100
AcDbEntity
  8
MyLines
100
AcDbLine
 10
103.44444444444444
 20
145.2
 30
0.0
 11
104.74074074074075
 21
145.2
 31
0.0
  0
LINE
  5
199
330
17
100
AcDbEntity
  8
MyLines
100
AcDbLine
 10
104.74074074074075
 20
145.2
 30
0.0
 11
105.0
 21
145.475
 31
0.0
  0
LINE
  5
19A
330
17
100
AcDbEntity
  8
MyLines
100
AcDbLine
 10
105.0
 20
145.475
 30
0.0
 11
109.14814814814815
 21
145.475
 31
0.0
  0
LINE
  5
19B
330
17
100
AcDbEntity
  8
MyLines
100
AcDbLine
 10
109.14814814814815
 20
145.475
 30
0.0
 11
109.4074074074074
 21
145.75
 31
0.0
  0
LINE
  5
19C
330
17
100
AcDbEntity
  8
MyLines
100
AcDbLine
 10
109.4074074074074
 20
145.75
 30
0.0
 11
118.48148148148148
 21
145.75
 31
0.0
  0
LINE
  5
19D
330
17
100
AcDbEntity
  8
MyLines
100
AcDbLine
 10
118.48148148148148
 20
145.75
 30
0.0
 11
118.74074074074075
 21
146.025
 31
0.0
  0
LINE
  5
19E
330
17
100
AcDbEntity
  8
MyLines
100
AcDbLine
 10
118.74074074074075
 20
146.025
 30
0.0
 11
119.0
 21
146.025
 31
0.0
  0
LINE
  5
19F
330
17
100
AcDbEntity
  8
MyLines
100
AcDbLine
 10
119.0
 20
146.025
 30
0.0
 11
119.25925925925925
 21
145.75
 31
0.0
  0
LINE
  5
1A0
330
17
100
AcDbEntity
  8
MyLines
100
AcDbLine
 10
119.25925925925925
 20
145.75
 30
0.0
 11
121.07407407407408
 21
145.75
 31
0.0
  0
LINE
  5
1A1
330
17
100
AcDbEntity
  8
MyLines
100
AcDbLine
 10
121.07407407407408
 20
145.75
 30
0.0
 11
121.33333333333333
 21
146.025
 31
0.0
  0
LINE
  5
1A2
330
17
100
AcDbEntity
  8
MyLines
100
AcDbLine
 10
121.33333333333333
 20
146.025
 30
0.0
 11
121.5925925925926
 21
145.75
 31
0.0
  0
LINE
  5
1A3
330
17
100
AcDbEntity
  8
MyLines
100
AcDbLine
 10
121.5925925925926
 20
145.75
 30
0.0
 11
124.96296296296296
 21
145.75
 31
0.0
  0
LINE
  5
1A4
330
17
100
AcDbEntity
  8
MyLines
100
AcDbLine
 10
124.96296296296296
 20
145.75
 30
0.0
 11
125.22222222222223
 21
146.025
 31
0.0
  0
LINE
  5
1A5
330
17
100
AcDbEntity
  8
MyLines
100
AcDbLine
 10
125.22222222222223
 20
146.025
 30
0.0
 11
125.48148148148148
 21
146.025
 31
0.0
  0
LINE
  5
1A6
330
17
100
AcDbEntity
  8
MyLines
100
AcDbLine
 10
125.48148148148148
 20
146.025
 30
0.0
 11
125.74074074074075
 21
145.75
 31
0.0
  0
LINE
  5
1A7
330
17
100
AcDbEntity
  8
MyLines
100
AcDbLine
 10
125.74074074074075
 20
145.75
 30
0.0
 11
128.07407407407408
 21
145.75
 31
0.0
  0
LINE
  5
1A8
330
17
100
AcDbEntity
  8
MyLines
100
AcDbLine
 10
128.07407407407408
 20
145.75
 30
0.0
 11
128.33333333333334
 21
146.025
 31
0.0
  0
LINE
  5
1A9
330
17
100
AcDbEntity
  8
MyLines
100
AcDbLine
 10
128.33333333333334
 20
146.025
 30
0.0
 11
128.59259259259258
 21
146.025
 31
0.0
  0
LINE
  5
1AA
330
17
100
AcDbEntity
  8
MyLines
100
AcDbLine
 10
128.59259259259258
 20
146.025
 30
0.0
 11
128.85185185185185
 21
145.75
 31
0.0
  0
LINE
  5
1AB
330
17
100
AcDbEntity
  8
MyLines
100
AcDbLine
 10
128.85185185185185
 20
145.75
 30
0.0
 11
129.37037037037038
 21
145.75
 31
0.0
  0
LINE
  5
1AC
330
17
100
AcDbEntity
  8
MyLines
100
AcDbLine
 10
129.37037037037038
 20
145.75
 30
0.0
 11
129.62962962962962
 21
145.475
 31
0.0
  0
LINE
  5
1AD
330
17
100
AcDbEntity
  8
MyLines
100
AcDbLine
 10
129.62962962962962
 20
145.475
 30
0.0
 11
130.14814814814815
 21
145.475
 31
0.0
  0
LINE
  5
1AE
330
17
100
AcDbEntity
  8
MyLines
100
AcDbLine
 10
130.14814814814815
 20
145.475
 30
0.0
 11
130.40740740740742
 21
145.75
 31
0.0
  0
LINE
  5
1AF
330
17
100
AcDbEntity
  8
MyLines
100
AcDbLine
 10
130.40740740740742
 20
145.75
 30
0.0
 11
133.5185185185185
 21
145.75
 31
0.0
  0
LINE
  5
1B0
330
17
100
AcDbEntity
  8
MyLines
100
AcDbLine
 10
133.5185185185185
 20
145.75
 30
0.0
 11
133.77777777777777
 21
145.475
 31
0.0
  0
LINE
  5
1B1
330
17
100
AcDbEntity
  8
MyLines
100
AcDbLine
 10
133.77777777777777
 20
145.475
 30
0.0
 11
130.92592592592592
 21
145.475
 31
0.0
  0
LINE
  5
1B2
330
17
100
AcDbEntity
  8
MyLines
100
AcDbLine
 10
130.92592592592592
 20
145.475
 30
0.0
 11
130.66666666666666
 21
145.2
 31
0.0
  0
LINE
  5
1B3
330
17
100
AcDbEntity
  8
MyLines
100
AcDbLine
 10
130.66666666666666
 20
145.2
 30
0.0
 11
129.37037037037038
 21
145.2
 31
0.0
  0
LINE
  5
1B4
330
17
100
AcDbEntity
  8
MyLines
100
AcDbLine
 10
129.37037037037038
 20
145.2
 30
0.0
 11
129.11111111111111
 21
144.925
 31
0.0
  0
LINE
  5
1B5
330
17
100
AcDbEntity
  8
MyLines
100
AcDbLine
 10
129.11111111111111
 20
144.925
 30
0.0
 11
124.96296296296296
 21
144.925
 31
0.0
  0
LINE
  5
1B6
330
17
100
AcDbEntity
  8
MyLines
100
AcDbLine
 10
124.96296296296296
 20
144.925
 30
0.0
 11
124.70370370370371
 21
144.65
 31
0.0
  0
LINE
  5
1B7
330
17
100
AcDbEntity
  8
MyLines
100
AcDbLine
 10
124.70370370370371
 20
144.65
 30
0.0
 11
119.25925925925925
 21
144.65
 31
0.0
  0
LINE
  5
1B8
330
17
100
AcDbEntity
  8
MyLines
100
AcDbLine
 10
119.25925925925925
 20
144.65
 30
0.0
 11
119.0
 21
144.375
 31
0.0
  0
LINE
  5
1B9
330
17
100
AcDbEntity
  8
MyLines
100
AcDbLine
 10
119.0
 20
144.375
 30
0.0
 11
113.81481481481481
 21
144.375
 31
0.0
  0
LINE
  5
1BA
330
17
100
AcDbEntity
  8
MyLines
100
AcDbLine
 10
113.81481481481481
 20
144.375
 30
0.0
 11
113.55555555555556
 21
144.1
 31
0.0
  0
LINE
  5
1BB
330
17
100
AcDbEntity
  8
MyLines
100
AcDbLine
 10
113.55555555555556
 20
144.1
 30
0.0
 11
113.03703703703704
 21
144.1
 31
0.0
  0
LINE
  5
1BC
330
17
100
AcDbEntity
  8
MyLines
100
AcDbLine
 10
113.03703703703704
 20
144.1
 30
0.0
 11
112.77777777777777
 21
144.375
 31
0.0
  0
LINE
  5
1BD
330
17
100
AcDbEntity
  8
MyLines
100
AcDbLine
 10
112.77777777777777
 20
144.375
 30
0.0
 11
111.22222222222223
 21
144.375
 31
0.0
  0
LINE
  5
1BE
330
17
100
AcDbEntity
  8
MyLines
100
AcDbLine
 10
111.22222222222223
 20
144.375
 30
0.0
 11
110.96296296296296
 21
144.1
 31
0.0
  0
LINE
  5
1BF
330
17
100
AcDbEntity
  8
MyLines
100
AcDbLine
 10
110.96296296296296
 20
144.1
 30
0.0
 11
105.77777777777777
 21
144.1
 31
0.0
  0
LINE
  5
1C0
330
17
100
AcDbEntity
  8
MyLines
100
AcDbLine
 10
105.77777777777777
 20
144.1
 30
0.0
 11
105.51851851851852
 21
144.375
 31
0.0
  0
LINE
  5
1C1
330
17
100
AcDbEntity
  8
MyLines
100
AcDbLine
 10
105.51851851851852
 20
144.375
 30
0.0
 11
105.25925925925925
 21
144.375
 31
0.0
  0
LINE
  5
1C2
330
17
100
AcDbEntity
  8
MyLines
100
AcDbLine
 10
105.25925925925925
 20
144.375
 30
0.0
 11
105.0
 21
144.1
 31
0.0
  0
LINE
  5
1C3
330
17
100
AcDbEntity
  8
MyLines
100
AcDbLine
 10
105.0
 20
144.1
 30
0.0
 11
101.37037037037037
 21
144.1
 31
0.0
  0
LINE
  5
1C4
330
17
100
AcDbEntity
  8
MyLines
100
AcDbLine
 10
96.70370370370371
 20
144.1
 30
0.0
 11
96.44444444444444
 21
144.375
 31
0.0
  0
LINE
  5
1C5
330
17
100
AcDbEntity
  8
MyLines
100
AcDbLine
 10
96.44444444444444
 20
144.375
 30
0.0
 11
96.96296296296296
 21
144.925
 31
0.0
  0
LINE
  5
1C6
330
17
100
AcDbEntity
  8
MyLines
100
AcDbLine
 10
96.96296296296296
 20
144.925
 30
0.0
 11
97.22222222222223
 21
144.925
 31
0.0
  0
LINE
  5
1C7
330
17
100
AcDbEntity
  8
MyLines
100
AcDbLine
 10
97.22222222222223
 20
144.925
 30
0.0
 11
97.48148148148148
 21
144.65
 31
0.0
  0
LINE
  5
1C8
330
17
100
AcDbEntity
  8
MyLines
100
AcDbLine
 10
97.48148148148148
 20
144.65
 30
0.0
 11
98.77777777777777
 21
144.65
 31
0.0
  0
LINE
  5
1C9
330
17
100
AcDbEntity
  8
MyLines
100
AcDbLine
 10
98.77777777777777
 20
144.65
 30
0.0
 11
99.03703703703704
 21
144.925
 31
0.0
  0
LINE
  5
1CA
330
17
100
AcDbEntity
  8
MyLines
100
AcDbLine
 10
99.03703703703704
 20
144.925
 30
0.0
 11
99.55555555555556
 21
144.925
 31
0.0
  0
LINE
  5
1CB
330
17
100
AcDbEntity
  8
MyLines
100
AcDbLine
 10
99.55555555555556
 20
144.925
 30
0.0
 11
99.81481481481481
 21
144.65
 31
0.0
  0
LINE
  5
1CC
330
17
100
AcDbEntity
  8
MyLines
100
AcDbLine
 10
99.81481481481481
 20
144.65
 30
0.0
 11
99.81481481481481
 21
144.375
 31
0.0
  0
LINE
  5
1CD
330
17
100
AcDbEntity
  8
MyLines
100
AcDbLine
 10
99.81481481481481
 20
144.375
 30
0.0
 11
99.29629629629629
 21
144.375
 31
0.0
  0
LINE
  5
1CE
330
17
100
AcDbEntity
  8
MyLines
100
AcDbLine
 10
99.29629629629629
 20
144.375
 30
0.0
 11
99.03703703703704
 21
144.1
 31
0.0
  0
LINE
  5
1CF
330
17
100
AcDbEntity
  8
MyLines
100
AcDbLine
 10
99.03703703703704
 20
144.1
 30
0.0
 11
96.70370370370371
 21
144.1
 31
0.0
  0
LINE
  5
1D0
330
17
100
AcDbEntity
  8
MyLines
100
AcDbLine
 10
71.55555555555556
 20
83.05
 30
0.0
 11
71.29629629629629
 21
83.325
 31
0.0
  0
LINE
  5
1D1
330
17
100
AcDbEntity
  8
MyLines
100
AcDbLine
 10
71.29629629629629
 20
83.325
 30
0.0
 11
70.51851851851852
 21
83.325
 31
0.0
  0
LINE
  5
1D2
330
17
100
AcDbEntity
  8
MyLines
100
AcDbLine
 10
70.51851851851852
 20
83.325
 30
0.0
 11
70.25925925925925
 21
83.6
 31
0.0
  0
LINE
  5
1D3
330
17
100
AcDbEntity
  8
MyLines
100
AcDbLine
 10
70.25925925925925
 20
83.6
 30
0.0
 11
68.96296296296296
 21
83.6
 31
0.0
  0
LINE
  5
1D4
330
17
100
AcDbEntity
  8
MyLines
100
AcDbLine
 10
68.96296296296296
 20
83.6
 30
0.0
 11
68.70370370370371
 21
83.875
 31
0.0
  0
LINE
  5
1D5
330
17
100
AcDbEntity
  8
MyLines
100
AcDbLine
 10
68.70370370370371
 20
83.875
 30
0.0
 11
68.44444444444444
 21
83.875
 31
0.0
  0
LINE
  5
1D6
330
17
100
AcDbEntity
  8
MyLines
100
AcDbLine
 10
68.44444444444444
 20
83.875
 30
0.0
 11
68.18518518518519
 21
84.15
 31
0.0
  0
LINE
  5
1D7
330
17
100
AcDbEntity
  8
MyLines
100
AcDbLine
 10
68.18518518518519
 20
84.15
 30
0.0
 11
67.66666666666667
 21
84.15
 31
0.0
  0
LINE
  5
1D8
330
17
100
AcDbEntity
  8
MyLines
100
AcDbLine
 10
67.66666666666667
 20
84.15
 30
0.0
 11
67.4074074074074
 21
84.425
 31
0.0
  0
LINE
  5
1D9
330
17
100
AcDbEntity
  8
MyLines
100
AcDbLine
 10
67.4074074074074
 20
84.425
 30
0.0
 11
67.14814814814815
 21
84.425
 31
0.0
  0
LINE
  5
1DA
330
17
100
AcDbEntity
  8
MyLines
100
AcDbLine
 10
67.14814814814815
 20
84.425
 30
0.0
 11
66.88888888888889
 21
84.7
 31
0.0
  0
LINE
  5
1DB
330
17
100
AcDbEntity
  8
MyLines
100
AcDbLine
 10
66.88888888888889
 20
84.7
 30
0.0
 11
66.62962962962963
 21
84.7
 31
0.0
  0
LINE
  5
1DC
330
17
100
AcDbEntity
  8
MyLines
100
AcDbLine
 10
66.62962962962963
 20
84.7
 30
0.0
 11
66.37037037037037
 21
84.975
 31
0.0
  0
LINE
  5
1DD
330
17
100
AcDbEntity
  8
MyLines
100
AcDbLine
 10
66.37037037037037
 20
84.975
 30
0.0
 11
66.11111111111111
 21
84.975
 31
0.0
  0
LINE
  5
1DE
330
17
100
AcDbEntity
  8
MyLines
100
AcDbLine
 10
66.11111111111111
 20
84.975
 30
0.0
 11
65.85185185185185
 21
85.25
 31
0.0
  0
LINE
  5
1DF
330
17
100
AcDbEntity
  8
MyLines
100
AcDbLine
 10
65.85185185185185
 20
85.25
 30
0.0
 11
65.5925925925926
 21
85.25
 31
0.0
  0
LINE
  5
1E0
330
17
100
AcDbEntity
  8
MyLines
100
AcDbLine
 10
65.5925925925926
 20
85.25
 30
0.0
 11
63.77777777777778
 21
87.175
 31
0.0
  0
LINE
  5
1E1
330
17
100
AcDbEntity
  8
MyLines
100
AcDbLine
 10
63.77777777777778
 20
87.175
 30
0.0
 11
63.77777777777778
 21
87.45
 31
0.0
  0
LINE
  5
1E2
330
17
100
AcDbEntity
  8
MyLines
100
AcDbLine
 10
63.77777777777778
 20
87.45
 30
0.0
 11
63.25925925925926
 21
88.0
 31
0.0
  0
LINE
  5
1E3
330
17
100
AcDbEntity
  8
MyLines
100
AcDbLine
 10
63.25925925925926
 20
88.0
 30
0.0
 11
63.25925925925926
 21
88.275
 31
0.0
  0
LINE
  5
1E4
330
17
100
AcDbEntity
  8
MyLines
100
AcDbLine
 10
63.25925925925926
 20
88.275
 30
0.0
 11
63.0
 21
88.55
 31
0.0
  0
LINE
  5
1E5
330
17
100
AcDbEntity
  8
MyLines
100
AcDbLine
 10
63.0
 20
88.55
 30
0.0
 11
63.0
 21
88.825
 31
0.0
  0
LINE
  5
1E6
330
17
100
AcDbEntity
  8
MyLines
100
AcDbLine
 10
63.0
 20
88.825
 30
0.0
 11
62.74074074074074
 21
89.1
 31
0.0
  0
LINE
  5
1E7
330
17
100
AcDbEntity
  8
MyLines
100
AcDbLine
 10
62.74074074074074
 20
89.1
 30
0.0
 11
62.74074074074074
 21
89.65
 31
0.0
  0
LINE
  5
1E8
330
17
100
AcDbEntity
  8
MyLines
100
AcDbLine
 10
62.74074074074074
 20
89.65
 30
0.0
 11
62.48148148148148
 21
89.925
 31
0.0
  0
LINE
  5
1E9
330
17
100
AcDbEntity
  8
MyLines
100
AcDbLine
 10
62.48148148148148
 20
89.925
 30
0.0
 11
62.48148148148148
 21
90.75
 31
0.0
  0
LINE
  5
1EA
330
17
100
AcDbEntity
  8
MyLines
100
AcDbLine
 10
62.48148148148148
 20
90.75
 30
0.0
 11
62.22222222222222
 21
91.025
 31
0.0
  0
LINE
  5
1EB
330
17
100
AcDbEntity
  8
MyLines
100
AcDbLine
 10
62.22222222222222
 20
91.025
 30
0.0
 11
62.22222222222222
 21
92.4
 31
0.0
  0
LINE
  5
1EC
330
17
100
AcDbEntity
  8
MyLines
100
AcDbLine
 10
62.22222222222222
 20
92.4
 30
0.0
 11
61.96296296296296
 21
92.675
 31
0.0
  0
LINE
  5
1ED
330
17
100
AcDbEntity
  8
MyLines
100
AcDbLine
 10
61.96296296296296
 20
92.675
 30
0.0
 11
61.96296296296296
 21
96.525
 31
0.0
  0
LINE
  5
1EE
330
17
100
AcDbEntity
  8
MyLines
100
AcDbLine
 10
61.96296296296296
 20
96.525
 30
0.0
 11
62.22222222222222
 21
96.8
 31
0.0
  0
LINE
  5
1EF
330
17
100
AcDbEntity
  8
MyLines
100
AcDbLine
 10
62.22222222222222
 20
96.8
 30
0.0
 11
62.22222222222222
 21
99.55
 31
0.0
  0
LINE
  5
1F0
330
17
100
AcDbEntity
  8
MyLines
100
AcDbLine
 10
62.22222222222222
 20
99.55
 30
0.0
 11
62.48148148148148
 21
99.825
 31
0.0
  0
LINE
  5
1F1
330
17
100
AcDbEntity
  8
MyLines
100
AcDbLine
 10
62.48148148148148
 20
99.825
 30
0.0
 11
62.48148148148148
 21
103.4
 31
0.0
  0
LINE
  5
1F2
330
17
100
AcDbEntity
  8
MyLines
100
AcDbLine
 10
62.48148148148148
 20
103.4
 30
0.0
 11
62.74074074074074
 21
103.675
 31
0.0
  0
LINE
  5
1F3
330
17
100
AcDbEntity
  8
MyLines
100
AcDbLine
 10
62.74074074074074
 20
103.675
 30
0.0
 11
62.74074074074074
 21
105.325
 31
0.0
  0
LINE
  5
1F4
330
17
100
AcDbEntity
  8
MyLines
100
AcDbLine
 10
62.74074074074074
 20
105.325
 30
0.0
 11
63.0
 21
105.6
 31
0.0
  0
LINE
  5
1F5
330
17
100
AcDbEntity
  8
MyLines
100
AcDbLine
 10
63.0
 20
105.6
 30
0.0
 11
63.0
 21
107.25
 31
0.0
  0
LINE
  5
1F6
330
17
100
AcDbEntity
  8
MyLines
100
AcDbLine
 10
63.0
 20
107.25
 30
0.0
 11
63.25925925925926
 21
107.525
 31
0.0
  0
LINE
  5
1F7
330
17
100
AcDbEntity
  8
MyLines
100
AcDbLine
 10
63.25925925925926
 20
107.525
 30
0.0
 11
63.25925925925926
 21
111.65
 31
0.0
  0
LINE
  5
1F8
330
17
100
AcDbEntity
  8
MyLines
100
AcDbLine
 10
63.25925925925926
 20
111.65
 30
0.0
 11
63.51851851851852
 21
111.925
 31
0.0
  0
LINE
  5
1F9
330
17
100
AcDbEntity
  8
MyLines
100
AcDbLine
 10
63.51851851851852
 20
111.925
 30
0.0
 11
63.51851851851852
 21
114.675
 31
0.0
  0
LINE
  5
1FA
330
17
100
AcDbEntity
  8
MyLines
100
AcDbLine
 10
63.51851851851852
 20
114.675
 30
0.0
 11
63.77777777777778
 21
114.95
 31
0.0
  0
LINE
  5
1FB
330
17
100
AcDbEntity
  8
MyLines
100
AcDbLine
 10
63.77777777777778
 20
114.95
 30
0.0
 11
63.77777777777778
 21
116.325
 31
0.0
  0
LINE
  5
1FC
330
17
100
AcDbEntity
  8
MyLines
100
AcDbLine
 10
63.77777777777778
 20
116.325
 30
0.0
 11
64.03703703703704
 21
116.6
 31
0.0
  0
LINE
  5
1FD
330
17
100
AcDbEntity
  8
MyLines
100
AcDbLine
 10
64.03703703703704
 20
116.6
 30
0.0
 11
64.03703703703704
 21
117.975
 31
0.0
  0
LINE
  5
1FE
330
17
100
AcDbEntity
  8
MyLines
100
AcDbLine
 10
64.03703703703704
 20
117.975
 30
0.0
 11
64.29629629629629
 21
118.25
 31
0.0
  0
LINE
  5
1FF
330
17
100
AcDbEntity
  8
MyLines
100
AcDbLine
 10
64.29629629629629
 20
118.25
 30
0.0
 11
64.29629629629629
 21
118.8
 31
0.0
  0
LINE
  5
200
330
17
100
AcDbEntity
  8
MyLines
100
AcDbLine
 10
64.29629629629629
 20
118.8
 30
0.0
 11
64.55555555555556
 21
119.075
 31
0.0
  0
LINE
  5
201
330
17
100
AcDbEntity
  8
MyLines
100
AcDbLine
 10
64.55555555555556
 20
119.075
 30
0.0
 11
64.55555555555556
 21
121.55
 31
0.0
  0
LINE
  5
202
330
17
100
AcDbEntity
  8
MyLines
100
AcDbLine
 10
64.55555555555556
 20
121.55
 30
0.0
 11
64.81481481481481
 21
121.825
 31
0.0
  0
LINE
  5
203
330
17
100
AcDbEntity
  8
MyLines
100
AcDbLine
 10
64.81481481481481
 20
121.825
 30
0.0
 11
64.81481481481481
 21
124.3
 31
0.0
  0
LINE
  5
204
330
17
100
AcDbEntity
  8
MyLines
100
AcDbLine
 10
64.81481481481481
 20
124.3
 30
0.0
 11
65.07407407407408
 21
124.575
 31
0.0
  0
LINE
  5
205
330
17
100
AcDbEntity
  8
MyLines
100
AcDbLine
 10
65.07407407407408
 20
124.575
 30
0.0
 11
65.07407407407408
 21
126.5
 31
0.0
  0
LINE
  5
206
330
17
100
AcDbEntity
  8
MyLines
100
AcDbLine
 10
65.07407407407408
 20
126.5
 30
0.0
 11
65.33333333333333
 21
126.775
 31
0.0
  0
LINE
  5
207
330
17
100
AcDbEntity
  8
MyLines
100
AcDbLine
 10
65.33333333333333
 20
126.775
 30
0.0
 11
65.33333333333333
 21
128.15
 31
0.0
  0
LINE
  5
208
330
17
100
AcDbEntity
  8
MyLines
100
AcDbLine
 10
65.33333333333333
 20
128.15
 30
0.0
 11
65.5925925925926
 21
128.425
 31
0.0
  0
LINE
  5
209
330
17
100
AcDbEntity
  8
MyLines
100
AcDbLine
 10
65.5925925925926
 20
128.425
 30
0.0
 11
65.5925925925926
 21
129.8
 31
0.0
  0
LINE
  5
20A
330
17
100
AcDbEntity
  8
MyLines
100
AcDbLine
 10
65.5925925925926
 20
129.8
 30
0.0
 11
65.85185185185185
 21
130.075
 31
0.0
  0
LINE
  5
20B
330
17
100
AcDbEntity
  8
MyLines
100
AcDbLine
 10
65.85185185185185
 20
130.075
 30
0.0
 11
65.85185185185185
 21
131.175
 31
0.0
  0
LINE
  5
20C
330
17
100
AcDbEntity
  8
MyLines
100
AcDbLine
 10
65.85185185185185
 20
131.175
 30
0.0
 11
66.11111111111111
 21
131.45
 31
0.0
  0
LINE
  5
20D
330
17
100
AcDbEntity
  8
MyLines
100
AcDbLine
 10
66.11111111111111
 20
131.45
 30
0.0
 11
66.11111111111111
 21
132.0
 31
0.0
  0
LINE
  5
20E
330
17
100
AcDbEntity
  8
MyLines
100
AcDbLine
 10
66.11111111111111
 20
132.0
 30
0.0
 11
66.37037037037037
 21
132.275
 31
0.0
  0
LINE
  5
20F
330
17
100
AcDbEntity
  8
MyLines
100
AcDbLine
 10
66.37037037037037
 20
132.275
 30
0.0
 11
66.37037037037037
 21
132.55
 31
0.0
  0
LINE
  5
210
330
17
100
AcDbEntity
  8
MyLines
100
AcDbLine
 10
66.37037037037037
 20
132.55
 30
0.0
 11
66.62962962962963
 21
132.825
 31
0.0
  0
LINE
  5
211
330
17
100
AcDbEntity
  8
MyLines
100
AcDbLine
 10
66.62962962962963
 20
132.825
 30
0.0
 11
66.62962962962963
 21
133.375
 31
0.0
  0
LINE
  5
212
330
17
100
AcDbEntity
  8
MyLines
100
AcDbLine
 10
66.62962962962963
 20
133.375
 30
0.0
 11
66.88888888888889
 21
133.65
 31
0.0
  0
LINE
  5
213
330
17
100
AcDbEntity
  8
MyLines
100
AcDbLine
 10
66.88888888888889
 20
133.65
 30
0.0
 11
66.88888888888889
 21
133.925
 31
0.0
  0
LINE
  5
214
330
17
100
AcDbEntity
  8
MyLines
100
AcDbLine
 10
66.88888888888889
 20
133.925
 30
0.0
 11
67.14814814814815
 21
134.2
 31
0.0
  0
LINE
  5
215
330
17
100
AcDbEntity
  8
MyLines
100
AcDbLine
 10
67.14814814814815
 20
134.2
 30
0.0
 11
67.14814814814815
 21
134.475
 31
0.0
  0
LINE
  5
216
330
17
100
AcDbEntity
  8
MyLines
100
AcDbLine
 10
67.14814814814815
 20
134.475
 30
0.0
 11
67.66666666666667
 21
135.025
 31
0.0
  0
LINE
  5
217
330
17
100
AcDbEntity
  8
MyLines
100
AcDbLine
 10
67.66666666666667
 20
135.025
 30
0.0
 11
67.66666666666667
 21
135.3
 31
0.0
  0
LINE
  5
218
330
17
100
AcDbEntity
  8
MyLines
100
AcDbLine
 10
67.66666666666667
 20
135.3
 30
0.0
 11
69.48148148148148
 21
137.225
 31
0.0
  0
LINE
  5
219
330
17
100
AcDbEntity
  8
MyLines
100
AcDbLine
 10
69.48148148148148
 20
137.225
 30
0.0
 11
69.74074074074075
 21
137.225
 31
0.0
  0
LINE
  5
21A
330
17
100
AcDbEntity
  8
MyLines
100
AcDbLine
 10
69.74074074074075
 20
137.225
 30
0.0
 11
70.51851851851852
 21
138.05
 31
0.0
  0
LINE
  5
21B
330
17
100
AcDbEntity
  8
MyLines
100
AcDbLine
 10
70.51851851851852
 20
138.05
 30
0.0
 11
70.77777777777777
 21
138.05
 31
0.0
  0
LINE
  5
21C
330
17
100
AcDbEntity
  8
MyLines
100
AcDbLine
 10
70.77777777777777
 20
138.05
 30
0.0
 11
71.03703703703704
 21
138.325
 31
0.0
  0
LINE
  5
21D
330
17
100
AcDbEntity
  8
MyLines
100
AcDbLine
 10
71.03703703703704
 20
138.325
 30
0.0
 11
71.29629629629629
 21
138.325
 31
0.0
  0
LINE
  5
21E
330
17
100
AcDbEntity
  8
MyLines
100
AcDbLine
 10
71.29629629629629
 20
138.325
 30
0.0
 11
71.55555555555556
 21
138.6
 31
0.0
  0
LINE
  5
21F
330
17
100
AcDbEntity
  8
MyLines
100
AcDbLine
 10
71.55555555555556
 20
138.6
 30
0.0
 11
71.81481481481481
 21
138.6
 31
0.0
  0
LINE
  5
220
330
17
100
AcDbEntity
  8
MyLines
100
AcDbLine
 10
71.81481481481481
 20
138.6
 30
0.0
 11
72.07407407407408
 21
138.875
 31
0.0
  0
LINE
  5
221
330
17
100
AcDbEntity
  8
MyLines
100
AcDbLine
 10
72.07407407407408
 20
138.875
 30
0.0
 11
72.33333333333333
 21
138.875
 31
0.0
  0
LINE
  5
222
330
17
100
AcDbEntity
  8
MyLines
100
AcDbLine
 10
72.33333333333333
 20
138.875
 30
0.0
 11
72.5925925925926
 21
139.15
 31
0.0
  0
LINE
  5
223
330
17
100
AcDbEntity
  8
MyLines
100
AcDbLine
 10
72.5925925925926
 20
139.15
 30
0.0
 11
72.85185185185185
 21
139.15
 31
0.0
  0
LINE
  5
224
330
17
100
AcDbEntity
  8
MyLines
100
AcDbLine
 10
72.85185185185185
 20
139.15
 30
0.0
 11
73.11111111111111
 21
139.425
 31
0.0
  0
LINE
  5
225
330
17
100
AcDbEntity
  8
MyLines
100
AcDbLine
 10
73.11111111111111
 20
139.425
 30
0.0
 11
73.62962962962963
 21
139.425
 31
0.0
  0
LINE
  5
226
330
17
100
AcDbEntity
  8
MyLines
100
AcDbLine
 10
73.62962962962963
 20
139.425
 30
0.0
 11
73.88888888888889
 21
139.7
 31
0.0
  0
LINE
  5
227
330
17
100
AcDbEntity
  8
MyLines
100
AcDbLine
 10
73.88888888888889
 20
139.7
 30
0.0
 11
74.4074074074074
 21
139.7
 31
0.0
  0
LINE
  5
228
330
17
100
AcDbEntity
  8
MyLines
100
AcDbLine
 10
74.4074074074074
 20
139.7
 30
0.0
 11
74.66666666666667
 21
139.975
 31
0.0
  0
LINE
  5
229
330
17
100
AcDbEntity
  8
MyLines
100
AcDbLine
 10
74.66666666666667
 20
139.975
 30
0.0
 11
75.44444444444444
 21
139.975
 31
0.0
  0
LINE
  5
22A
330
17
100
AcDbEntity
  8
MyLines
100
AcDbLine
 10
75.44444444444444
 20
139.975
 30
0.0
 11
75.70370370370371
 21
140.25
 31
0.0
  0
LINE
  5
22B
330
17
100
AcDbEntity
  8
MyLines
100
AcDbLine
 10
75.70370370370371
 20
140.25
 30
0.0
 11
77.0
 21
140.25
 31
0.0
  0
LINE
  5
22C
330
17
100
AcDbEntity
  8
MyLines
100
AcDbLine
 10
77.0
 20
140.25
 30
0.0
 11
77.25925925925925
 21
140.525
 31
0.0
  0
LINE
  5
22D
330
17
100
AcDbEntity
  8
MyLines
100
AcDbLine
 10
77.25925925925925
 20
140.525
 30
0.0
 11
79.85185185185185
 21
140.525
 31
0.0
  0
LINE
  5
22E
330
17
100
AcDbEntity
  8
MyLines
100
AcDbLine
 10
79.85185185185185
 20
140.525
 30
0.0
 11
80.11111111111111
 21
140.8
 31
0.0
  0
LINE
  5
22F
330
17
100
AcDbEntity
  8
MyLines
100
AcDbLine
 10
80.11111111111111
 20
140.8
 30
0.0
 11
86.33333333333333
 21
140.8
 31
0.0
  0
LINE
  5
230
330
17
100
AcDbEntity
  8
MyLines
100
AcDbLine
 10
86.33333333333333
 20
140.8
 30
0.0
 11
86.5925925925926
 21
141.075
 31
0.0
  0
LINE
  5
231
330
17
100
AcDbEntity
  8
MyLines
100
AcDbLine
 10
86.5925925925926
 20
141.075
 30
0.0
 11
93.5925925925926
 21
141.075
 31
0.0
  0
LINE
  5
232
330
17
100
AcDbEntity
  8
MyLines
100
AcDbLine
 10
93.5925925925926
 20
141.075
 30
0.0
 11
93.85185185185185
 21
141.35
 31
0.0
  0
LINE
  5
233
330
17
100
AcDbEntity
  8
MyLines
100
AcDbLine
 10
93.85185185185185
 20
141.35
 30
0.0
 11
101.62962962962963
 21
141.35
 31
0.0
  0
LINE
  5
234
330
17
100
AcDbEntity
  8
MyLines
100
AcDbLine
 10
101.62962962962963
 20
141.35
 30
0.0
 11
101.88888888888889
 21
141.625
 31
0.0
  0
LINE
  5
235
330
17
100
AcDbEntity
  8
MyLines
100
AcDbLine
 10
101.88888888888889
 20
141.625
 30
0.0
 11
109.4074074074074
 21
141.625
 31
0.0
  0
LINE
  5
236
330
17
100
AcDbEntity
  8
MyLines
100
AcDbLine
 10
109.4074074074074
 20
141.625
 30
0.0
 11
109.66666666666667
 21
141.9
 31
0.0
  0
LINE
  5
237
330
17
100
AcDbEntity
  8
MyLines
100
AcDbLine
 10
109.66666666666667
 20
141.9
 30
0.0
 11
116.66666666666667
 21
141.9
 31
0.0
  0
LINE
  5
238
330
17
100
AcDbEntity
  8
MyLines
100
AcDbLine
 10
116.66666666666667
 20
141.9
 30
0.0
 11
116.92592592592592
 21
142.175
 31
0.0
  0
LINE
  5
239
330
17
100
AcDbEntity
  8
MyLines
100
AcDbLine
 10
116.92592592592592
 20
142.175
 30
0.0
 11
123.92592592592592
 21
142.175
 31
0.0
  0
LINE
  5
23A
330
17
100
AcDbEntity
  8
MyLines
100
AcDbLine
 10
123.92592592592592
 20
142.175
 30
0.0
 11
124.18518518518519
 21
142.45
 31
0.0
  0
LINE
  5
23B
330
17
100
AcDbEntity
  8
MyLines
100
AcDbLine
 10
124.18518518518519
 20
142.45
 30
0.0
 11
131.1851851851852
 21
142.45
 31
0.0
  0
LINE
  5
23C
330
17
100
AcDbEntity
  8
MyLines
100
AcDbLine
 10
131.1851851851852
 20
142.45
 30
0.0
 11
131.44444444444446
 21
142.725
 31
0.0
  0
LINE
  5
23D
330
17
100
AcDbEntity
  8
MyLines
100
AcDbLine
 10
131.44444444444446
 20
142.725
 30
0.0
 11
137.92592592592592
 21
142.725
 31
0.0
  0
LINE
  5
23E
330
17
100
AcDbEntity
  8
MyLines
100
AcDbLine
 10
137.92592592592592
 20
142.725
 30
0.0
 11
138.1851851851852
 21
143.0
 31
0.0
  0
LINE
  5
23F
330
17
100
AcDbEntity
  8
MyLines
100
AcDbLine
 10
138.1851851851852
 20
143.0
 30
0.0
 11
145.44444444444446
 21
143.0
 31
0.0
  0
LINE
  5
240
330
17
100
AcDbEntity
  8
MyLines
100
AcDbLine
 10
145.44444444444446
 20
143.0
 30
0.0
 11
145.7037037037037
 21
143.275
 31
0.0
  0
LINE
  5
241
330
17
100
AcDbEntity
  8
MyLines
100
AcDbLine
 10
145.7037037037037
 20
143.275
 30
0.0
 11
151.40740740740742
 21
143.275
 31
0.0
  0
LINE
  5
242
330
17
100
AcDbEntity
  8
MyLines
100
AcDbLine
 10
151.40740740740742
 20
143.275
 30
0.0
 11
151.66666666666666
 21
143.55
 31
0.0
  0
LINE
  5
243
330
17
100
AcDbEntity
  8
MyLines
100
AcDbLine
 10
151.66666666666666
 20
143.55
 30
0.0
 11
157.88888888888889
 21
143.55
 31
0.0
  0
LINE
  5
244
330
17
100
AcDbEntity
  8
MyLines
100
AcDbLine
 10
157.88888888888889
 20
143.55
 30
0.0
 11
158.14814814814815
 21
143.825
 31
0.0
  0
LINE
  5
245
330
17
100
AcDbEntity
  8
MyLines
100
AcDbLine
 10
158.14814814814815
 20
143.825
 30
0.0
 11
166.7037037037037
 21
143.825
 31
0.0
  0
LINE
  5
246
330
17
100
AcDbEntity
  8
MyLines
100
AcDbLine
 10
166.7037037037037
 20
143.825
 30
0.0
 11
166.96296296296296
 21
144.1
 31
0.0
  0
LINE
  5
247
330
17
100
AcDbEntity
  8
MyLines
100
AcDbLine
 10
166.96296296296296
 20
144.1
 30
0.0
 11
173.44444444444446
 21
144.1
 31
0.0
  0
LINE
  5
248
330
17
100
AcDbEntity
  8
MyLines
100
AcDbLine
 10
173.44444444444446
 20
144.1
 30
0.0
 11
173.7037037037037
 21
144.375
 31
0.0
  0
LINE
  5
249
330
17
100
AcDbEntity
  8
MyLines
100
AcDbLine
 10
173.7037037037037
 20
144.375
 30
0.0
 11
179.92592592592592
 21
144.375
 31
0.0
  0
LINE
  5
24A
330
17
100
AcDbEntity
  8
MyLines
100
AcDbLine
 10
179.92592592592592
 20
144.375
 30
0.0
 11
180.1851851851852
 21
144.65
 31
0.0
  0
LINE
  5
24B
330
17
100
AcDbEntity
  8
MyLines
100
AcDbLine
 10
180.1851851851852
 20
144.65
 30
0.0
 11
182.25925925925927
 21
144.65
 31
0.0
  0
LINE
  5
24C
330
17
100
AcDbEntity
  8
MyLines
100
AcDbLine
 10
182.25925925925927
 20
144.65
 30
0.0
 11
182.5185185185185
 21
144.375
 31
0.0
  0
LINE
  5
24D
330
17
100
AcDbEntity
  8
MyLines
100
AcDbLine
 10
182.5185185185185
 20
144.375
 30
0.0
 11
183.03703703703704
 21
144.375
 31
0.0
  0
LINE
  5
24E
330
17
100
AcDbEntity
  8
MyLines
100
AcDbLine
 10
183.03703703703704
 20
144.375
 30
0.0
 11
183.2962962962963
 21
144.65
 31
0.0
  0
LINE
  5
24F
330
17
100
AcDbEntity
  8
MyLines
100
AcDbLine
 10
183.2962962962963
 20
144.65
 30
0.0
 11
183.8148148148148
 21
144.65
 31
0.0
  0
LINE
  5
250
330
17
100
AcDbEntity
  8
MyLines
100
AcDbLine
 10
183.8148148148148
 20
144.65
 30
0.0
 11
184.07407407407408
 21
144.925
 31
0.0
  0
LINE
  5
251
330
17
100
AcDbEntity
  8
MyLines
100
AcDbLine
 10
184.07407407407408
 20
144.925
 30
0.0
 11
188.4814814814815
 21
144.925
 31
0.0
  0
LINE
  5
252
330
17
100
AcDbEntity
  8
MyLines
100
AcDbLine
 10
188.4814814814815
 20
144.925
 30
0.0
 11
188.74074074074073
 21
145.2
 31
0.0
  0
LINE
  5
253
330
17
100
AcDbEntity
  8
MyLines
100
AcDbLine
 10
188.74074074074073
 20
145.2
 30
0.0
 11
194.1851851851852
 21
145.2
 31
0.0
  0
LINE
  5
254
330
17
100
AcDbEntity
  8
MyLines
100
AcDbLine
 10
194.1851851851852
 20
145.2
 30
0.0
 11
194.44444444444446
 21
145.475
 31
0.0
  0
LINE
  5
255
330
17
100
AcDbEntity
  8
MyLines
100
AcDbLine
 10
194.44444444444446
 20
145.475
 30
0.0
 11
201.44444444444446
 21
145.475
 31
0.0
  0
LINE
  5
256
330
17
100
AcDbEntity
  8
MyLines
100
AcDbLine
 10
201.44444444444446
 20
145.475
 30
0.0
 11
201.7037037037037
 21
145.75
 31
0.0
  0
LINE
  5
257
330
17
100
AcDbEntity
  8
MyLines
100
AcDbLine
 10
201.7037037037037
 20
145.75
 30
0.0
 11
205.85185185185185
 21
145.75
 31
0.0
  0
LINE
  5
258
330
17
100
AcDbEntity
  8
MyLines
100
AcDbLine
 10
205.85185185185185
 20
145.75
 30
0.0
 11
206.11111111111111
 21
146.025
 31
0.0
  0
LINE
  5
259
330
17
100
AcDbEntity
  8
MyLines
100
AcDbLine
 10
206.11111111111111
 20
146.025
 30
0.0
 11
211.55555555555554
 21
146.025
 31
0.0
  0
LINE
  5
25A
330
17
100
AcDbEntity
  8
MyLines
100
AcDbLine
 10
211.55555555555554
 20
146.025
 30
0.0
 11
211.8148148148148
 21
145.75
 31
0.0
  0
LINE
  5
25B
330
17
100
AcDbEntity
  8
MyLines
100
AcDbLine
 10
211.8148148148148
 20
145.75
 30
0.0
 11
213.88888888888889
 21
145.75
 31
0.0
  0
LINE
  5
25C
330
17
100
AcDbEntity
  8
MyLines
100
AcDbLine
 10
213.88888888888889
 20
145.75
 30
0.0
 11
214.14814814814815
 21
145.475
 31
0.0
  0
LINE
  5
25D
330
17
100
AcDbEntity
  8
MyLines
100
AcDbLine
 10
214.14814814814815
 20
145.475
 30
0.0
 11
215.44444444444446
 21
145.475
 31
0.0
  0
LINE
  5
25E
330
17
100
AcDbEntity
  8
MyLines
100
AcDbLine
 10
215.44444444444446
 20
145.475
 30
0.0
 11
215.7037037037037
 21
145.2
 31
0.0
  0
LINE
  5
25F
330
17
100
AcDbEntity
  8
MyLines
100
AcDbLine
 10
215.7037037037037
 20
145.2
 30
0.0
 11
216.22222222222223
 21
145.2
 31
0.0
  0
LINE
  5
260
330
17
100
AcDbEntity
  8
MyLines
100
AcDbLine
 10
216.22222222222223
 20
145.2
 30
0.0
 11
216.4814814814815
 21
144.925
 31
0.0
  0
LINE
  5
261
330
17
100
AcDbEntity
  8
MyLines
100
AcDbLine
 10
216.4814814814815
 20
144.925
 30
0.0
 11
217.0
 21
144.925
 31
0.0
  0
LINE
  5
262
330
17
100
AcDbEntity
  8
MyLines
100
AcDbLine
 10
217.0
 20
144.925
 30
0.0
 11
217.25925925925927
 21
144.65
 31
0.0
  0
LINE
  5
263
330
17
100
AcDbEntity
  8
MyLines
100
AcDbLine
 10
217.25925925925927
 20
144.65
 30
0.0
 11
217.77777777777777
 21
144.65
 31
0.0
  0
LINE
  5
264
330
17
100
AcDbEntity
  8
MyLines
100
AcDbLine
 10
217.77777777777777
 20
144.65
 30
0.0
 11
218.03703703703704
 21
144.375
 31
0.0
  0
LINE
  5
265
330
17
100
AcDbEntity
  8
MyLines
100
AcDbLine
 10
218.03703703703704
 20
144.375
 30
0.0
 11
218.2962962962963
 21
144.375
 31
0.0
  0
LINE
  5
266
330
17
100
AcDbEntity
  8
MyLines
100
AcDbLine
 10
218.2962962962963
 20
144.375
 30
0.0
 11
218.55555555555554
 21
144.1
 31
0.0
  0
LINE
  5
267
330
17
100
AcDbEntity
  8
MyLines
100
AcDbLine
 10
218.55555555555554
 20
144.1
 30
0.0
 11
218.8148148148148
 21
144.1
 31
0.0
  0
LINE
  5
268
330
17
100
AcDbEntity
  8
MyLines
100
AcDbLine
 10
218.8148148148148
 20
144.1
 30
0.0
 11
219.33333333333334
 21
143.55
 31
0.0
  0
LINE
  5
269
330
17
100
AcDbEntity
  8
MyLines
100
AcDbLine
 10
219.33333333333334
 20
143.55
 30
0.0
 11
219.59259259259258
 21
143.55
 31
0.0
  0
LINE
  5
26A
330
17
100
AcDbEntity
  8
MyLines
100
AcDbLine
 10
219.59259259259258
 20
143.55
 30
0.0
 11
220.37037037037038
 21
142.725
 31
0.0
  0
LINE
  5
26B
330
17
100
AcDbEntity
  8
MyLines
100
AcDbLine
 10
220.37037037037038
 20
142.725
 30
0.0
 11
220.62962962962962
 21
142.725
 31
0.0
  0
LINE
  5
26C
330
17
100
AcDbEntity
  8
MyLines
100
AcDbLine
 10
220.62962962962962
 20
142.725
 30
0.0
 11
221.40740740740742
 21
141.9
 31
0.0
  0
LINE
  5
26D
330
17
100
AcDbEntity
  8
MyLines
100
AcDbLine
 10
221.40740740740742
 20
141.9
 30
0.0
 11
221.40740740740742
 21
141.625
 31
0.0
  0
LINE
  5
26E
330
17
100
AcDbEntity
  8
MyLines
100
AcDbLine
 10
221.40740740740742
 20
141.625
 30
0.0
 11
222.1851851851852
 21
140.8
 31
0.0
  0
LINE
  5
26F
330
17
100
AcDbEntity
  8
MyLines
100
AcDbLine
 10
222.1851851851852
 20
140.8
 30
0.0
 11
222.1851851851852
 21
140.525
 31
0.0
  0
LINE
  5
270
330
17
100
AcDbEntity
  8
MyLines
100
AcDbLine
 10
222.1851851851852
 20
140.525
 30
0.0
 11
222.44444444444446
 21
140.25
 31
0.0
  0
LINE
  5
271
330
17
100
AcDbEntity
  8
MyLines
100
AcDbLine
 10
222.44444444444446
 20
140.25
 30
0.0
 11
222.44444444444446
 21
139.975
 31
0.0
  0
LINE
  5
272
330
17
100
AcDbEntity
  8
MyLines
100
AcDbLine
 10
222.44444444444446
 20
139.975
 30
0.0
 11
222.7037037037037
 21
139.7
 31
0.0
  0
LINE
  5
273
330
17
100
AcDbEntity
  8
MyLines
100
AcDbLine
 10
222.7037037037037
 20
139.7
 30
0.0
 11
222.7037037037037
 21
139.425
 31
0.0
  0
LINE
  5
274
330
17
100
AcDbEntity
  8
MyLines
100
AcDbLine
 10
222.7037037037037
 20
139.425
 30
0.0
 11
222.96296296296296
 21
139.15
 31
0.0
  0
LINE
  5
275
330
17
100
AcDbEntity
  8
MyLines
100
AcDbLine
 10
222.96296296296296
 20
139.15
 30
0.0
 11
222.96296296296296
 21
138.875
 31
0.0
  0
LINE
  5
276
330
17
100
AcDbEntity
  8
MyLines
100
AcDbLine
 10
222.96296296296296
 20
138.875
 30
0.0
 11
223.22222222222223
 21
138.6
 31
0.0
  0
LINE
  5
277
330
17
100
AcDbEntity
  8
MyLines
100
AcDbLine
 10
223.22222222222223
 20
138.6
 30
0.0
 11
223.22222222222223
 21
138.325
 31
0.0
  0
LINE
  5
278
330
17
100
AcDbEntity
  8
MyLines
100
AcDbLine
 10
223.22222222222223
 20
138.325
 30
0.0
 11
223.4814814814815
 21
138.05
 31
0.0
  0
LINE
  5
279
330
17
100
AcDbEntity
  8
MyLines
100
AcDbLine
 10
223.4814814814815
 20
138.05
 30
0.0
 11
223.4814814814815
 21
137.225
 31
0.0
  0
LINE
  5
27A
330
17
100
AcDbEntity
  8
MyLines
100
AcDbLine
 10
223.4814814814815
 20
137.225
 30
0.0
 11
223.74074074074073
 21
136.95
 31
0.0
  0
LINE
  5
27B
330
17
100
AcDbEntity
  8
MyLines
100
AcDbLine
 10
223.74074074074073
 20
136.95
 30
0.0
 11
223.74074074074073
 21
136.125
 31
0.0
  0
LINE
  5
27C
330
17
100
AcDbEntity
  8
MyLines
100
AcDbLine
 10
223.74074074074073
 20
136.125
 30
0.0
 11
224.0
 21
135.85
 31
0.0
  0
LINE
  5
27D
330
17
100
AcDbEntity
  8
MyLines
100
AcDbLine
 10
224.0
 20
135.85
 30
0.0
 11
224.0
 21
134.475
 31
0.0
  0
LINE
  5
27E
330
17
100
AcDbEntity
  8
MyLines
100
AcDbLine
 10
224.0
 20
134.475
 30
0.0
 11
224.25925925925927
 21
134.2
 31
0.0
  0
LINE
  5
27F
330
17
100
AcDbEntity
  8
MyLines
100
AcDbLine
 10
224.25925925925927
 20
134.2
 30
0.0
 11
224.25925925925927
 21
130.075
 31
0.0
  0
LINE
  5
280
330
17
100
AcDbEntity
  8
MyLines
100
AcDbLine
 10
224.25925925925927
 20
130.075
 30
0.0
 11
224.0
 21
129.8
 31
0.0
  0
LINE
  5
281
330
17
100
AcDbEntity
  8
MyLines
100
AcDbLine
 10
224.0
 20
129.8
 30
0.0
 11
224.0
 21
127.325
 31
0.0
  0
LINE
  5
282
330
17
100
AcDbEntity
  8
MyLines
100
AcDbLine
 10
224.0
 20
127.325
 30
0.0
 11
223.74074074074073
 21
127.05
 31
0.0
  0
LINE
  5
283
330
17
100
AcDbEntity
  8
MyLines
100
AcDbLine
 10
223.74074074074073
 20
127.05
 30
0.0
 11
223.74074074074073
 21
125.4
 31
0.0
  0
LINE
  5
284
330
17
100
AcDbEntity
  8
MyLines
100
AcDbLine
 10
223.74074074074073
 20
125.4
 30
0.0
 11
223.4814814814815
 21
125.125
 31
0.0
  0
LINE
  5
285
330
17
100
AcDbEntity
  8
MyLines
100
AcDbLine
 10
223.4814814814815
 20
125.125
 30
0.0
 11
223.4814814814815
 21
123.2
 31
0.0
  0
LINE
  5
286
330
17
100
AcDbEntity
  8
MyLines
100
AcDbLine
 10
223.4814814814815
 20
123.2
 30
0.0
 11
223.22222222222223
 21
122.925
 31
0.0
  0
LINE
  5
287
330
17
100
AcDbEntity
  8
MyLines
100
AcDbLine
 10
223.22222222222223
 20
122.925
 30
0.0
 11
223.22222222222223
 21
121.825
 31
0.0
  0
LINE
  5
288
330
17
100
AcDbEntity
  8
MyLines
100
AcDbLine
 10
223.22222222222223
 20
121.825
 30
0.0
 11
222.96296296296296
 21
121.55
 31
0.0
  0
LINE
  5
289
330
17
100
AcDbEntity
  8
MyLines
100
AcDbLine
 10
222.96296296296296
 20
121.55
 30
0.0
 11
222.96296296296296
 21
120.725
 31
0.0
  0
LINE
  5
28A
330
17
100
AcDbEntity
  8
MyLines
100
AcDbLine
 10
222.96296296296296
 20
120.725
 30
0.0
 11
222.7037037037037
 21
120.45
 31
0.0
  0
LINE
  5
28B
330
17
100
AcDbEntity
  8
MyLines
100
AcDbLine
 10
222.7037037037037
 20
120.45
 30
0.0
 11
222.7037037037037
 21
119.625
 31
0.0
  0
LINE
  5
28C
330
17
100
AcDbEntity
  8
MyLines
100
AcDbLine
 10
222.7037037037037
 20
119.625
 30
0.0
 11
222.44444444444446
 21
119.35
 31
0.0
  0
LINE
  5
28D
330
17
100
AcDbEntity
  8
MyLines
100
AcDbLine
 10
222.44444444444446
 20
119.35
 30
0.0
 11
222.44444444444446
 21
118.525
 31
0.0
  0
LINE
  5
28E
330
17
100
AcDbEntity
  8
MyLines
100
AcDbLine
 10
222.44444444444446
 20
118.525
 30
0.0
 11
222.1851851851852
 21
118.25
 31
0.0
  0
LINE
  5
28F
330
17
100
AcDbEntity
  8
MyLines
100
AcDbLine
 10
222.1851851851852
 20
118.25
 30
0.0
 11
222.1851851851852
 21
117.425
 31
0.0
  0
LINE
  5
290
330
17
100
AcDbEntity
  8
MyLines
100
AcDbLine
 10
222.1851851851852
 20
117.425
 30
0.0
 11
221.92592592592592
 21
117.15
 31
0.0
  0
LINE
  5
291
330
17
100
AcDbEntity
  8
MyLines
100
AcDbLine
 10
221.92592592592592
 20
117.15
 30
0.0
 11
221.92592592592592
 21
116.325
 31
0.0
  0
LINE
  5
292
330
17
100
AcDbEntity
  8
MyLines
100
AcDbLine
 10
221.92592592592592
 20
116.325
 30
0.0
 11
221.66666666666666
 21
116.05
 31
0.0
  0
LINE
  5
293
330
17
100
AcDbEntity
  8
MyLines
100
AcDbLine
 10
221.66666666666666
 20
116.05
 30
0.0
 11
221.66666666666666
 21
115.775
 31
0.0
  0
LINE
  5
294
330
17
100
AcDbEntity
  8
MyLines
100
AcDbLine
 10
221.66666666666666
 20
115.775
 30
0.0
 11
221.40740740740742
 21
115.5
 31
0.0
  0
LINE
  5
295
330
17
100
AcDbEntity
  8
MyLines
100
AcDbLine
 10
221.40740740740742
 20
115.5
 30
0.0
 11
221.40740740740742
 21
114.4
 31
0.0
  0
LINE
  5
296
330
17
100
AcDbEntity
  8
MyLines
100
AcDbLine
 10
221.40740740740742
 20
114.4
 30
0.0
 11
221.14814814814815
 21
114.125
 31
0.0
  0
LINE
  5
297
330
17
100
AcDbEntity
  8
MyLines
100
AcDbLine
 10
221.14814814814815
 20
114.125
 30
0.0
 11
221.14814814814815
 21
113.575
 31
0.0
  0
LINE
  5
298
330
17
100
AcDbEntity
  8
MyLines
100
AcDbLine
 10
221.14814814814815
 20
113.575
 30
0.0
 11
220.88888888888889
 21
113.3
 31
0.0
  0
LINE
  5
299
330
17
100
AcDbEntity
  8
MyLines
100
AcDbLine
 10
220.88888888888889
 20
113.3
 30
0.0
 11
220.88888888888889
 21
111.925
 31
0.0
  0
LINE
  5
29A
330
17
100
AcDbEntity
  8
MyLines
100
AcDbLine
 10
220.88888888888889
 20
111.925
 30
0.0
 11
220.62962962962962
 21
111.65
 31
0.0
  0
LINE
  5
29B
330
17
100
AcDbEntity
  8
MyLines
100
AcDbLine
 10
220.62962962962962
 20
111.65
 30
0.0
 11
220.62962962962962
 21
110.55
 31
0.0
  0
LINE
  5
29C
330
17
100
AcDbEntity
  8
MyLines
100
AcDbLine
 10
220.62962962962962
 20
110.55
 30
0.0
 11
220.37037037037038
 21
110.275
 31
0.0
  0
LINE
  5
29D
330
17
100
AcDbEntity
  8
MyLines
100
AcDbLine
 10
220.37037037037038
 20
110.275
 30
0.0
 11
220.37037037037038
 21
110.0
 31
0.0
  0
LINE
  5
29E
330
17
100
AcDbEntity
  8
MyLines
100
AcDbLine
 10
220.37037037037038
 20
110.0
 30
0.0
 11
220.11111111111111
 21
109.725
 31
0.0
  0
LINE
  5
29F
330
17
100
AcDbEntity
  8
MyLines
100
AcDbLine
 10
220.11111111111111
 20
109.725
 30
0.0
 11
220.11111111111111
 21
108.9
 31
0.0
  0
LINE
  5
2A0
330
17
100
AcDbEntity
  8
MyLines
100
AcDbLine
 10
220.11111111111111
 20
108.9
 30
0.0
 11
219.85185185185185
 21
108.625
 31
0.0
  0
LINE
  5
2A1
330
17
100
AcDbEntity
  8
MyLines
100
AcDbLine
 10
219.85185185185185
 20
108.625
 30
0.0
 11
219.85185185185185
 21
108.075
 31
0.0
  0
LINE
  5
2A2
330
17
100
AcDbEntity
  8
MyLines
100
AcDbLine
 10
219.85185185185185
 20
108.075
 30
0.0
 11
219.59259259259258
 21
107.8
 31
0.0
  0
LINE
  5
2A3
330
17
100
AcDbEntity
  8
MyLines
100
AcDbLine
 10
219.59259259259258
 20
107.8
 30
0.0
 11
219.59259259259258
 21
106.975
 31
0.0
  0
LINE
  5
2A4
330
17
100
AcDbEntity
  8
MyLines
100
AcDbLine
 10
219.59259259259258
 20
106.975
 30
0.0
 11
219.33333333333334
 21
106.7
 31
0.0
  0
LINE
  5
2A5
330
17
100
AcDbEntity
  8
MyLines
100
AcDbLine
 10
219.33333333333334
 20
106.7
 30
0.0
 11
219.33333333333334
 21
105.6
 31
0.0
  0
LINE
  5
2A6
330
17
100
AcDbEntity
  8
MyLines
100
AcDbLine
 10
219.33333333333334
 20
105.6
 30
0.0
 11
219.07407407407408
 21
105.325
 31
0.0
  0
LINE
  5
2A7
330
17
100
AcDbEntity
  8
MyLines
100
AcDbLine
 10
219.07407407407408
 20
105.325
 30
0.0
 11
219.07407407407408
 21
104.225
 31
0.0
  0
LINE
  5
2A8
330
17
100
AcDbEntity
  8
MyLines
100
AcDbLine
 10
219.07407407407408
 20
104.225
 30
0.0
 11
218.8148148148148
 21
103.95
 31
0.0
  0
LINE
  5
2A9
330
17
100
AcDbEntity
  8
MyLines
100
AcDbLine
 10
218.8148148148148
 20
103.95
 30
0.0
 11
218.8148148148148
 21
103.4
 31
0.0
  0
LINE
  5
2AA
330
17
100
AcDbEntity
  8
MyLines
100
AcDbLine
 10
218.8148148148148
 20
103.4
 30
0.0
 11
218.55555555555554
 21
103.125
 31
0.0
  0
LINE
  5
2AB
330
17
100
AcDbEntity
  8
MyLines
100
AcDbLine
 10
218.55555555555554
 20
103.125
 30
0.0
 11
218.55555555555554
 21
102.3
 31
0.0
  0
LINE
  5
2AC
330
17
100
AcDbEntity
  8
MyLines
100
AcDbLine
 10
218.55555555555554
 20
102.3
 30
0.0
 11
218.2962962962963
 21
102.025
 31
0.0
  0
LINE
  5
2AD
330
17
100
AcDbEntity
  8
MyLines
100
AcDbLine
 10
218.2962962962963
 20
102.025
 30
0.0
 11
218.2962962962963
 21
101.2
 31
0.0
  0
LINE
  5
2AE
330
17
100
AcDbEntity
  8
MyLines
100
AcDbLine
 10
218.2962962962963
 20
101.2
 30
0.0
 11
218.03703703703704
 21
100.925
 31
0.0
  0
LINE
  5
2AF
330
17
100
AcDbEntity
  8
MyLines
100
AcDbLine
 10
218.03703703703704
 20
100.925
 30
0.0
 11
218.03703703703704
 21
100.1
 31
0.0
  0
LINE
  5
2B0
330
17
100
AcDbEntity
  8
MyLines
100
AcDbLine
 10
218.03703703703704
 20
100.1
 30
0.0
 11
217.77777777777777
 21
99.825
 31
0.0
  0
LINE
  5
2B1
330
17
100
AcDbEntity
  8
MyLines
100
AcDbLine
 10
217.77777777777777
 20
99.825
 30
0.0
 11
217.77777777777777
 21
99.275
 31
0.0
  0
LINE
  5
2B2
330
17
100
AcDbEntity
  8
MyLines
100
AcDbLine
 10
217.77777777777777
 20
99.275
 30
0.0
 11
217.5185185185185
 21
99.0
 31
0.0
  0
LINE
  5
2B3
330
17
100
AcDbEntity
  8
MyLines
100
AcDbLine
 10
217.5185185185185
 20
99.0
 30
0.0
 11
217.5185185185185
 21
98.45
 31
0.0
  0
LINE
  5
2B4
330
17
100
AcDbEntity
  8
MyLines
100
AcDbLine
 10
217.5185185185185
 20
98.45
 30
0.0
 11
217.25925925925927
 21
98.175
 31
0.0
  0
LINE
  5
2B5
330
17
100
AcDbEntity
  8
MyLines
100
AcDbLine
 10
217.25925925925927
 20
98.175
 30
0.0
 11
217.25925925925927
 21
97.625
 31
0.0
  0
LINE
  5
2B6
330
17
100
AcDbEntity
  8
MyLines
100
AcDbLine
 10
217.25925925925927
 20
97.625
 30
0.0
 11
217.0
 21
97.35
 31
0.0
  0
LINE
  5
2B7
330
17
100
AcDbEntity
  8
MyLines
100
AcDbLine
 10
217.0
 20
97.35
 30
0.0
 11
217.0
 21
97.075
 31
0.0
  0
LINE
  5
2B8
330
17
100
AcDbEntity
  8
MyLines
100
AcDbLine
 10
217.0
 20
97.075
 30
0.0
 11
216.74074074074073
 21
96.8
 31
0.0
  0
LINE
  5
2B9
330
17
100
AcDbEntity
  8
MyLines
100
AcDbLine
 10
216.74074074074073
 20
96.8
 30
0.0
 11
216.74074074074073
 21
96.25
 31
0.0
  0
LINE
  5
2BA
330
17
100
AcDbEntity
  8
MyLines
100
AcDbLine
 10
216.74074074074073
 20
96.25
 30
0.0
 11
216.4814814814815
 21
95.975
 31
0.0
  0
LINE
  5
2BB
330
17
100
AcDbEntity
  8
MyLines
100
AcDbLine
 10
216.4814814814815
 20
95.975
 30
0.0
 11
216.4814814814815
 21
95.7
 31
0.0
  0
LINE
  5
2BC
330
17
100
AcDbEntity
  8
MyLines
100
AcDbLine
 10
216.4814814814815
 20
95.7
 30
0.0
 11
216.22222222222223
 21
95.425
 31
0.0
  0
LINE
  5
2BD
330
17
100
AcDbEntity
  8
MyLines
100
AcDbLine
 10
216.22222222222223
 20
95.425
 30
0.0
 11
216.22222222222223
 21
95.15
 31
0.0
  0
LINE
  5
2BE
330
17
100
AcDbEntity
  8
MyLines
100
AcDbLine
 10
216.22222222222223
 20
95.15
 30
0.0
 11
215.96296296296296
 21
94.875
 31
0.0
  0
LINE
  5
2BF
330
17
100
AcDbEntity
  8
MyLines
100
AcDbLine
 10
215.96296296296296
 20
94.875
 30
0.0
 11
215.96296296296296
 21
94.6
 31
0.0
  0
LINE
  5
2C0
330
17
100
AcDbEntity
  8
MyLines
100
AcDbLine
 10
215.96296296296296
 20
94.6
 30
0.0
 11
215.7037037037037
 21
94.325
 31
0.0
  0
LINE
  5
2C1
330
17
100
AcDbEntity
  8
MyLines
100
AcDbLine
 10
215.7037037037037
 20
94.325
 30
0.0
 11
215.7037037037037
 21
94.05
 31
0.0
  0
LINE
  5
2C2
330
17
100
AcDbEntity
  8
MyLines
100
AcDbLine
 10
215.7037037037037
 20
94.05
 30
0.0
 11
215.44444444444446
 21
93.775
 31
0.0
  0
LINE
  5
2C3
330
17
100
AcDbEntity
  8
MyLines
100
AcDbLine
 10
215.44444444444446
 20
93.775
 30
0.0
 11
215.44444444444446
 21
93.5
 31
0.0
  0
LINE
  5
2C4
330
17
100
AcDbEntity
  8
MyLines
100
AcDbLine
 10
215.44444444444446
 20
93.5
 30
0.0
 11
215.1851851851852
 21
93.225
 31
0.0
  0
LINE
  5
2C5
330
17
100
AcDbEntity
  8
MyLines
100
AcDbLine
 10
215.1851851851852
 20
93.225
 30
0.0
 11
215.1851851851852
 21
92.95
 31
0.0
  0
LINE
  5
2C6
330
17
100
AcDbEntity
  8
MyLines
100
AcDbLine
 10
215.1851851851852
 20
92.95
 30
0.0
 11
214.92592592592592
 21
92.675
 31
0.0
  0
LINE
  5
2C7
330
17
100
AcDbEntity
  8
MyLines
100
AcDbLine
 10
214.92592592592592
 20
92.675
 30
0.0
 11
214.92592592592592
 21
92.4
 31
0.0
  0
LINE
  5
2C8
330
17
100
AcDbEntity
  8
MyLines
100
AcDbLine
 10
214.92592592592592
 20
92.4
 30
0.0
 11
214.66666666666666
 21
92.125
 31
0.0
  0
LINE
  5
2C9
330
17
100
AcDbEntity
  8
MyLines
100
AcDbLine
 10
214.66666666666666
 20
92.125
 30
0.0
 11
214.66666666666666
 21
91.85
 31
0.0
  0
LINE
  5
2CA
330
17
100
AcDbEntity
  8
MyLines
100
AcDbLine
 10
214.66666666666666
 20
91.85
 30
0.0
 11
214.14814814814815
 21
91.3
 31
0.0
  0
LINE
  5
2CB
330
17
100
AcDbEntity
  8
MyLines
100
AcDbLine
 10
214.14814814814815
 20
91.3
 30
0.0
 11
214.14814814814815
 21
91.025
 31
0.0
  0
LINE
  5
2CC
330
17
100
AcDbEntity
  8
MyLines
100
AcDbLine
 10
214.14814814814815
 20
91.025
 30
0.0
 11
213.62962962962962
 21
90.475
 31
0.0
  0
LINE
  5
2CD
330
17
100
AcDbEntity
  8
MyLines
100
AcDbLine
 10
213.62962962962962
 20
90.475
 30
0.0
 11
213.62962962962962
 21
90.2
 31
0.0
  0
LINE
  5
2CE
330
17
100
AcDbEntity
  8
MyLines
100
AcDbLine
 10
213.62962962962962
 20
90.2
 30
0.0
 11
211.8148148148148
 21
88.275
 31
0.0
  0
LINE
  5
2CF
330
17
100
AcDbEntity
  8
MyLines
100
AcDbLine
 10
211.8148148148148
 20
88.275
 30
0.0
 11
211.55555555555554
 21
88.275
 31
0.0
  0
LINE
  5
2D0
330
17
100
AcDbEntity
  8
MyLines
100
AcDbLine
 10
211.55555555555554
 20
88.275
 30
0.0
 11
211.2962962962963
 21
88.0
 31
0.0
  0
LINE
  5
2D1
330
17
100
AcDbEntity
  8
MyLines
100
AcDbLine
 10
211.2962962962963
 20
88.0
 30
0.0
 11
211.03703703703704
 21
88.0
 31
0.0
  0
LINE
  5
2D2
330
17
100
AcDbEntity
  8
MyLines
100
AcDbLine
 10
211.03703703703704
 20
88.0
 30
0.0
 11
210.5185185185185
 21
87.45
 31
0.0
  0
LINE
  5
2D3
330
17
100
AcDbEntity
  8
MyLines
100
AcDbLine
 10
210.5185185185185
 20
87.45
 30
0.0
 11
210.25925925925927
 21
87.45
 31
0.0
  0
LINE
  5
2D4
330
17
100
AcDbEntity
  8
MyLines
100
AcDbLine
 10
210.25925925925927
 20
87.45
 30
0.0
 11
210.0
 21
87.175
 31
0.0
  0
LINE
  5
2D5
330
17
100
AcDbEntity
  8
MyLines
100
AcDbLine
 10
210.0
 20
87.175
 30
0.0
 11
209.74074074074073
 21
87.175
 31
0.0
  0
LINE
  5
2D6
330
17
100
AcDbEntity
  8
MyLines
100
AcDbLine
 10
209.74074074074073
 20
87.175
 30
0.0
 11
209.4814814814815
 21
86.9
 31
0.0
  0
LINE
  5
2D7
330
17
100
AcDbEntity
  8
MyLines
100
AcDbLine
 10
209.4814814814815
 20
86.9
 30
0.0
 11
209.22222222222223
 21
86.9
 31
0.0
  0
LINE
  5
2D8
330
17
100
AcDbEntity
  8
MyLines
100
AcDbLine
 10
209.22222222222223
 20
86.9
 30
0.0
 11
208.96296296296296
 21
86.625
 31
0.0
  0
LINE
  5
2D9
330
17
100
AcDbEntity
  8
MyLines
100
AcDbLine
 10
208.96296296296296
 20
86.625
 30
0.0
 11
208.44444444444446
 21
86.625
 31
0.0
  0
LINE
  5
2DA
330
17
100
AcDbEntity
  8
MyLines
100
AcDbLine
 10
208.44444444444446
 20
86.625
 30
0.0
 11
208.1851851851852
 21
86.35
 31
0.0
  0
LINE
  5
2DB
330
17
100
AcDbEntity
  8
MyLines
100
AcDbLine
 10
208.1851851851852
 20
86.35
 30
0.0
 11
207.14814814814815
 21
86.35
 31
0.0
  0
LINE
  5
2DC
330
17
100
AcDbEntity
  8
MyLines
100
AcDbLine
 10
207.14814814814815
 20
86.35
 30
0.0
 11
206.88888888888889
 21
86.075
 31
0.0
  0
LINE
  5
2DD
330
17
100
AcDbEntity
  8
MyLines
100
AcDbLine
 10
206.88888888888889
 20
86.075
 30
0.0
 11
206.62962962962962
 21
86.35
 31
0.0
  0
LINE
  5
2DE
330
17
100
AcDbEntity
  8
MyLines
100
AcDbLine
 10
206.62962962962962
 20
86.35
 30
0.0
 11
205.85185185185185
 21
86.35
 31
0.0
  0
LINE
  5
2DF
330
17
100
AcDbEntity
  8
MyLines
100
AcDbLine
 10
205.85185185185185
 20
86.35
 30
0.0
 11
205.59259259259258
 21
86.075
 31
0.0
  0
LINE
  5
2E0
330
17
100
AcDbEntity
  8
MyLines
100
AcDbLine
 10
205.59259259259258
 20
86.075
 30
0.0
 11
205.07407407407408
 21
86.075
 31
0.0
  0
LINE
  5
2E1
330
17
100
AcDbEntity
  8
MyLines
100
AcDbLine
 10
205.07407407407408
 20
86.075
 30
0.0
 11
204.8148148148148
 21
85.8
 31
0.0
  0
LINE
  5
2E2
330
17
100
AcDbEntity
  8
MyLines
100
AcDbLine
 10
204.8148148148148
 20
85.8
 30
0.0
 11
203.77777777777777
 21
85.8
 31
0.0
  0
LINE
  5
2E3
330
17
100
AcDbEntity
  8
MyLines
100
AcDbLine
 10
203.77777777777777
 20
85.8
 30
0.0
 11
203.5185185185185
 21
85.525
 31
0.0
  0
LINE
  5
2E4
330
17
100
AcDbEntity
  8
MyLines
100
AcDbLine
 10
203.5185185185185
 20
85.525
 30
0.0
 11
199.37037037037038
 21
85.525
 31
0.0
  0
LINE
  5
2E5
330
17
100
AcDbEntity
  8
MyLines
100
AcDbLine
 10
199.37037037037038
 20
85.525
 30
0.0
 11
199.11111111111111
 21
85.8
 31
0.0
  0
LINE
  5
2E6
330
17
100
AcDbEntity
  8
MyLines
100
AcDbLine
 10
199.11111111111111
 20
85.8
 30
0.0
 11
195.74074074074073
 21
85.8
 31
0.0
  0
LINE
  5
2E7
330
17
100
AcDbEntity
  8
MyLines
100
AcDbLine
 10
195.74074074074073
 20
85.8
 30
0.0
 11
195.4814814814815
 21
86.075
 31
0.0
  0
LINE
  5
2E8
330
17
100
AcDbEntity
  8
MyLines
100
AcDbLine
 10
195.4814814814815
 20
86.075
 30
0.0
 11
189.5185185185185
 21
86.075
 31
0.0
  0
LINE
  5
2E9
330
17
100
AcDbEntity
  8
MyLines
100
AcDbLine
 10
189.5185185185185
 20
86.075
 30
0.0
 11
189.25925925925927
 21
85.8
 31
0.0
  0
LINE
  5
2EA
330
17
100
AcDbEntity
  8
MyLines
100
AcDbLine
 10
189.25925925925927
 20
85.8
 30
0.0
 11
189.0
 21
85.8
 31
0.0
  0
LINE
  5
2EB
330
17
100
AcDbEntity
  8
MyLines
100
AcDbLine
 10
189.0
 20
85.8
 30
0.0
 11
188.74074074074073
 21
86.075
 31
0.0
  0
LINE
  5
2EC
330
17
100
AcDbEntity
  8
MyLines
100
AcDbLine
 10
188.74074074074073
 20
86.075
 30
0.0
 11
187.44444444444446
 21
86.075
 31
0.0
  0
LINE
  5
2ED
330
17
100
AcDbEntity
  8
MyLines
100
AcDbLine
 10
187.44444444444446
 20
86.075
 30
0.0
 11
187.1851851851852
 21
86.35
 31
0.0
  0
LINE
  5
2EE
330
17
100
AcDbEntity
  8
MyLines
100
AcDbLine
 10
187.1851851851852
 20
86.35
 30
0.0
 11
186.14814814814815
 21
86.35
 31
0.0
  0
LINE
  5
2EF
330
17
100
AcDbEntity
  8
MyLines
100
AcDbLine
 10
186.14814814814815
 20
86.35
 30
0.0
 11
185.88888888888889
 21
86.075
 31
0.0
  0
LINE
  5
2F0
330
17
100
AcDbEntity
  8
MyLines
100
AcDbLine
 10
185.88888888888889
 20
86.075
 30
0.0
 11
183.03703703703704
 21
86.075
 31
0.0
  0
LINE
  5
2F1
330
17
100
AcDbEntity
  8
MyLines
100
AcDbLine
 10
183.03703703703704
 20
86.075
 30
0.0
 11
182.77777777777777
 21
86.35
 31
0.0
  0
LINE
  5
2F2
330
17
100
AcDbEntity
  8
MyLines
100
AcDbLine
 10
182.77777777777777
 20
86.35
 30
0.0
 11
182.5185185185185
 21
86.35
 31
0.0
  0
LINE
  5
2F3
330
17
100
AcDbEntity
  8
MyLines
100
AcDbLine
 10
182.5185185185185
 20
86.35
 30
0.0
 11
182.25925925925927
 21
86.075
 31
0.0
  0
LINE
  5
2F4
330
17
100
AcDbEntity
  8
MyLines
100
AcDbLine
 10
182.25925925925927
 20
86.075
 30
0.0
 11
182.0
 21
86.075
 31
0.0
  0
LINE
  5
2F5
330
17
100
AcDbEntity
  8
MyLines
100
AcDbLine
 10
182.0
 20
86.075
 30
0.0
 11
181.74074074074073
 21
85.8
 31
0.0
  0
LINE
  5
2F6
330
17
100
AcDbEntity
  8
MyLines
100
AcDbLine
 10
181.74074074074073
 20
85.8
 30
0.0
 11
180.1851851851852
 21
85.8
 31
0.0
  0
LINE
  5
2F7
330
17
100
AcDbEntity
  8
MyLines
100
AcDbLine
 10
180.1851851851852
 20
85.8
 30
0.0
 11
179.92592592592592
 21
85.525
 31
0.0
  0
LINE
  5
2F8
330
17
100
AcDbEntity
  8
MyLines
100
AcDbLine
 10
179.92592592592592
 20
85.525
 30
0.0
 11
175.77777777777777
 21
85.525
 31
0.0
  0
LINE
  5
2F9
330
17
100
AcDbEntity
  8
MyLines
100
AcDbLine
 10
175.77777777777777
 20
85.525
 30
0.0
 11
175.5185185185185
 21
85.8
 31
0.0
  0
LINE
  5
2FA
330
17
100
AcDbEntity
  8
MyLines
100
AcDbLine
 10
175.5185185185185
 20
85.8
 30
0.0
 11
169.55555555555554
 21
85.8
 31
0.0
  0
LINE
  5
2FB
330
17
100
AcDbEntity
  8
MyLines
100
AcDbLine
 10
169.55555555555554
 20
85.8
 30
0.0
 11
169.2962962962963
 21
85.525
 31
0.0
  0
LINE
  5
2FC
330
17
100
AcDbEntity
  8
MyLines
100
AcDbLine
 10
169.2962962962963
 20
85.525
 30
0.0
 11
168.5185185185185
 21
85.525
 31
0.0
  0
LINE
  5
2FD
330
17
100
AcDbEntity
  8
MyLines
100
AcDbLine
 10
168.5185185185185
 20
85.525
 30
0.0
 11
168.25925925925927
 21
85.8
 31
0.0
  0
LINE
  5
2FE
330
17
100
AcDbEntity
  8
MyLines
100
AcDbLine
 10
168.25925925925927
 20
85.8
 30
0.0
 11
166.1851851851852
 21
85.8
 31
0.0
  0
LINE
  5
2FF
330
17
100
AcDbEntity
  8
MyLines
100
AcDbLine
 10
166.1851851851852
 20
85.8
 30
0.0
 11
165.92592592592592
 21
85.525
 31
0.0
  0
LINE
  5
300
330
17
100
AcDbEntity
  8
MyLines
100
AcDbLine
 10
165.92592592592592
 20
85.525
 30
0.0
 11
154.5185185185185
 21
85.525
 31
0.0
  0
LINE
  5
301
330
17
100
AcDbEntity
  8
MyLines
100
AcDbLine
 10
154.5185185185185
 20
85.525
 30
0.0
 11
154.25925925925927
 21
85.25
 31
0.0
  0
LINE
  5
302
330
17
100
AcDbEntity
  8
MyLines
100
AcDbLine
 10
154.25925925925927
 20
85.25
 30
0.0
 11
141.03703703703704
 21
85.25
 31
0.0
  0
LINE
  5
303
330
17
100
AcDbEntity
  8
MyLines
100
AcDbLine
 10
141.03703703703704
 20
85.25
 30
0.0
 11
140.77777777777777
 21
84.975
 31
0.0
  0
LINE
  5
304
330
17
100
AcDbEntity
  8
MyLines
100
AcDbLine
 10
140.77777777777777
 20
84.975
 30
0.0
 11
130.14814814814815
 21
84.975
 31
0.0
  0
LINE
  5
305
330
17
100
AcDbEntity
  8
MyLines
100
AcDbLine
 10
130.14814814814815
 20
84.975
 30
0.0
 11
129.88888888888889
 21
84.7
 31
0.0
  0
LINE
  5
306
330
17
100
AcDbEntity
  8
MyLines
100
AcDbLine
 10
129.88888888888889
 20
84.7
 30
0.0
 11
120.81481481481481
 21
84.7
 31
0.0
  0
LINE
  5
307
330
17
100
AcDbEntity
  8
MyLines
100
AcDbLine
 10
120.81481481481481
 20
84.7
 30
0.0
 11
120.55555555555556
 21
84.425
 31
0.0
  0
LINE
  5
308
330
17
100
AcDbEntity
  8
MyLines
100
AcDbLine
 10
120.55555555555556
 20
84.425
 30
0.0
 11
110.96296296296296
 21
84.425
 31
0.0
  0
LINE
  5
309
330
17
100
AcDbEntity
  8
MyLines
100
AcDbLine
 10
110.96296296296296
 20
84.425
 30
0.0
 11
110.70370370370371
 21
84.15
 31
0.0
  0
LINE
  5
30A
330
17
100
AcDbEntity
  8
MyLines
100
AcDbLine
 10
110.70370370370371
 20
84.15
 30
0.0
 11
104.22222222222223
 21
84.15
 31
0.0
  0
LINE
  5
30B
330
17
100
AcDbEntity
  8
MyLines
100
AcDbLine
 10
104.22222222222223
 20
84.15
 30
0.0
 11
103.96296296296296
 21
83.875
 31
0.0
  0
LINE
  5
30C
330
17
100
AcDbEntity
  8
MyLines
100
AcDbLine
 10
103.96296296296296
 20
83.875
 30
0.0
 11
99.55555555555556
 21
83.875
 31
0.0
  0
LINE
  5
30D
330
17
100
AcDbEntity
  8
MyLines
100
AcDbLine
 10
99.55555555555556
 20
83.875
 30
0.0
 11
99.29629629629629
 21
83.6
 31
0.0
  0
LINE
  5
30E
330
17
100
AcDbEntity
  8
MyLines
100
AcDbLine
 10
99.29629629629629
 20
83.6
 30
0.0
 11
92.81481481481481
 21
83.6
 31
0.0
  0
LINE
  5
30F
330
17
100
AcDbEntity
  8
MyLines
100
AcDbLine
 10
92.81481481481481
 20
83.6
 30
0.0
 11
92.55555555555556
 21
83.325
 31
0.0
  0
LINE
  5
310
330
17
100
AcDbEntity
  8
MyLines
100
AcDbLine
 10
92.55555555555556
 20
83.325
 30
0.0
 11
92.03703703703704
 21
83.325
 31
0.0
  0
LINE
  5
311
330
17
100
AcDbEntity
  8
MyLines
100
AcDbLine
 10
92.03703703703704
 20
83.325
 30
0.0
 11
91.77777777777777
 21
83.6
 31
0.0
  0
LINE
  5
312
330
17
100
AcDbEntity
  8
MyLines
100
AcDbLine
 10
91.77777777777777
 20
83.6
 30
0.0
 11
88.92592592592592
 21
83.6
 31
0.0
  0
LINE
  5
313
330
17
100
AcDbEntity
  8
MyLines
100
AcDbLine
 10
88.92592592592592
 20
83.6
 30
0.0
 11
88.66666666666667
 21
83.325
 31
0.0
  0
LINE
  5
314
330
17
100
AcDbEntity
  8
MyLines
100
AcDbLine
 10
88.66666666666667
 20
83.325
 30
0.0
 11
85.55555555555556
 21
83.325
 31
0.0
  0
LINE
  5
315
330
17
100
AcDbEntity
  8
MyLines
100
AcDbLine
 10
85.55555555555556
 20
83.325
 30
0.0
 11
85.29629629629629
 21
83.05
 31
0.0
  0
LINE
  5
316
330
17
100
AcDbEntity
  8
MyLines
100
AcDbLine
 10
85.29629629629629
 20
83.05
 30
0.0
 11
80.88888888888889
 21
83.05
 31
0.0
  0
LINE
  5
317
330
17
100
AcDbEntity
  8
MyLines
100
AcDbLine
 10
80.88888888888889
 20
83.05
 30
0.0
 11
80.62962962962963
 21
83.325
 31
0.0
  0
LINE
  5
318
330
17
100
AcDbEntity
  8
MyLines
100
AcDbLine
 10
80.62962962962963
 20
83.325
 30
0.0
 11
80.37037037037037
 21
83.325
 31
0.0
  0
LINE
  5
319
330
17
100
AcDbEntity
  8
MyLines
100
AcDbLine
 10
80.37037037037037
 20
83.325
 30
0.0
 11
80.11111111111111
 21
83.6
 31
0.0
  0
LINE
  5
31A
330
17
100
AcDbEntity
  8
MyLines
100
AcDbLine
 10
80.11111111111111
 20
83.6
 30
0.0
 11
79.85185185185185
 21
83.325
 31
0.0
  0
LINE
  5
31B
330
17
100
AcDbEntity
  8
MyLines
100
AcDbLine
 10
79.85185185185185
 20
83.325
 30
0.0
 11
78.29629629629629
 21
83.325
 31
0.0
  0
LINE
  5
31C
330
17
100
AcDbEntity
  8
MyLines
100
AcDbLine
 10
78.29629629629629
 20
83.325
 30
0.0
 11
78.03703703703704
 21
83.05
 31
0.0
  0
LINE
  5
31D
330
17
100
AcDbEntity
  8
MyLines
100
AcDbLine
 10
78.03703703703704
 20
83.05
 30
0.0
 11
71.55555555555556
 21
83.05
 31
0.0
  0
LINE
  5
31E
330
17
100
AcDbEntity
  8
MyLines
100
AcDbLine
 10
116.4074074074074
 20
81.125
 30
0.0
 11
116.66666666666667
 21
81.4
 31
0.0
  0
LINE
  5
31F
330
17
100
AcDbEntity
  8
MyLines
100
AcDbLine
 10
116.66666666666667
 20
81.4
 30
0.0
 11
118.22222222222223
 21
81.4
 31
0.0
  0
LINE
  5
320
330
17
100
AcDbEntity
  8
MyLines
100
AcDbLine
 10
118.22222222222223
 20
81.4
 30
0.0
 11
118.48148148148148
 21
81.675
 31
0.0
  0
LINE
  5
321
330
17
100
AcDbEntity
  8
MyLines
100
AcDbLine
 10
118.48148148148148
 20
81.675
 30
0.0
 11
125.22222222222223
 21
81.675
 31
0.0
  0
LINE
  5
322
330
17
100
AcDbEntity
  8
MyLines
100
AcDbLine
 10
125.22222222222223
 20
81.675
 30
0.0
 11
125.22222222222223
 21
81.4
 31
0.0
  0
LINE
  5
323
330
17
100
AcDbEntity
  8
MyLines
100
AcDbLine
 10
125.22222222222223
 20
81.4
 30
0.0
 11
123.4074074074074
 21
81.4
 31
0.0
  0
LINE
  5
324
330
17
100
AcDbEntity
  8
MyLines
100
AcDbLine
 10
123.4074074074074
 20
81.4
 30
0.0
 11
123.14814814814815
 21
81.125
 31
0.0
  0
LINE
  5
325
330
17
100
AcDbEntity
  8
MyLines
100
AcDbLine
 10
123.14814814814815
 20
81.125
 30
0.0
 11
122.88888888888889
 21
81.125
 31
0.0
  0
LINE
  5
326
330
17
100
AcDbEntity
  8
MyLines
100
AcDbLine
 10
122.88888888888889
 20
81.125
 30
0.0
 11
122.62962962962963
 21
81.4
 31
0.0
  0
LINE
  5
327
330
17
100
AcDbEntity
  8
MyLines
100
AcDbLine
 10
122.62962962962963
 20
81.4
 30
0.0
 11
122.37037037037037
 21
81.4
 31
0.0
  0
LINE
  5
328
330
17
100
AcDbEntity
  8
MyLines
100
AcDbLine
 10
122.37037037037037
 20
81.4
 30
0.0
 11
122.11111111111111
 21
81.125
 31
0.0
  0
LINE
  5
329
330
17
100
AcDbEntity
  8
MyLines
100
AcDbLine
 10
122.11111111111111
 20
81.125
 30
0.0
 11
116.4074074074074
 21
81.125
 31
0.0
  0
ENDSEC
  0
SECTION
  2
OBJECTS
  0
DICTIONARY
  5
A
330
0
100
AcDbDictionary
281
1
  3
ACAD_COLOR
350
B
  3
ACAD_GROUP
350
C
  3
ACAD_LAYOUT
350
D
  3
ACAD_MATERIAL
350
E
  3
ACAD_MLEADERSTYLE
350
F
  3
ACAD_MLINESTYLE
350
10
  3
ACAD_PLOTSETTINGS
350
11
  3
ACAD_PLOTSTYLENAME
350
12
  3
ACAD_SCALELIST
350
14
  3
ACAD_TABLESTYLE
350
15
  3
ACAD_VISUALSTYLE
350
16
  0
DICTIONARY
  5
B
330
A
100
AcDbDictionary
281
1
  0
DICTIONARY
  5
C
330
A
100
AcDbDictionary
281
1
  0
DICTIONARY
  5
D
330
A
100
AcDbDictionary
281
1
  3
Model
350
1A
  3
Layout1
350
1E
  0
DICTIONARY
  5
E
330
A
100
AcDbDictionary
281
1
  3
ByBlock
350
1F
  3
ByLayer
350
20
  3
Global
350
21
  0
DICTIONARY
  5
F
330
A
100
AcDbDictionary
281
1
  3
Standard
350
2C
  0
DICTIONARY
  5
10
330
A
100
AcDbDictionary
281
1
  3
Standard
350
22
  0
DICTIONARY
  5
11
330
A
100
AcDbDictionary
281
1
  0
ACDBDICTIONARYWDFLT
  5
12
330
A
100
AcDbDictionary
281
1
  3
Normal
350
13
100
AcDbDictionaryWithDefault
340
13
  0
ACDBPLACEHOLDER
  5
13
330
12
  0
DICTIONARY
  5
14
330
A
100
AcDbDictionary
281
1
  0
DICTIONARY
  5
15
330
A
100
AcDbDictionary
281
1
  0
DICTIONARY
  5
16
330
A
100
AcDbDictionary
281
1
  0
LAYOUT
  5
1A
330
D
100
AcDbPlotSettings
  1

  2
Adobe PDF
  4
A4
  6

 40
3.175
 41
3.175
 42
3.175
 43
3.175
 44
209.91
 45
297.03
 46
0.0
 47
0.0
 48
0.0
 49
0.0
140
0.0
141
0.0
142
1.0
143
1.0
 70
1024
 72
0
 73
1
 74
5
  7

 75
16
 76
0
 77
2
 78
300
147
1.0
148
0.0
149
0.0
100
AcDbLayout
  1
Model
 70
1
 71
0
 10
-3.175
 20
-3.175
 11
293.857
 21
206.735
 12
0.0
 22
0.0
 32
0.0
 14
29.068
 24
20.356
 34
0.0
 15
261.614
 25
183.204
 35
0.0
146
0.0
 13
0.0
 23
0.0
 33
0.0
 16
1.0
 26
0.0
 36
0.0
 17
0.0
 27
1.0
 37
0.0
 76
1
330
17
  0
LAYOUT
  5
1E
330
D
100
AcDbPlotSettings
  1

  2
Adobe PDF
  4
A4
  6

 40
3.175
 41
3.175
 42
3.175
 43
3.175
 44
209.91
 45
297.03
 46
0.0
 47
0.0
 48
0.0
 49
0.0
140
0.0
141
0.0
142
1.0
143
1.0
 70
0
 72
0
 73
1
 74
5
  7

 75
16
 76
0
 77
2
 78
300
147
1.0
148
0.0
149
0.0
100
AcDbLayout
  1
Layout1
 70
1
 71
1
 10
-3.175
 20
-3.175
 11
293.857
 21
206.735
 12
0.0
 22
0.0
 32
0.0
 14
29.068
 24
20.356
 34
0.0
 15
261.614
 25
183.204
 35
0.0
146
0.0
 13
0.0
 23
0.0
 33
0.0
 16
1.0
 26
0.0
 36
0.0
 17
0.0
 27
1.0
 37
0.0
 76
1
330
1B
  0
MATERIAL
  5
1F
102
{ACAD_REACTORS
330
E
102
}
330
E
100
AcDbMaterial
  1
ByBlock
  2

 70
0
 40
1.0
 71
1
 41
1.0
 91
-1023410177
 42
1.0
 72
1
  3

 73
1
 74
1
 75
1
 44
0.5
 73
0
 45
1.0
 46
1.0
 77
1
  4

 78
1
 79
1
170
1
 48
1.0
171
1
  6

172
1
173
1
174
1
140
1.0
141
1.0
175
1
  7

176
1
177
1
178
1
143
1.0
179
1
  8

270
1
271
1
272
1
145
1.0
146
1.0
273
1
  9

274
1
275
1
276
1
 42
1.0
 72
1
  3

 73
1
 74
1
 75
1
 94
63
  0
MATERIAL
  5
20
102
{ACAD_REACTORS
330
E
102
}
330
E
100
AcDbMaterial
  1
ByLayer
  2

 70
0
 40
1.0
 71
1
 41
1.0
 91
-1023410177
 42
1.0
 72
1
  3

 73
1
 74
1
 75
1
 44
0.5
 73
0
 45
1.0
 46
1.0
 77
1
  4

 78
1
 79
1
170
1
 48
1.0
171
1
  6

172
1
173
1
174
1
140
1.0
141
1.0
175
1
  7

176
1
177
1
178
1
143
1.0
179
1
  8

270
1
271
1
272
1
145
1.0
146
1.0
273
1
  9

274
1
275
1
276
1
 42
1.0
 72
1
  3

 73
1
 74
1
 75
1
 94
63
  0
MATERIAL
  5
21
102
{ACAD_REACTORS
330
E
102
}
330
E
100
AcDbMaterial
  1
Global
  2

 70
0
 40
1.0
 71
1
 41
1.0
 91
-1023410177
 42
1.0
 72
1
  3

 73
1
 74
1
 75
1
 44
0.5
 73
0
 45
1.0
 46
1.0
 77
1
  4

 78
1
 79
1
170
1
 48
1.0
171
1
  6

172
1
173
1
174
1
140
1.0
141
1.0
175
1
  7

176
1
177
1
178
1
143
1.0
179
1
  8

270
1
271
1
272
1
145
1.0
146
1.0
273
1
  9

274
1
275
1
276
1
 42
1.0
 72
1
  3

 73
1
 74
1
 75
1
 94
63
  0
MLINESTYLE
  5
22
102
{ACAD_REACTORS
330
10
102
}
330
10
100
AcDbMlineStyle
  2
Standard
 70
0
  3

 62
256
 51
90.0
 52
90.0
 71
2
 49
0.5
 62
256
  6
BYLAYER
 49
-0.5
 62
256
  6
BYLAYER
  0
MLEADERSTYLE
  5
2C
102
{ACAD_REACTORS
330
F
102
}
330
F
100
AcDbMLeaderStyle
179
2
170
2
171
1
172
0
 90
2
 40
0.0
 41
0.0
173
1
 91
-1056964608
 92
-2
290
1
 42
2.0
291
1
 43
8.0
  3
Standard
 44
4.0
300

342
29
174
1
175
1
176
0
178
1
 93
-1056964608
 45
4.0
292
0
297
0
 46
4.0
 94
-1056964608
 47
1.0
 49
1.0
140
1.0
294
1
141
0.0
177
0
142
1.0
295
0
296
0
143
3.75
271
0
272
9
273
9
  0
ENDSEC
  0
EOF
